<svg width="24" height="24" viewBox="0 0 24 24" fill="none" xmlns="http://www.w3.org/2000/svg">
<path fill-rule="evenodd" clip-rule="evenodd" d="M20.5277 10.3731C20.157 9.73114 19.4777 9.52011 18.8292 9.42944C18.1755 9.33803 17.3006 9.33806 16.2424 9.33809L16.1822 9.33809C15.5521 9.33809 15.1402 9.33188 14.84 9.29015C14.5686 9.25241 14.4823 9.19655 14.4455 9.16397C14.4185 9.13587 14.3704 9.07014 14.3377 8.83317C14.2991 8.55376 14.2974 8.17061 14.2974 7.55655V7.18206C14.2975 5.59454 14.2975 4.3228 14.1753 3.41611C14.0606 2.56505 13.788 1.6092 12.8438 1.31986C11.9162 1.0356 11.1382 1.64515 10.5335 2.27356C9.88924 2.94301 9.12395 3.97846 8.16577 5.2749L5.02878 9.5192C4.41844 10.3449 3.90966 11.0332 3.6065 11.6024C3.30262 12.173 3.08146 12.8504 3.41853 13.5263L3.41971 13.5288L3.42326 13.536L3.4273 13.544L3.43127 13.5517L3.43562 13.5599L3.44004 13.568L3.44423 13.5755L3.44866 13.5833L3.45271 13.5902L3.4542 13.5927C3.8217 14.2291 4.49806 14.4519 5.15242 14.5518C5.82674 14.6548 6.72653 14.6614 7.81777 14.6614C8.45438 14.6614 8.8603 14.6628 9.15842 14.7008C9.42177 14.7344 9.50053 14.7862 9.53429 14.816C9.5642 14.8473 9.61664 14.9202 9.65362 15.1658C9.69594 15.4468 9.70258 15.8359 9.70257 16.443L9.70256 16.8173C9.70252 18.4049 9.70248 19.6766 9.82465 20.5833C9.93932 21.4344 10.2119 22.3902 11.1561 22.6796C12.0837 22.9639 12.8617 22.3543 13.4665 21.7259C14.1107 21.0564 14.876 20.021 15.8342 18.7245L18.9336 14.5312C19.5644 13.6778 20.0832 12.9648 20.3891 12.3713C20.6885 11.7906 20.8974 11.1092 20.5634 10.4395L20.5623 10.4371L20.5587 10.4299L20.5546 10.4218L20.5507 10.4141L20.5463 10.4059L20.5418 10.3978L20.5376 10.3902L20.5332 10.3824L20.5291 10.3754L20.5277 10.3731ZM11.6143 3.31367C11.0463 3.90386 10.3386 4.85878 9.33482 6.21684L6.27268 10.3599C5.61499 11.2497 5.17495 11.8485 4.93044 12.3076C4.81142 12.531 4.76674 12.672 4.75402 12.7573C4.74617 12.81 4.75096 12.8338 4.75724 12.8491C4.78143 12.8847 4.88645 12.9939 5.37881 13.069C5.91671 13.1512 6.69014 13.1614 7.81777 13.1614L7.86374 13.1614C8.44088 13.1614 8.94374 13.1613 9.34812 13.2129C9.7813 13.2681 10.2116 13.3937 10.5679 13.7288L10.5737 13.7343L10.5794 13.7399C10.9294 14.0834 11.0717 14.5094 11.1369 14.9424C11.1992 15.3563 11.2026 15.8654 11.2026 16.443L11.2026 16.7526C11.2025 18.4195 11.2042 19.5889 11.3112 20.383C11.3645 20.7784 11.4362 21.0103 11.5048 21.1399C11.5562 21.2369 11.5858 21.2433 11.5941 21.2451L11.5956 21.2454L11.5971 21.2459C11.6076 21.2495 11.6445 21.2623 11.7581 21.2051C11.9001 21.1336 12.103 20.9795 12.3857 20.6858C12.9536 20.0956 13.6614 19.1407 14.6652 17.7826L17.7273 13.6396C18.3813 12.7548 18.817 12.1473 19.0559 11.684C19.2606 11.2868 19.2383 11.1523 19.2247 11.1166C19.2022 11.0838 19.1014 10.9821 18.6215 10.915C18.0844 10.8399 17.3159 10.8381 16.1822 10.8381C15.5794 10.8381 15.0565 10.8347 14.6335 10.7759C14.1966 10.7151 13.7653 10.5836 13.4122 10.2515L13.4063 10.246L13.4006 10.2404C13.0474 9.8937 12.9112 9.46825 12.8518 9.03838C12.7974 8.64405 12.7974 8.15573 12.7974 7.60489L12.7974 7.24685C12.7974 5.57995 12.7957 4.4105 12.6887 3.61643C12.6355 3.22104 12.5638 2.98911 12.4952 2.85959C12.4437 2.76252 12.4141 2.75617 12.4058 2.75438L12.4043 2.75403L12.4028 2.75352C12.3924 2.74991 12.3555 2.73719 12.2418 2.79439C12.0998 2.86584 11.897 3.01993 11.6143 3.31367Z" fill="#1C274C"/>
</svg>
