<svg width="24" height="24" viewBox="0 0 24 24" fill="none" xmlns="http://www.w3.org/2000/svg">
<path fill-rule="evenodd" clip-rule="evenodd" d="M15.6014 2.40067C15.3816 2.18091 15.1051 2.19057 14.9534 2.21069C14.8101 2.2297 14.6383 2.27857 14.4747 2.32513L14.3487 2.36094L14.2463 2.2963C14.1077 2.20877 13.9589 2.11474 13.8264 2.05718C13.6771 1.99226 13.425 1.9184 13.1601 2.05762C12.9002 2.19419 12.8147 2.43866 12.7794 2.59422C12.7472 2.73578 12.7334 2.91279 12.7203 3.08113L12.7104 3.20864L12.7095 3.21926L12.598 3.31111C12.4647 3.42078 12.3264 3.53459 12.2282 3.64185C12.1243 3.75547 11.9641 3.96894 12.0048 4.26618C12.0469 4.57358 12.2695 4.73296 12.4086 4.8101C12.5345 4.87996 12.7003 4.94112 12.8548 4.99813L12.9637 5.03834L13.0039 5.1472C13.0609 5.30171 13.1221 5.46751 13.1919 5.59346C13.2691 5.73257 13.4285 5.95516 13.7359 5.99725C14.0331 6.03795 14.2466 5.87772 14.3602 5.77379C14.4674 5.67569 14.5813 5.53736 14.6909 5.40406L14.7828 5.29249L14.7934 5.29165L14.9209 5.2817C15.0892 5.26862 15.2663 5.25487 15.4078 5.22269C15.5634 5.18732 15.8079 5.10181 15.9444 4.84197C16.0836 4.57709 16.0098 4.32496 15.9449 4.1756C15.8873 4.04319 15.7933 3.89432 15.7058 3.75575L15.6411 3.65329L15.6769 3.52728C15.7235 3.36368 15.7723 3.19194 15.7914 3.0486C15.8115 2.89692 15.8211 2.62044 15.6014 2.40067ZM14.7018 3.30019L14.6239 3.32234L14.6033 3.32838C14.5279 3.35079 14.3708 3.39748 14.2071 3.37505C14.0395 3.35211 13.9008 3.26208 13.8365 3.22038L13.8193 3.20932L13.7184 3.14561L13.7074 3.28647L13.7058 3.308C13.7005 3.38728 13.6898 3.54725 13.6134 3.69257C13.5381 3.83596 13.4138 3.93608 13.351 3.98671L13.3337 4.0007L13.2429 4.07544L13.3204 4.10407L13.3395 4.11091C13.4112 4.13628 13.5694 4.19231 13.6895 4.3125C13.8097 4.43269 13.8658 4.59089 13.8911 4.66253L13.898 4.68162L13.9266 4.75911L14.0013 4.66832L14.0153 4.65108C14.066 4.58823 14.1661 4.46397 14.3095 4.3886C14.4548 4.31223 14.6148 4.30151 14.694 4.29619L14.7156 4.29468L14.8564 4.28368L14.7927 4.18269L14.7817 4.16552C14.74 4.10127 14.6499 3.96255 14.627 3.79498C14.6046 3.63122 14.6513 3.47412 14.6737 3.39873L14.6797 3.37813L14.7018 3.30019Z" fill="#1C274C"/>
<path d="M10.435 3.17064C10.6511 2.81724 10.5397 2.3556 10.1863 2.13956C9.8329 1.92351 9.37126 2.03486 9.15522 2.38827C8.63701 3.23593 8.76689 4.32824 9.46941 5.03076L9.56729 5.12864C9.76495 5.3263 9.83784 5.61668 9.75696 5.88426C9.63711 6.28076 9.86137 6.69934 10.2579 6.81919C10.6544 6.93904 11.0729 6.71478 11.1928 6.31829C11.4337 5.52141 11.2166 4.65663 10.6279 4.06798L10.5301 3.9701C10.3175 3.75756 10.2782 3.4271 10.435 3.17064Z" fill="#1C274C"/>
<path d="M7.68616 3.94105C7.47669 3.73159 7.13708 3.73159 6.92761 3.94105C6.71814 4.15052 6.71814 4.49014 6.92761 4.69961C7.13708 4.90908 7.47669 4.90908 7.68616 4.69961C7.89563 4.49014 7.89563 4.15052 7.68616 3.94105Z" fill="#1C274C"/>
<path d="M18.2774 5.60439C18.3587 5.19822 18.0953 4.8031 17.6891 4.72187C17.2829 4.64064 16.8878 4.90405 16.8066 5.31022L16.6626 6.03015C16.57 6.49314 16.2364 6.87101 15.7885 7.02032C14.8299 7.33984 14.116 8.14851 13.9179 9.13933L13.7739 9.85926C13.6926 10.2654 13.9561 10.6606 14.3622 10.7418C14.7684 10.823 15.1635 10.5596 15.2447 10.1534L15.3887 9.4335C15.4813 8.97052 15.8149 8.59265 16.2628 8.44334C17.2214 8.12381 17.9353 7.31514 18.1335 6.32433L18.2774 5.60439Z" fill="#1C274C"/>
<path fill-rule="evenodd" clip-rule="evenodd" d="M22.5235 8.84253C22.7793 9.39643 22.6067 10.0253 22.1395 10.4924C21.8687 10.7633 21.5056 10.886 21.1824 10.9435C20.8517 11.0023 20.5021 11.0034 20.1959 10.9838C19.8866 10.964 19.603 10.9218 19.398 10.8849C19.295 10.8664 19.2104 10.849 19.1509 10.8361L19.1045 10.8258L19.0807 10.8203L19.061 10.8156L19.0552 10.8142L19.0533 10.8138C19.0532 10.8138 19.0522 10.8135 19.1723 10.3281L19.0522 10.8135C18.8721 10.7689 18.7315 10.6281 18.6869 10.4481L18.6862 10.4453L18.6848 10.4395L18.6802 10.4198C18.6763 10.4031 18.6709 10.3794 18.6644 10.3496C18.6514 10.29 18.634 10.2055 18.6155 10.1024C18.5787 9.89743 18.5364 9.61385 18.5166 9.30461C18.497 8.99837 18.4982 8.6488 18.557 8.3181C18.6145 7.99483 18.7372 7.63182 19.0081 7.36094C19.4752 6.89381 20.104 6.72114 20.6579 6.97699C21.0781 7.17107 21.3514 7.56385 21.4543 8.04614C21.9366 8.14907 22.3294 8.42236 22.5235 8.84253ZM19.596 9.90447C19.774 9.93586 20.0094 9.96985 20.2597 9.98588C20.5231 10.0027 20.7851 9.99845 21.0073 9.95894C21.2369 9.9181 21.3682 9.84957 21.4324 9.78531C21.6752 9.54255 21.6566 9.35057 21.6156 9.26186C21.5711 9.16547 21.4115 8.99904 21.0017 9.00013C20.8686 9.00049 20.7409 8.94778 20.6468 8.85369C20.5527 8.75959 20.5 8.63187 20.5003 8.4988C20.5014 8.08899 20.335 7.92935 20.2386 7.88483C20.1499 7.84385 19.9579 7.82529 19.7152 8.06805C19.6509 8.1323 19.5824 8.26356 19.5415 8.49319C19.502 8.71539 19.4977 8.97734 19.5146 9.24073C19.5306 9.49108 19.5646 9.72644 19.596 9.90447Z" fill="#1C274C"/>
<path d="M20.3308 13.73C20.6262 13.468 21.0468 13.4016 21.4085 13.5598L21.7 13.6872C22.0795 13.8531 22.5217 13.68 22.6877 13.3005C22.8536 12.921 22.6805 12.4788 22.3009 12.3128L22.0094 12.1854C21.112 11.793 20.0684 11.9578 19.3356 12.6076C19.0094 12.8969 18.5347 12.945 18.1572 12.727L17.9443 12.6041C17.5856 12.397 17.1269 12.5199 16.9198 12.8786C16.7127 13.2373 16.8356 13.696 17.1943 13.9031L17.4072 14.026C18.3439 14.5668 19.5215 14.4476 20.3308 13.73Z" fill="#1C274C"/>
<path d="M19.0582 15.3136C19.2677 15.1042 19.6073 15.1042 19.8168 15.3136C20.0263 15.5231 20.0263 15.8627 19.8168 16.0722C19.6073 16.2817 19.2677 16.2817 19.0582 16.0722C18.8488 15.8627 18.8488 15.5231 19.0582 15.3136Z" fill="#1C274C"/>
<path d="M12.9157 7.15738C12.7062 6.94791 12.3666 6.94791 12.1571 7.15738C11.9476 7.36685 11.9476 7.70646 12.1571 7.91593C12.3666 8.1254 12.7062 8.1254 12.9157 7.91593C13.1251 7.70646 13.1251 7.36685 12.9157 7.15738Z" fill="#1C274C"/>
<path d="M17.1571 10.1574C17.3666 9.94791 17.7062 9.94791 17.9157 10.1574C18.1251 10.3668 18.1251 10.7065 17.9157 10.9159C17.7062 11.1254 17.3666 11.1254 17.1571 10.9159C16.9476 10.7065 16.9476 10.3668 17.1571 10.1574Z" fill="#1C274C"/>
<path fill-rule="evenodd" clip-rule="evenodd" d="M9.63883 6.88522C10.2252 7.31993 10.8997 7.99456 11.7184 8.81325L15.1861 12.2809C16.0048 13.0996 16.6794 13.7741 17.1141 14.3605C17.5632 14.9663 17.8797 15.6395 17.6967 16.4148C17.5137 17.1901 16.9295 17.6507 16.2569 17.9917C15.6059 18.3217 14.7007 18.6233 13.6024 18.9894L8.41216 20.7195C7.08228 21.1628 6.0031 21.5226 5.16628 21.6714C4.32188 21.8217 3.46502 21.8065 2.82892 21.1704C2.19282 20.5343 2.17766 19.6774 2.32788 18.833C2.47674 17.9962 2.83651 16.917 3.27986 15.587L5.0099 10.3969C5.37598 9.29852 5.67764 8.39346 6.00766 7.74242C6.34863 7.0698 6.80924 6.48566 7.58454 6.30263C8.35984 6.11961 9.03306 6.4361 9.63883 6.88522ZM8.74547 8.09017C8.72799 8.07721 8.71087 8.06471 8.69409 8.05267C8.68258 8.11493 8.67035 8.18186 8.65751 8.25311C8.57252 8.72472 8.46116 9.38422 8.35587 10.1346C8.14324 11.65 7.96341 13.4818 8.05547 14.8857C8.1112 15.7356 8.29321 16.835 8.46696 17.7421C8.55301 18.1913 8.63548 18.5855 8.69641 18.8672C8.70942 18.9274 8.72145 18.9824 8.73231 19.0317L11.367 18.1534C11.2977 17.9479 11.2147 17.6832 11.1319 17.3751C10.9329 16.6353 10.727 15.6178 10.727 14.5556C10.727 13.4404 10.932 12.4231 11.1328 11.691C11.2338 11.323 11.3351 11.0222 11.4122 10.811C11.4301 10.7618 11.4468 10.7174 11.4619 10.678L10.7021 9.91825C9.82789 9.04407 9.23158 8.45057 8.74547 8.09017ZM6.41309 10.9307C6.62205 10.3038 6.79587 9.78418 6.9542 9.35379C6.92625 9.53733 6.89814 9.72867 6.87042 9.92618C6.65529 11.4594 6.45603 13.4184 6.55868 14.9838C6.62079 15.931 6.81787 17.1061 6.99374 18.0243C7.08251 18.4877 7.16748 18.8938 7.2303 19.1843C7.25934 19.3185 7.2837 19.4283 7.30156 19.5078C6.26074 19.8515 5.49397 20.0896 4.90357 20.1946C4.1828 20.3228 3.98336 20.2035 3.88958 20.1097C3.7958 20.016 3.67647 19.8165 3.80469 19.0957C3.93194 18.3804 4.25462 17.4061 4.72359 15.9992L6.41309 10.9307ZM13.0686 17.5862L12.79 17.6791C12.7291 17.4985 12.6548 17.2621 12.5804 16.9855C12.5265 16.7853 12.4733 16.5665 12.4251 16.3345C12.3122 15.7906 12.227 15.1743 12.227 14.5556C12.227 13.6155 12.4012 12.7374 12.5794 12.0879C12.6012 12.0083 12.623 11.9325 12.6445 11.8607L14.0811 13.2972C14.9552 14.1714 15.5487 14.7677 15.9091 15.2538C16.263 15.7311 16.2677 15.9392 16.2368 16.0701C16.2059 16.2011 16.1086 16.3851 15.5787 16.6537C15.0389 16.9273 14.2414 17.1953 13.0686 17.5862Z" fill="#1C274C"/>
</svg>
