<svg width="24" height="24" viewBox="0 0 24 24" fill="none" xmlns="http://www.w3.org/2000/svg">
<path d="M10.9263 2.36021C11.2797 2.57626 11.3911 3.03789 11.175 3.3913C11.0183 3.64775 11.0576 3.97821 11.2701 4.19075L11.368 4.28863C11.9566 4.87729 12.1737 5.74206 11.9328 6.53894C11.813 6.93543 11.3944 7.1597 10.9979 7.03985C10.6014 6.91999 10.3771 6.50141 10.497 6.10492C10.5779 5.83734 10.505 5.54695 10.3073 5.34929L10.2094 5.25141C9.50692 4.54889 9.37704 3.45659 9.89525 2.60892C10.1113 2.25551 10.5729 2.14416 10.9263 2.36021Z" fill="#1C274C"/>
<path d="M17.6891 4.7217C18.0953 4.80294 18.3587 5.19806 18.2774 5.60423L18.1335 6.32416C17.9353 7.31498 17.2214 8.12364 16.2628 8.44317C15.8149 8.59248 15.4813 8.97035 15.3887 9.43333L15.2447 10.1533C15.1635 10.5594 14.7684 10.8229 14.3622 10.7416C13.9561 10.6604 13.6926 10.2653 13.7739 9.8591L13.9179 9.13916C14.116 8.14835 14.8299 7.33968 15.7885 7.02015C16.2364 6.87084 16.57 6.49297 16.6626 6.02999L16.8066 5.31005C16.8878 4.90388 17.2829 4.64047 17.6891 4.7217Z" fill="#1C274C"/>
<path fill-rule="evenodd" clip-rule="evenodd" d="M11.7184 8.81308C10.8997 7.99439 10.2252 7.31977 9.63883 6.88505C9.03306 6.43593 8.35984 6.11944 7.58454 6.30247C6.80924 6.48549 6.34863 7.06964 6.00766 7.74226C5.67764 8.39329 5.37598 9.29836 5.0099 10.3967L3.27986 15.5869C2.83651 16.9168 2.47674 17.996 2.32788 18.8329C2.17766 19.6773 2.19282 20.5341 2.82892 21.1702C3.46502 21.8063 4.32188 21.8215 5.16628 21.6713C6.0031 21.5224 7.08228 21.1627 8.41216 20.7193L13.6024 18.9893C14.7007 18.6232 15.6059 18.3215 16.2569 17.9915C16.9295 17.6505 17.5137 17.1899 17.6967 16.4146C17.8797 15.6393 17.5632 14.9661 17.1141 14.3603C16.6794 13.774 16.0048 13.0994 15.1861 12.2808L11.7184 8.81308ZM8.69409 8.05251C8.71087 8.06455 8.72799 8.07704 8.74547 8.09C9.23158 8.45041 9.82789 9.04391 10.7021 9.91808L11.4619 10.6779C11.4468 10.7172 11.4301 10.7616 11.4122 10.8108C11.3351 11.022 11.2338 11.3229 11.1328 11.6908C10.932 12.4229 10.727 13.4402 10.727 14.5555C10.727 15.6176 10.9329 16.6352 11.1319 17.375C11.2147 17.6831 11.2977 17.9477 11.367 18.1533L8.73231 19.0315C8.72145 18.9822 8.70942 18.9272 8.69641 18.867C8.63548 18.5853 8.55301 18.1911 8.46696 17.7419C8.29321 16.8349 8.1112 15.7354 8.05547 14.8855C7.96341 13.4817 8.14324 11.6498 8.35587 10.1344C8.46116 9.38405 8.57252 8.72455 8.65751 8.25294C8.67035 8.18169 8.68258 8.11477 8.69409 8.05251ZM6.9542 9.35363C6.79587 9.78402 6.62205 10.3037 6.41309 10.9306L4.72359 15.9991C4.25462 17.406 3.93194 18.3802 3.80469 19.0956C3.67647 19.8164 3.7958 20.0158 3.88958 20.1096C3.98336 20.2033 4.1828 20.3227 4.90357 20.1945C5.49397 20.0894 6.26074 19.8513 7.30156 19.5076C7.2837 19.4281 7.25934 19.3184 7.2303 19.1841C7.16748 18.8936 7.08251 18.4875 6.99374 18.0241C6.81787 17.1059 6.62079 15.9309 6.55868 14.9836C6.45603 13.4182 6.65529 11.4592 6.87042 9.92601C6.89814 9.72851 6.92625 9.53716 6.9542 9.35363ZM12.79 17.6789L13.0686 17.5861C14.2414 17.1951 15.0389 16.9272 15.5787 16.6536C16.1086 16.385 16.2059 16.2009 16.2368 16.07C16.2677 15.939 16.263 15.7309 15.9091 15.2537C15.5487 14.7676 14.9552 14.1713 14.0811 13.2971L12.6445 11.8605C12.623 11.9323 12.6012 12.0082 12.5794 12.0877C12.4012 12.7372 12.227 13.6154 12.227 14.5555C12.227 15.1741 12.3122 15.7905 12.4251 16.3343C12.4733 16.5663 12.5265 16.7852 12.5804 16.9853C12.6548 17.262 12.7291 17.4983 12.79 17.6789Z" fill="#1C274C"/>
<path d="M20.3304 12.73C20.6258 12.4681 21.0465 12.4016 21.4082 12.5598L21.6997 12.6872C22.0792 12.8532 22.5214 12.68 22.6873 12.3005C22.8533 11.921 22.6801 11.4788 22.3006 11.3129L22.0091 11.1854C21.1117 10.793 20.0681 10.9579 19.3352 11.6077C19.0091 11.8969 18.5344 11.945 18.1568 11.727L17.944 11.6041C17.5853 11.397 17.1266 11.5199 16.9195 11.8787C16.7124 12.2374 16.8353 12.6961 17.194 12.9032L17.4068 13.0261C18.3435 13.5669 19.5212 13.4476 20.3304 12.73Z" fill="#1C274C"/>
<path d="M13.9788 4.058C13.8626 4.09485 13.762 4.19537 13.561 4.39643C13.3599 4.59749 13.2594 4.69802 13.2225 4.81425C13.1914 4.91257 13.1914 5.01812 13.2225 5.11644C13.2594 5.23268 13.3599 5.3332 13.561 5.53426C13.762 5.73532 13.8626 5.83585 13.9788 5.87269C14.0771 5.90386 14.1827 5.90386 14.281 5.87269C14.3972 5.83585 14.4977 5.73532 14.6988 5.53426C14.8999 5.3332 15.0004 5.23268 15.0372 5.11644C15.0684 5.01812 15.0684 4.91257 15.0372 4.81425C15.0004 4.69802 14.8999 4.59749 14.6988 4.39643C14.4977 4.19537 14.3972 4.09485 14.281 4.058C14.1827 4.02683 14.0771 4.02683 13.9788 4.058Z" fill="#1C274C"/>
<path d="M19.4682 7.46833C19.7136 7.22294 19.8363 7.10025 19.9747 7.04692C20.1367 6.9845 20.3161 6.9845 20.4781 7.04692C20.6165 7.10025 20.7392 7.22294 20.9846 7.46833C21.23 7.71372 21.3527 7.83642 21.406 7.97483C21.4684 8.13681 21.4684 8.3162 21.406 8.47818C21.3527 8.61659 21.23 8.73929 20.9846 8.98468C20.7392 9.23007 20.6165 9.35277 20.4781 9.4061C20.3161 9.46851 20.1367 9.46851 19.9747 9.4061C19.8363 9.35277 19.7136 9.23007 19.4682 8.98468C19.2228 8.73929 19.1001 8.61659 19.0468 8.47818C18.9844 8.3162 18.9844 8.13681 19.0468 7.97483C19.1001 7.83642 19.2228 7.71372 19.4682 7.46833Z" fill="#1C274C"/>
<path d="M7.68592 3.9409C7.47645 3.73143 7.13683 3.73143 6.92737 3.9409C6.7179 4.15037 6.7179 4.48999 6.92737 4.69945C7.13683 4.90892 7.47645 4.90892 7.68592 4.69945C7.89539 4.48999 7.89539 4.15037 7.68592 3.9409Z" fill="#1C274C"/>
<path d="M19.0582 15.3135C19.2677 15.104 19.6073 15.104 19.8168 15.3135C20.0262 15.5229 20.0262 15.8625 19.8168 16.072C19.6073 16.2815 19.2677 16.2815 19.0582 16.072C18.8488 15.8625 18.8488 15.5229 19.0582 15.3135Z" fill="#1C274C"/>
<path d="M18.2586 9.74155C18.0491 9.53208 17.7095 9.53208 17.5 9.74155C17.2905 9.95102 17.2905 10.2906 17.5 10.5001C17.7095 10.7096 18.0491 10.7096 18.2586 10.5001C18.468 10.2906 18.468 9.95102 18.2586 9.74155Z" fill="#1C274C"/>
</svg>
