<svg width="24" height="24" viewBox="0 0 24 24" fill="none" xmlns="http://www.w3.org/2000/svg">
<path d="M9 17.2498C8.58579 17.2498 8.25 17.5856 8.25 17.9998C8.25 18.414 8.58579 18.7498 9 18.7498H15C15.4142 18.7498 15.75 18.414 15.75 17.9998C15.75 17.5856 15.4142 17.2498 15 17.2498H9Z" fill="#1C274C"/>
<path fill-rule="evenodd" clip-rule="evenodd" d="M11.9999 1.25C11.2749 1.25 10.6133 1.44911 9.88919 1.7871C9.18823 2.11428 8.37763 2.59716 7.36174 3.20233L5.90613 4.06943C4.78702 4.73606 3.89526 5.26727 3.22006 5.77524C2.52304 6.29963 1.9999 6.8396 1.65898 7.55072C1.31789 8.26219 1.22545 9.0068 1.2551 9.87584C1.2838 10.717 1.43096 11.7397 1.61547 13.0219L1.90783 15.0537C2.14522 16.7036 2.33359 18.0128 2.61503 19.0322C2.90514 20.0829 3.31676 20.9169 4.05956 21.5565C4.80174 22.1956 5.68975 22.4814 6.77625 22.6177C7.83145 22.75 9.16271 22.75 10.8422 22.75H13.1576C14.8371 22.75 16.1684 22.75 17.2236 22.6177C18.3101 22.4814 19.1981 22.1956 19.9403 21.5565C20.6831 20.9169 21.0947 20.0829 21.3848 19.0322C21.6662 18.0129 21.8546 16.7036 22.092 15.0537L22.3844 13.0219C22.5689 11.7396 22.716 10.717 22.7447 9.87584C22.7744 9.0068 22.6819 8.26219 22.3408 7.55072C21.9999 6.8396 21.4768 6.29963 20.7798 5.77524C20.1046 5.26727 19.2128 4.73606 18.0937 4.06943L16.6381 3.20233C15.6222 2.59716 14.8116 2.11428 14.1106 1.7871C13.3865 1.44911 12.725 1.25 11.9999 1.25ZM8.09549 4.51121C9.153 3.88126 9.89914 3.43781 10.5236 3.14633C11.1327 2.86203 11.5707 2.75 11.9999 2.75C12.4292 2.75 12.8671 2.86203 13.4762 3.14633C14.1007 3.43781 14.8468 3.88126 15.9043 4.51121L17.2892 5.33615C18.4535 6.02973 19.2751 6.52034 19.878 6.9739C20.4664 7.41662 20.7887 7.78294 20.9882 8.19917C21.1876 8.61505 21.2705 9.09337 21.2456 9.82469C21.22 10.5745 21.0855 11.5163 20.8935 12.8511L20.6147 14.7884C20.3682 16.5016 20.192 17.7162 19.9389 18.633C19.6915 19.5289 19.3938 20.0476 18.9615 20.4198C18.5286 20.7926 17.9675 21.0127 17.0369 21.1294C16.0859 21.2486 14.8487 21.25 13.106 21.25H10.8938C9.15115 21.25 7.91396 21.2486 6.9629 21.1294C6.03236 21.0127 5.4712 20.7926 5.03832 20.4198C4.60605 20.0476 4.30829 19.5289 4.06093 18.633C3.80781 17.7162 3.63161 16.5016 3.3851 14.7884L3.10634 12.851C2.91428 11.5163 2.77982 10.5745 2.75423 9.82469C2.72928 9.09337 2.8122 8.61505 3.01158 8.19917C3.21112 7.78294 3.53338 7.41662 4.12184 6.9739C4.72472 6.52034 5.54634 6.02973 6.71065 5.33615L8.09549 4.51121Z" fill="#1C274C"/>
</svg>
