<svg width="24" height="24" viewBox="0 0 24 24" fill="none" xmlns="http://www.w3.org/2000/svg">
<path fill-rule="evenodd" clip-rule="evenodd" d="M13.0223 4.41033C14.1296 3.70331 14.8905 3.21978 15.4771 2.95431C16.0631 2.68911 16.2661 2.74003 16.3705 2.79378C16.4687 2.84434 16.6217 2.96797 16.7289 3.58347C16.8369 4.20331 16.8605 5.08725 16.892 6.38174L16.908 7.03828L16.9108 7.15782V7.15783C16.9245 7.75951 16.9364 8.27628 17.1558 8.73614C17.3767 9.19909 17.7712 9.52774 18.225 9.90584L18.3151 9.98099L18.8096 10.3943C19.7855 11.2099 20.4473 11.7659 20.8555 12.2297C21.2549 12.6835 21.267 12.8883 21.2418 13.0212C21.2145 13.1655 21.1122 13.37 20.556 13.6851C19.9945 14.0032 19.1597 14.3308 17.9417 14.8059L17.3233 15.047L17.2159 15.0888L17.2159 15.0888C16.6427 15.3116 16.1646 15.4974 15.7978 15.856C15.4315 16.2142 15.2341 16.6883 14.9971 17.2578L14.9527 17.3645L14.6961 17.9789C14.1908 19.1888 13.8422 20.0186 13.5103 20.5742C13.1808 21.1258 12.9747 21.2213 12.8336 21.2443C12.7052 21.2653 12.5039 21.2503 12.0622 20.8367C11.6114 20.4145 11.0756 19.7351 10.2899 18.7336L9.89166 18.2262L9.81901 18.1334C9.45511 17.6681 9.13838 17.2631 8.68277 17.0286C8.22939 16.7953 7.71341 16.7695 7.11539 16.7397L6.99604 16.7337L6.34294 16.7001C5.05495 16.6338 4.17656 16.5866 3.56329 16.4618C2.95587 16.3382 2.83733 16.1824 2.78905 16.0812C2.73668 15.9715 2.69295 15.7629 2.97275 15.1814C3.25288 14.5991 3.75474 13.8479 4.48798 12.7552L4.86029 12.2004L4.92603 12.1026C5.27039 11.5908 5.55857 11.1625 5.65343 10.6614C5.74908 10.1562 5.63309 9.6582 5.49653 9.07193L5.4705 8.95994L5.32345 8.32479C5.03356 7.07259 4.83765 6.2174 4.78795 5.588C4.73919 4.97056 4.85007 4.77514 4.95985 4.6678C5.06861 4.56145 5.26353 4.45577 5.87499 4.52102C6.49931 4.58764 7.34455 4.80692 8.58355 5.13148L9.21185 5.29606L9.32328 5.32536C9.90242 5.47793 10.3969 5.60819 10.9045 5.52533C11.4074 5.44321 11.8425 5.16465 12.3603 4.83306L12.46 4.76929L13.0223 4.41033ZM17.0569 1.46006C16.326 1.08387 15.568 1.26669 14.8586 1.58774C14.1615 1.90321 13.3095 2.44724 12.2678 3.1124L11.6528 3.505C10.9804 3.93435 10.8209 4.01911 10.6628 4.04493C10.5095 4.06996 10.3444 4.04213 9.59195 3.84502L8.90172 3.66421L8.90172 3.66421C7.74018 3.35991 6.78463 3.10957 6.03415 3.02949C5.25753 2.94661 4.49767 3.02181 3.91116 3.5953C3.32566 4.1678 3.231 4.92605 3.2926 5.70609C3.35222 6.46095 3.57575 7.42638 3.84776 8.60117L4.00915 9.29826C4.18505 10.0581 4.20907 10.2268 4.17961 10.3824C4.14931 10.5425 4.05964 10.7016 3.61474 11.3645L3.20778 11.971C2.51766 12.9994 1.95352 13.84 1.62105 14.531C1.2827 15.2343 1.08201 15.9869 1.43528 16.7272C1.79265 17.4762 2.50803 17.7778 3.26423 17.9317C4.00146 18.0817 4.99409 18.1327 6.20127 18.1948L6.91899 18.2317C7.70465 18.2721 7.8676 18.2961 7.99634 18.3624C8.12269 18.4274 8.23221 18.5412 8.71157 19.1521L9.15023 19.7112L9.15027 19.7112C9.88532 20.6481 10.4916 21.4209 11.0369 21.9315C11.6013 22.4601 12.2578 22.8582 13.0753 22.7247C13.8803 22.5933 14.3951 22.018 14.798 21.3435C15.1919 20.6841 15.5808 19.7529 16.0564 18.614L16.0564 18.614L16.3368 17.9425C16.6428 17.21 16.7262 17.0462 16.8465 16.9285C16.9665 16.8111 17.1308 16.7321 17.8683 16.4445L18.4867 16.2033L18.5444 16.1808L18.5445 16.1808C19.6905 15.7339 20.6282 15.3682 21.2954 14.9902C21.9792 14.6028 22.5639 14.1014 22.7156 13.3002C22.8695 12.4875 22.4932 11.8201 21.9816 11.2388C21.4878 10.6777 20.7347 10.0483 19.8218 9.28536L19.277 8.83004C18.6821 8.33278 18.5714 8.21964 18.5096 8.09016C18.4462 7.95738 18.4268 7.79089 18.4075 7.00176L18.39 6.28086C18.3604 5.06675 18.3362 4.06949 18.2067 3.32607C18.0742 2.5652 17.794 1.83944 17.0569 1.46006ZM19.5303 18.47C19.2374 18.1771 18.7626 18.1771 18.4697 18.47C18.1768 18.7629 18.1768 19.2378 18.4697 19.5307L20.4697 21.5307C20.7626 21.8236 21.2374 21.8236 21.5303 21.5307C21.8232 21.2378 21.8232 20.7629 21.5303 20.47L19.5303 18.47Z" fill="#1C274C"/>
</svg>
