<svg width="24" height="24" viewBox="0 0 24 24" fill="none" xmlns="http://www.w3.org/2000/svg">
<path fill-rule="evenodd" clip-rule="evenodd" d="M9.29607 1.99055C9.88897 2.54342 10.3472 3.35765 10.5824 4.28886C10.8177 5.22079 10.8026 6.16203 10.5537 6.94271C10.3089 7.71042 9.79206 8.43492 8.95076 8.67411C8.09989 8.91602 7.29085 8.55666 6.70392 8.00935C6.11102 7.45648 5.65276 6.64225 5.4176 5.71104C5.18226 4.77911 5.19743 3.83787 5.44633 3.05719C5.69109 2.28948 6.20793 1.56498 7.04923 1.32579C7.9001 1.08388 8.70914 1.44324 9.29607 1.99055ZM8.27309 3.08759C7.91868 2.75712 7.63319 2.71921 7.45944 2.76861C7.27612 2.82073 7.03227 3.02095 6.87545 3.51283C6.72276 3.99174 6.69546 4.64495 6.87194 5.34378C7.0486 6.04332 7.37847 6.5874 7.7269 6.91231C8.08131 7.24278 8.3668 7.28069 8.54055 7.23129C8.72387 7.17917 8.96772 6.97895 9.12454 6.48707C9.27723 6.00816 9.30453 5.35496 9.12805 4.65613C8.95139 3.95658 8.62152 3.4125 8.27309 3.08759Z" fill="#1C274C"/>
<path fill-rule="evenodd" clip-rule="evenodd" d="M10.8509 9.43852C11.5969 9.1871 12.4031 9.1871 13.1491 9.43852C13.9775 9.7177 14.579 10.4109 15.1373 11.2964C15.6976 12.1853 16.3064 13.4248 17.0814 15.0026L17.9884 16.8491C18.1872 17.2538 18.346 17.5771 18.4603 17.8343C18.5725 18.0866 18.6694 18.3339 18.7104 18.5741C18.9857 20.1871 17.7927 21.7013 16.1473 21.7492C15.9028 21.7564 15.6417 21.7081 15.3763 21.6464C15.1054 21.5835 14.762 21.4894 14.3333 21.3719L14.3173 21.3676C13.8025 21.2264 13.578 21.1653 13.3559 21.1204C12.4607 20.9393 11.5393 20.9393 10.6441 21.1204C10.422 21.1653 10.1976 21.2264 9.68269 21.3676L9.66669 21.3719C9.23828 21.4893 8.89457 21.5835 8.6237 21.6464C8.35835 21.7081 8.09718 21.7564 7.85276 21.7492C6.20729 21.7013 5.01432 20.1871 5.28967 18.5741C5.33066 18.3339 5.42753 18.0866 5.53969 17.8343C5.65402 17.5771 5.81283 17.2538 6.01158 16.8492L6.9186 15.0026C7.69357 13.4248 8.30241 12.1853 8.86277 11.2964C9.42101 10.4109 10.0225 9.7177 10.8509 9.43852ZM12.6701 10.86C12.2348 10.7133 11.7652 10.7133 11.33 10.86C11.0171 10.9654 10.6516 11.2716 10.1317 12.0963C9.61896 12.9097 9.04449 14.0769 8.24384 15.7069L7.36508 17.4959C7.15755 17.9184 7.01159 18.2159 6.91035 18.4436C6.80557 18.6793 6.77579 18.7825 6.76828 18.8265C6.64122 19.5708 7.19233 20.2294 7.89643 20.2499C7.9352 20.251 8.03674 20.2428 8.28441 20.1853C8.5231 20.1299 8.83788 20.0438 9.28623 19.9209L9.31517 19.913C9.79319 19.7819 10.0688 19.7064 10.3466 19.6502C11.4382 19.4293 12.5619 19.4293 13.6534 19.6502C13.9313 19.7064 14.2068 19.7819 14.6849 19.913L14.7138 19.9209C15.1621 20.0438 15.4769 20.1299 15.7156 20.1853C15.9633 20.2428 16.0648 20.251 16.1036 20.2499C16.8077 20.2294 17.3588 19.5708 17.2318 18.8265C17.2242 18.7825 17.1945 18.6793 17.0897 18.4436C16.9884 18.2159 16.8425 17.9184 16.6349 17.4959L15.7562 15.7069C14.9555 14.0769 14.3811 12.9097 13.8683 12.0963C13.3484 11.2716 12.9829 10.9654 12.6701 10.86Z" fill="#1C274C"/>
<path fill-rule="evenodd" clip-rule="evenodd" d="M13.4176 4.28886C13.6528 3.35765 14.111 2.54342 14.7039 1.99055C15.2909 1.44324 16.0999 1.08388 16.9508 1.32579C17.7921 1.56498 18.3089 2.28948 18.5537 3.05719C18.8026 3.83787 18.8177 4.77911 18.5824 5.71104C18.3472 6.64225 17.889 7.45648 17.2961 8.00935C16.7091 8.55666 15.9001 8.91602 15.0492 8.67411C14.2079 8.43492 13.6911 7.71042 13.4463 6.94271C13.1974 6.16203 13.1823 5.22079 13.4176 4.28886ZM16.5406 2.76861C16.3668 2.71921 16.0813 2.75712 15.7269 3.08759C15.3785 3.4125 15.0486 3.95658 14.872 4.65613C14.6955 5.35496 14.7228 6.00816 14.8755 6.48707C15.0323 6.97895 15.2761 7.17917 15.4594 7.23129C15.6332 7.28069 15.9187 7.24278 16.2731 6.91231C16.6215 6.5874 16.9514 6.04332 17.1281 5.34378C17.3045 4.64495 17.2772 3.99174 17.1245 3.51283C16.9677 3.02095 16.7239 2.82073 16.5406 2.76861Z" fill="#1C274C"/>
<path fill-rule="evenodd" clip-rule="evenodd" d="M4.69539 9.20346C4.13171 8.81351 3.40257 8.60745 2.68533 8.86089C1.96397 9.11578 1.53274 9.73696 1.35471 10.3993C1.17645 11.0625 1.22648 11.8295 1.49905 12.5594C1.77173 13.2896 2.2377 13.9043 2.80461 14.2965C3.36829 14.6864 4.09743 14.8925 4.81467 14.639C5.53603 14.3841 5.96726 13.763 6.14529 13.1006C6.32355 12.4374 6.27352 11.6704 6.00095 10.9405C5.72827 10.2103 5.26229 9.59564 4.69539 9.20346ZM3.842 10.437C4.13038 10.6365 4.41841 10.9904 4.59573 11.4652C4.77316 11.9404 4.78393 12.3868 4.6967 12.7113C4.60924 13.0367 4.44869 13.1775 4.31493 13.2247C4.17705 13.2735 3.94962 13.2646 3.658 13.0629C3.36962 12.8634 3.08159 12.5095 2.90427 12.0347C2.72683 11.5596 2.71607 11.1132 2.8033 10.7887C2.89076 10.4633 3.05131 10.3225 3.18507 10.2752C3.32295 10.2265 3.55038 10.2353 3.842 10.437Z" fill="#1C274C"/>
<path fill-rule="evenodd" clip-rule="evenodd" d="M21.3147 8.86089C20.5974 8.60745 19.8683 8.81351 19.3046 9.20346C18.7377 9.59564 18.2717 10.2103 17.9991 10.9405C17.7265 11.6704 17.6764 12.4374 17.8547 13.1006C18.0327 13.763 18.464 14.3841 19.1853 14.639C19.9026 14.8925 20.6317 14.6864 21.1954 14.2965C21.7623 13.9043 22.2283 13.2896 22.5009 12.5594C22.7735 11.8295 22.8236 11.0625 22.6453 10.3993C22.4673 9.73696 22.036 9.11578 21.3147 8.86089ZM19.4043 11.4652C19.5816 10.9904 19.8696 10.6365 20.158 10.437C20.4496 10.2353 20.677 10.2265 20.8149 10.2752C20.9487 10.3225 21.1092 10.4633 21.1967 10.7887C21.2839 11.1132 21.2732 11.5596 21.0957 12.0347C20.9184 12.5095 20.6304 12.8634 20.342 13.0629C20.0504 13.2646 19.823 13.2735 19.6851 13.2247C19.5513 13.1775 19.3908 13.0367 19.3033 12.7113C19.2161 12.3868 19.2268 11.9404 19.4043 11.4652Z" fill="#1C274C"/>
</svg>
