<svg width="24" height="24" viewBox="0 0 24 24" fill="none" xmlns="http://www.w3.org/2000/svg">
<path d="M8.09547 4.51121C9.15298 3.88126 9.89912 3.43781 10.5236 3.14633C11.1327 2.86203 11.5706 2.75 11.9999 2.75C12.4291 2.75 12.8671 2.86203 13.4762 3.14633C14.1007 3.43781 14.8468 3.88126 15.9043 4.51121L17.2891 5.33615C18.4535 6.02972 19.2751 6.52034 19.878 6.9739C20.4664 7.41662 20.7887 7.78294 20.9882 8.19917C21.1876 8.61505 21.2705 9.09337 21.2456 9.82469C21.22 10.5745 21.0855 11.5163 20.8935 12.8511L20.6147 14.7884C20.3682 16.5016 20.192 17.7162 19.9389 18.633C19.6915 19.5289 19.3938 20.0476 18.9615 20.4198C18.5669 20.7596 18.0667 20.9717 17.2808 21.0951C16.4752 21.2215 15.4368 21.2455 13.9979 21.2493C13.5837 21.2503 13.2488 21.587 13.2499 22.0012C13.251 22.4154 13.5877 22.7503 14.0019 22.7492C15.4229 22.7455 16.5757 22.7241 17.5133 22.5769C18.4708 22.4267 19.266 22.1371 19.9402 21.5565C20.683 20.9169 21.0947 20.0829 21.3848 19.0322C21.6662 18.0129 21.8546 16.7036 22.092 15.0537L22.3843 13.0219C22.5688 11.7397 22.716 10.717 22.7447 9.87584C22.7744 9.0068 22.6819 8.26219 22.3408 7.55072C21.9999 6.8396 21.4768 6.29962 20.7797 5.77524C20.1045 5.26726 19.2128 4.73605 18.0937 4.06942L16.6381 3.20233C15.6222 2.59716 14.8116 2.11428 14.1106 1.7871C13.3865 1.44911 12.725 1.25 11.9999 1.25C11.2748 1.25 10.6133 1.44911 9.88917 1.7871C9.18821 2.11428 8.37761 2.59716 7.36172 3.20233L5.90613 4.06942C4.78701 4.73606 3.89524 5.26727 3.22004 5.77524C2.52303 6.29963 1.99988 6.8396 1.65896 7.55072C1.29677 8.30622 1.215 9.09916 1.2619 10.0374C1.28258 10.4511 1.63472 10.7697 2.04841 10.7491C2.46211 10.7284 2.78071 10.3763 2.76003 9.96256C2.7195 9.15172 2.80007 8.64031 3.01156 8.19917C3.2111 7.78294 3.53336 7.41662 4.12183 6.9739C4.7247 6.52034 5.54632 6.02973 6.71063 5.33615L8.09547 4.51121Z" fill="#1C274C"/>
<path d="M1.99999 12.2498C1.58578 12.2498 1.24999 12.5856 1.24999 12.9998C1.24999 13.414 1.58578 13.7498 1.99999 13.7498C6.55634 13.7498 10.25 17.4434 10.25 21.9998C10.25 22.414 10.5858 22.7498 11 22.7498C11.4142 22.7498 11.75 22.414 11.75 21.9998C11.75 16.615 7.38477 12.2498 1.99999 12.2498Z" fill="#1C274C"/>
<path d="M1.24999 15.9998C1.24999 15.5856 1.58578 15.2498 1.99999 15.2498C5.72791 15.2498 8.74999 18.2719 8.74999 21.9998C8.74999 22.414 8.41421 22.7498 7.99999 22.7498C7.58578 22.7498 7.24999 22.414 7.24999 21.9998C7.24999 19.1003 4.89949 16.7498 1.99999 16.7498C1.58578 16.7498 1.24999 16.414 1.24999 15.9998Z" fill="#1C274C"/>
<path d="M1.99999 18.2498C1.58578 18.2498 1.24999 18.5856 1.24999 18.9998C1.24999 19.414 1.58578 19.7498 1.99999 19.7498C3.24263 19.7498 4.24999 20.7571 4.24999 21.9998C4.24999 22.414 4.58578 22.7498 4.99999 22.7498C5.41421 22.7498 5.74999 22.414 5.74999 21.9998C5.74999 19.9287 4.07106 18.2498 1.99999 18.2498Z" fill="#1C274C"/>
</svg>
