<svg width="24" height="24" viewBox="0 0 24 24" fill="none" xmlns="http://www.w3.org/2000/svg">
<path d="M6.25001 2.2207C5.02727 2.41497 4.14851 2.7795 3.46447 3.46353C2.78044 4.14757 2.41591 5.02633 2.22165 6.24906H6.25001V2.2207Z" fill="#1C274C"/>
<path d="M2.06874 7.74906C2.01039 8.73023 2.00158 9.88288 2.00024 11.2491H6.25001V7.74906H2.06874Z" fill="#1C274C"/>
<path d="M2.00024 12.7491C2.00158 14.1152 2.01039 15.2679 2.06874 16.2491H6.25001V12.7491H2.00024Z" fill="#1C274C"/>
<path d="M2.22165 17.7491C2.41591 18.9718 2.78044 19.8506 3.46447 20.5346C4.14851 21.2186 5.02727 21.5832 6.25001 21.7774V17.7491H2.22165Z" fill="#1C274C"/>
<path d="M17.75 21.7774C18.9727 21.5832 19.8515 21.2186 20.5355 20.5346C21.2196 19.8506 21.5841 18.9718 21.7784 17.7491H17.75V21.7774Z" fill="#1C274C"/>
<path d="M21.9313 16.2491C21.9896 15.2679 21.9984 14.1152 21.9998 12.7491H17.75V16.2491H21.9313Z" fill="#1C274C"/>
<path d="M21.9998 11.2491C21.9984 9.88288 21.9896 8.73023 21.9313 7.74906H17.75V11.2491H21.9998Z" fill="#1C274C"/>
<path d="M21.7784 6.24906C21.5841 5.02633 21.2196 4.14757 20.5355 3.46353C19.8515 2.7795 18.9727 2.41497 17.75 2.2207V6.24906H21.7784Z" fill="#1C274C"/>
<g opacity="0.5">
<path d="M7.75 21.9313C8.9058 22 10.2996 22 12 22C13.7004 22 15.0942 22 16.25 21.9313V12.75H7.75V21.9313Z" fill="#1C274C"/>
<path d="M16.25 2.06874C15.0942 2 13.7004 2 12 2C10.2996 2 8.9058 2 7.75 2.06874V11.25H16.25V2.06874Z" fill="#1C274C"/>
</g>
</svg>
