<svg width="24" height="24" viewBox="0 0 24 24" fill="none" xmlns="http://www.w3.org/2000/svg">
<path d="M2.00299 11.7155C2.04033 9.87326 2.059 8.95215 2.67093 8.16363C2.78262 8.0197 2.9465 7.8487 3.08385 7.73274C3.83639 7.09741 4.82995 7.09741 6.81706 7.09741C7.527 7.09741 7.88197 7.09741 8.22035 7.00452C8.29067 6.98522 8.36024 6.96296 8.4289 6.93781C8.75936 6.81674 9.05574 6.60837 9.64851 6.19161C11.9872 4.54738 13.1565 3.72527 14.138 4.08241C14.3261 4.15088 14.5083 4.24972 14.671 4.37162C15.5194 5.00744 15.5839 6.48675 15.7128 9.44537C15.7606 10.5409 15.7931 11.4785 15.7931 12C15.7931 12.5215 15.7606 13.4591 15.7128 14.5546C15.5839 17.5132 15.5194 18.9926 14.671 19.6284C14.5083 19.7503 14.3261 19.8491 14.138 19.9176C13.1565 20.2747 11.9872 19.4526 9.64851 17.8084C9.05574 17.3916 8.75936 17.1833 8.4289 17.0622C8.36024 17.037 8.29067 17.0148 8.22035 16.9955C7.88197 16.9026 7.52701 16.9026 6.81706 16.9026C4.82995 16.9026 3.83639 16.9026 3.08385 16.2673C2.9465 16.1513 2.78262 15.9803 2.67093 15.8364C2.059 15.0478 2.04033 14.1267 2.00299 12.2845C2.00103 12.1878 2 12.0928 2 12C2 11.9072 2.00103 11.8122 2.00299 11.7155Z" fill="#1C274C"/>
<path opacity="0.4" fill-rule="evenodd" clip-rule="evenodd" d="M19.4896 5.55328C19.7822 5.29327 20.2171 5.33543 20.4609 5.64743L19.9311 6.11822C20.4609 5.64743 20.4609 5.64743 20.4609 5.64743L20.462 5.64878L20.4632 5.6503L20.4659 5.65384L20.4728 5.66293C20.478 5.66989 20.4845 5.67865 20.4922 5.68922C20.5075 5.71038 20.5276 5.73881 20.5516 5.77466C20.5996 5.84638 20.6636 5.94776 20.738 6.07998C20.8869 6.34454 21.0771 6.73201 21.2645 7.25147C21.6398 8.29216 22.0001 9.85245 22.0001 12.0013C22.0001 14.1502 21.6398 15.7105 21.2645 16.7512C21.0771 17.2706 20.8869 17.6581 20.738 17.9227C20.6636 18.0549 20.5996 18.1563 20.5516 18.228C20.5276 18.2638 20.5075 18.2923 20.4922 18.3134C20.4845 18.324 20.478 18.3328 20.4728 18.3397L20.4659 18.3488L20.4632 18.3523L20.462 18.3539C20.462 18.3539 20.4609 18.3552 19.9311 17.8844L20.4609 18.3552C20.2171 18.6672 19.7822 18.7094 19.4896 18.4494C19.1984 18.1906 19.1579 17.7301 19.3978 17.4181C19.3978 17.4181 19.3995 17.4159 19.401 17.4138C19.4059 17.4071 19.4155 17.3936 19.4292 17.3731C19.4566 17.3322 19.5004 17.2635 19.5553 17.166C19.665 16.9709 19.8196 16.6597 19.9771 16.2232C20.2914 15.3519 20.6208 13.9706 20.6208 12.0013C20.6208 10.032 20.2914 8.65076 19.9771 7.77944C19.8196 7.3429 19.665 7.03175 19.5553 6.83669C19.5004 6.7391 19.4566 6.67043 19.4292 6.62953C19.4155 6.60908 19.4059 6.59558 19.401 6.58887C19.3995 6.5867 19.3978 6.58449 19.3978 6.58449" fill="#1C274C"/>
<path opacity="0.7" fill-rule="evenodd" clip-rule="evenodd" d="M17.7572 8.4169C18.0902 8.21966 18.51 8.34757 18.695 8.7026L18.0921 9.05974C18.695 8.7026 18.695 8.7026 18.695 8.7026L18.6957 8.70389L18.6964 8.70526L18.6979 8.70825L18.7014 8.71522L18.7103 8.73322C18.717 8.74701 18.7251 8.76442 18.7345 8.78551C18.7534 8.8277 18.7772 8.88457 18.8043 8.95668C18.8584 9.10098 18.9252 9.30585 18.9901 9.57571C19.12 10.1159 19.2415 10.9128 19.2415 12.0013C19.2415 13.0898 19.12 13.8867 18.9901 14.4269C18.9252 14.6967 18.8584 14.9016 18.8043 15.0459C18.7772 15.118 18.7534 15.1749 18.7345 15.2171C18.7251 15.2382 18.717 15.2556 18.7103 15.2694L18.7014 15.2874L18.6979 15.2943L18.6964 15.2973L18.6957 15.2987C18.6957 15.2987 18.695 15.3 18.0921 14.9428L18.695 15.3C18.51 15.655 18.0902 15.7829 17.7572 15.5857C17.4271 15.3901 17.3063 14.9483 17.4846 14.5948L17.4892 14.5847C17.4955 14.5706 17.5076 14.5425 17.5236 14.4997C17.5557 14.4142 17.6039 14.2697 17.654 14.0616C17.754 13.6458 17.8622 12.9719 17.8622 12.0013C17.8622 11.0307 17.754 10.3568 17.654 9.94101C17.6039 9.73287 17.5557 9.58843 17.5236 9.50292C17.5076 9.46012 17.4955 9.43196 17.4892 9.41785L17.4846 9.40781C17.3063 9.05426 17.4271 8.61246 17.7572 8.4169Z" fill="#1C274C"/>
</svg>
