<svg width="24" height="24" viewBox="0 0 24 24" fill="none" xmlns="http://www.w3.org/2000/svg">
<path d="M8.9126 15.9336C10.1709 16.249 11.5985 16.2492 13.0351 15.8642C14.4717 15.4793 15.7079 14.7653 16.64 13.863" stroke="#1C274C" stroke-width="1.5" stroke-linecap="round"/>
<ellipse cx="14.5094" cy="9.77405" rx="1" ry="1.5" transform="rotate(-15 14.5094 9.77405)" fill="#1C274C"/>
<ellipse cx="8.71402" cy="11.3268" rx="1" ry="1.5" transform="rotate(-15 8.71402 11.3268)" fill="#1C274C"/>
<path d="M13 16.0004L13.478 16.9742C13.8393 17.7104 14.7249 18.0198 15.4661 17.6689C16.2223 17.311 16.5394 16.4035 16.1708 15.6524L15.7115 14.7168" stroke="#1C274C" stroke-width="1.5"/>
<path d="M4.92847 4.9276C6.12901 3.72506 7.65248 2.81269 9.41185 2.34127C14.7465 0.911852 20.2299 4.07768 21.6593 9.41234C23.0887 14.747 19.9229 20.2304 14.5882 21.6598C9.25357 23.0892 3.7702 19.9234 2.34078 14.5887C1.86936 12.8293 1.89775 11.0538 2.33892 9.41284" stroke="#1C274C" stroke-width="1.5" stroke-linecap="round"/>
</svg>
