<svg width="24" height="24" viewBox="0 0 24 24" fill="none" xmlns="http://www.w3.org/2000/svg">
<path opacity="0.5" d="M20.9129 5.88917C21.25 6.39362 21.25 7.09585 21.25 8.50031V21.2503H21.75C22.1642 21.2503 22.5 21.5861 22.5 22.0003C22.5 22.4145 22.1642 22.7503 21.75 22.7503H1.75C1.33579 22.7503 1 22.4145 1 22.0003C1 21.5861 1.33579 21.2503 1.75 21.2503H2.25V8.50031C2.25 7.09585 2.25 6.39362 2.58706 5.88917C2.73298 5.67079 2.92048 5.48329 3.13886 5.33737C3.58008 5.04256 5.67561 5.00561 6.75702 5.00098C6.75291 5.29237 6.75294 5.59686 6.75298 5.91082L6.75299 6.00031V7.25031H4.25C3.83579 7.25031 3.5 7.5861 3.5 8.00031C3.5 8.41453 3.83579 8.75031 4.25 8.75031H6.75299V10.2503H4.25C3.83579 10.2503 3.5 10.5861 3.5 11.0003C3.5 11.4145 3.83579 11.7503 4.25 11.7503H6.75299V13.2503H4.25C3.83579 13.2503 3.5 13.5861 3.5 14.0003C3.5 14.4145 3.83579 14.7503 4.25 14.7503H6.75299V21.2503H16.7529V14.7503H19.25C19.6642 14.7503 20 14.4145 20 14.0003C20 13.5861 19.6642 13.2503 19.25 13.2503H16.7529V11.7503H19.25C19.6642 11.7503 20 11.4145 20 11.0003C20 10.5861 19.6642 10.2503 19.25 10.2503H16.7529V8.75031H19.25C19.6642 8.75031 20 8.41453 20 8.00031C20 7.5861 19.6642 7.25031 19.25 7.25031H16.7529V6.00031L16.7529 5.91083V5.91079C16.753 5.59685 16.753 5.29236 16.7489 5.00098C17.8303 5.00561 19.9199 5.04256 20.3611 5.33737C20.5795 5.48329 20.767 5.67079 20.9129 5.88917Z" fill="#1C274C"/>
<path fill-rule="evenodd" clip-rule="evenodd" d="M10.75 2H12.75C14.6356 2 15.5784 2 16.1642 2.58579C16.75 3.17157 16.75 4.11438 16.75 6V21.25H18.25H21.25H21.75C22.1642 21.25 22.5 21.5858 22.5 22C22.5 22.4142 22.1642 22.75 21.75 22.75H1.75C1.33579 22.75 1 22.4142 1 22C1 21.5858 1.33579 21.25 1.75 21.25H2.25H5.25H6.75V6C6.75 4.11438 6.75 3.17157 7.33579 2.58579C7.92157 2 8.86438 2 10.75 2ZM11.75 18.25C12.1642 18.25 12.5 18.5858 12.5 19V21.25H11V19C11 18.5858 11.3358 18.25 11.75 18.25ZM9.75 14C9.33579 14 9 14.3358 9 14.75C9 15.1642 9.33579 15.5 9.75 15.5H13.75C14.1642 15.5 14.5 15.1642 14.5 14.75C14.5 14.3358 14.1642 14 13.75 14H9.75ZM9 11.75C9 11.3358 9.33579 11 9.75 11H13.75C14.1642 11 14.5 11.3358 14.5 11.75C14.5 12.1642 14.1642 12.5 13.75 12.5H9.75C9.33579 12.5 9 12.1642 9 11.75ZM9.75 8.5C9.33579 8.5 9 8.83579 9 9.25C9 9.66421 9.33579 10 9.75 10H13.75C14.1642 10 14.5 9.66421 14.5 9.25C14.5 8.83579 14.1642 8.5 13.75 8.5H9.75ZM9 6.25C9 5.83579 9.33579 5.5 9.75 5.5H13.75C14.1642 5.5 14.5 5.83579 14.5 6.25C14.5 6.66421 14.1642 7 13.75 7H9.75C9.33579 7 9 6.66421 9 6.25Z" fill="#1C274C"/>
</svg>
