<svg width="24" height="24" viewBox="0 0 24 24" fill="none" xmlns="http://www.w3.org/2000/svg">
<path fill-rule="evenodd" clip-rule="evenodd" d="M13.4616 4.04658C14.665 4.86901 15.8622 5.85918 17.0014 6.99832C18.1405 8.13749 19.1307 9.3347 19.9531 10.5382C20.6542 9.16072 21.0756 7.8564 21.2062 6.72484C21.3709 5.29776 21.0676 4.24334 20.412 3.58772C19.7564 2.9321 18.702 2.62887 17.2749 2.79353C16.1433 2.92409 14.839 3.34552 13.4616 4.04658ZM20.8685 11.9999C21.8739 10.2347 22.514 8.47649 22.6963 6.89677C22.8913 5.20639 22.5675 3.6219 21.4727 2.52706C20.3778 1.43222 18.7933 1.10838 17.103 1.30341C15.5233 1.48568 13.765 2.12579 11.9999 3.13117C10.2348 2.12585 8.47661 1.48578 6.89694 1.30354C5.20662 1.10853 3.62218 1.43238 2.52736 2.5272C1.43253 3.62203 1.10869 5.20649 1.30371 6.89684C1.48597 8.47654 2.12605 10.2347 3.13141 11.9999C2.12613 13.765 1.48611 15.5231 1.30389 17.1027C1.10891 18.793 1.43276 20.3774 2.52756 21.4722C3.62235 22.567 5.20676 22.8909 6.89705 22.6959C8.47668 22.5137 10.2348 21.8736 11.9999 20.8684C13.765 21.8737 15.5232 22.5138 17.1029 22.696C18.7932 22.891 20.3777 22.5672 21.4725 21.4724C22.5673 20.3775 22.8911 18.7931 22.6961 17.1028C22.5139 15.5231 21.8738 13.765 20.8685 11.9999ZM19.1193 11.9999C18.2824 10.6747 17.2141 9.33237 15.9407 8.05898C14.6673 6.78562 13.325 5.71736 11.9999 4.88044C10.6749 5.71734 9.33262 6.78555 8.05933 8.05884C6.7859 9.33228 5.7176 10.6747 4.88066 11.9999C5.71757 13.3249 6.78581 14.6672 8.05913 15.9406C9.33249 17.2139 10.6748 18.2822 11.9999 19.1191C13.3251 18.2822 14.6675 17.2139 15.9409 15.9404C17.2142 14.6671 18.2824 13.3249 19.1193 11.9999ZM13.4616 19.953C14.6651 19.1305 15.8624 18.1403 17.0016 17.0011C18.1406 15.862 19.1307 14.6649 19.9531 13.4616C20.6541 14.839 21.0755 16.1432 21.206 17.2747C21.3706 18.7017 21.0674 19.7561 20.4118 20.4117C19.7562 21.0673 18.7018 21.3705 17.2748 21.2059C16.1433 21.0754 14.839 20.654 13.4616 19.953ZM10.5381 19.9529C9.33474 19.1305 8.13759 18.1404 6.99847 17.0012C5.85938 15.8621 4.86924 14.665 4.04684 13.4616C3.34589 14.839 2.92453 16.1432 2.79401 17.2746C2.6294 18.7016 2.93263 19.756 3.58822 20.4116C4.24381 21.0672 5.29816 21.3704 6.72515 21.2058C7.85662 21.0752 9.16082 20.6539 10.5381 19.9529ZM4.04681 10.5381C4.86926 9.33463 5.85948 8.13738 6.99867 6.99819C8.13773 5.85912 9.33483 4.869 10.5382 4.0466C9.1608 3.34559 7.85655 2.9242 6.72503 2.79366C5.298 2.62903 4.24362 2.93226 3.58802 3.58786C2.93241 4.24347 2.62918 5.29787 2.79383 6.72493C2.92438 7.85646 3.34578 9.16073 4.04681 10.5381ZM12 10.2497C11.0335 10.2497 10.25 11.0332 10.25 11.9997C10.25 12.9662 11.0335 13.7497 12 13.7497C12.9665 13.7497 13.75 12.9662 13.75 11.9997C13.75 11.0332 12.9665 10.2497 12 10.2497ZM8.75001 11.9997C8.75001 10.2048 10.2051 8.74971 12 8.74971C13.7949 8.74971 15.25 10.2048 15.25 11.9997C15.25 13.7946 13.7949 15.2497 12 15.2497C10.2051 15.2497 8.75001 13.7946 8.75001 11.9997Z" fill="#1C274C"/>
</svg>
