<svg width="24" height="24" viewBox="0 0 24 24" fill="none" xmlns="http://www.w3.org/2000/svg">
<path d="M6.07821 13.4174C6.37128 13.1247 6.37157 12.6498 6.07886 12.3567C5.78614 12.0636 5.31127 12.0634 5.0182 12.3561L6.07821 13.4174ZM3.85646 14.5764L3.32646 14.0457V14.0457L3.85646 14.5764ZM2.31852 13.0403L1.78851 12.5097L1.78851 12.5097L2.31852 13.0403ZM3.00232 13.4174C3.29539 13.1247 3.29568 12.6498 3.00297 12.3567C2.71025 12.0636 2.23538 12.0634 1.94231 12.3561L3.00232 13.4174ZM11.6057 18.987C11.8988 18.6943 11.8991 18.2194 11.6063 17.9263C11.3136 17.6332 10.8388 17.633 10.5457 17.9257L11.6057 18.987ZM9.38395 20.146L9.91396 20.6767L9.38395 20.146ZM10.9219 21.6821L11.4519 22.2127V22.2127L10.9219 21.6821ZM11.6057 22.0591C11.8988 21.7664 11.8991 21.2915 11.6063 20.9985C11.3136 20.7054 10.8388 20.7051 10.5457 20.9978L11.6057 22.0591ZM10.6328 17.186C10.9257 16.8931 10.9257 16.4182 10.6328 16.1253C10.3399 15.8324 9.86499 15.8324 9.5721 16.1253L10.6328 17.186ZM7.46967 18.2277C7.17678 18.5206 7.17678 18.9955 7.46967 19.2884C7.76256 19.5813 8.23744 19.5813 8.53033 19.2884L7.46967 18.2277ZM7.85705 14.4136C8.14994 14.1207 8.14994 13.6459 7.85705 13.353C7.56415 13.0601 7.08928 13.0601 6.79639 13.353L7.85705 14.4136ZM4.67948 15.4699C4.38659 15.7628 4.38659 16.2376 4.67948 16.5305C4.97238 16.8234 5.44725 16.8234 5.74014 16.5305L4.67948 15.4699ZM7.46042 17.5818C7.75656 17.2921 7.76184 16.8173 7.47223 16.5212C7.18261 16.225 6.70777 16.2197 6.41163 16.5094L7.46042 17.5818ZM4.70206 18.1813C4.40592 18.4709 4.40064 18.9458 4.69026 19.2419C4.97987 19.538 5.45472 19.5433 5.75085 19.2537L4.70206 18.1813ZM5.0182 12.3561L3.32646 14.0457L4.38647 15.1071L6.07821 13.4174L5.0182 12.3561ZM2.84853 13.571L3.00232 13.4174L1.94231 12.3561L1.78851 12.5097L2.84853 13.571ZM2.84853 14.0457C2.71716 13.9145 2.71716 13.7022 2.84853 13.571L1.78851 12.5097C1.0705 13.2268 1.0705 14.3899 1.78851 15.1071L2.84853 14.0457ZM3.32646 14.0457C3.19458 14.1775 2.9804 14.1775 2.84853 14.0457L1.78851 15.1071C2.50602 15.8237 3.66896 15.8237 4.38647 15.1071L3.32646 14.0457ZM10.5457 17.9257L8.85394 19.6154L9.91396 20.6767L11.6057 18.987L10.5457 17.9257ZM11.4519 22.2127L11.6057 22.0591L10.5457 20.9978L10.3919 21.1514L11.4519 22.2127ZM8.85394 22.2127C9.57145 22.9294 10.7344 22.9294 11.4519 22.2127L10.3919 21.1514C10.26 21.2831 10.0458 21.2831 9.91396 21.1514L8.85394 22.2127ZM8.85394 19.6154C8.13593 20.3325 8.13593 21.4956 8.85394 22.2127L9.91396 21.1514C9.78259 21.0202 9.78259 20.8079 9.91396 20.6767L8.85394 19.6154ZM9.5721 16.1253L7.46967 18.2277L8.53033 19.2884L10.6328 17.186L9.5721 16.1253ZM6.79639 13.353L4.67948 15.4699L5.74014 16.5305L7.85705 14.4136L6.79639 13.353ZM6.41163 16.5094L4.70206 18.1813L5.75085 19.2537L7.46042 17.5818L6.41163 16.5094Z" fill="#1C274C"/>
<path d="M9.74292 13.0566L10.2725 12.5254L9.74292 13.0566ZM9.74292 8.40116L9.21339 7.87003H9.21339L9.74292 8.40116ZM15.5797 14.2204L16.1092 14.7515V14.7515L15.5797 14.2204ZM10.9103 14.2204L10.3807 14.7515L10.9103 14.2204ZM20.5495 9.26548L20.02 8.73435L20.5495 9.26548ZM15.9551 1.49472C15.5723 1.65283 15.3901 2.09136 15.5482 2.47421C15.7063 2.85706 16.1448 3.03925 16.5277 2.88115L15.9551 1.49472ZM9.79706 13.1073C9.50373 13.3998 9.50302 13.8747 9.79547 14.168C10.0879 14.4613 10.5628 14.4621 10.8561 14.1696L9.79706 13.1073ZM12.6072 12.4238C12.9005 12.1314 12.9012 11.6565 12.6087 11.3632C12.3163 11.0698 11.8414 11.0691 11.5481 11.3616L12.6072 12.4238ZM13.6861 15.786L13.9453 16.4897L13.6861 15.786ZM8.18721 10.2514L7.49137 9.97154L8.18721 10.2514ZM14.4546 4.76267C14.748 4.47021 14.7487 3.99534 14.4562 3.70201C14.1638 3.40868 13.6889 3.40796 13.3956 3.70041L14.4546 4.76267ZM20.02 8.73435L15.0501 13.6893L16.1092 14.7515L21.079 9.79661L20.02 8.73435ZM11.4398 13.6893L10.2725 12.5254L9.21339 13.5877L10.3807 14.7515L11.4398 13.6893ZM18.2148 2.75H18.6983V1.25H18.2148V2.75ZM21.2501 5.29186V5.77394H22.7501V5.29186H21.2501ZM18.6983 2.75C19.4977 2.75 20.022 2.75158 20.4101 2.80361C20.7769 2.85278 20.9079 2.93434 20.987 3.01321L22.0461 1.95096C21.6417 1.54774 21.1417 1.38826 20.6094 1.31691C20.0985 1.24842 19.4554 1.25 18.6983 1.25V2.75ZM22.7501 5.29186C22.7501 4.53722 22.7517 3.89558 22.6829 3.38559C22.6112 2.85381 22.4508 2.35448 22.0461 1.95096L20.987 3.01321C21.0658 3.09176 21.1472 3.22143 21.1964 3.58606C21.2485 3.9725 21.2501 4.49469 21.2501 5.29186H22.7501ZM10.2725 12.5254C9.70713 11.9618 9.33773 11.5913 9.10037 11.2811C8.87618 10.9881 8.84204 10.8391 8.84204 10.7289H7.34204C7.34204 11.3004 7.58305 11.7666 7.90915 12.1927C8.22209 12.6016 8.67813 13.054 9.21339 13.5877L10.2725 12.5254ZM10.3807 14.7515C10.916 15.2852 11.3698 15.7398 11.7798 16.0518C12.2073 16.3769 12.6738 16.6163 13.245 16.6163V15.1163C13.1323 15.1163 12.9818 15.0814 12.688 14.8579C12.3768 14.6212 12.0051 14.2529 11.4398 13.6893L10.3807 14.7515ZM21.079 9.79661C21.7513 9.12636 22.2451 8.65287 22.5042 8.02914L21.119 7.45364C21.0011 7.73733 20.7792 7.97743 20.02 8.73435L21.079 9.79661ZM21.2501 5.77394C21.2501 6.84444 21.2367 7.1702 21.119 7.45364L22.5042 8.02914C22.7634 7.40516 22.7501 6.72176 22.7501 5.77394H21.2501ZM18.2148 1.25C17.2636 1.25 16.5797 1.23679 15.9551 1.49472L16.5277 2.88115C16.8133 2.76321 17.1415 2.75 18.2148 2.75V1.25ZM10.8561 14.1696L12.6072 12.4238L11.5481 11.3616L9.79706 13.1073L10.8561 14.1696ZM15.0501 13.6893C14.6145 14.1236 14.2907 14.4459 14.0134 14.6853C13.7349 14.9258 13.557 15.0343 13.4268 15.0822L13.9453 16.4897C14.3279 16.3488 14.6681 16.1019 14.9938 15.8205C15.3208 15.5381 15.6875 15.172 16.1092 14.7515L15.0501 13.6893ZM13.4268 15.0822C13.3601 15.1068 13.3031 15.1163 13.245 15.1163V16.6163C13.489 16.6163 13.7212 16.5723 13.9453 16.4897L13.4268 15.0822ZM9.21339 7.87003C8.8017 8.28048 8.44233 8.63824 8.16266 8.9574C7.88434 9.27503 7.63891 9.60463 7.49137 9.97154L8.88306 10.5312C8.93632 10.3987 9.05058 10.2201 9.29083 9.94596C9.52973 9.67332 9.84781 9.35566 10.2725 8.93229L9.21339 7.87003ZM7.49137 9.97154C7.39467 10.212 7.34204 10.4628 7.34204 10.7289H8.84204C8.84204 10.6676 8.85286 10.6063 8.88306 10.5312L7.49137 9.97154ZM10.2725 8.93229L14.4546 4.76267L13.3956 3.70041L9.21339 7.87003L10.2725 8.93229Z" fill="#1C274C"/>
<path d="M8.03732 10.1018L8.56765 9.57148L8.56686 9.57068L8.03732 10.1018ZM11.6708 6.70352C12.0191 6.92769 12.4831 6.82707 12.7073 6.47876C12.9315 6.13045 12.8309 5.66636 12.4826 5.44219L11.6708 6.70352ZM11.5418 5.72863L11.9477 5.09796L11.9477 5.09796L11.5418 5.72863ZM9.35765 4.60789L9.46729 3.86595L9.35765 4.60789ZM5.19137 7.12001L5.7209 7.65114V7.65114L5.19137 7.12001ZM7.8385 4.80203L8.12592 5.49477L7.8385 4.80203ZM5.73367 8.31238L5.45738 9.00964L5.45738 9.00964L5.73367 8.31238ZM5.5527 9.04774C5.93568 9.20553 6.37406 9.02298 6.53185 8.64C6.68964 8.25702 6.50709 7.81863 6.12411 7.66084L5.5527 9.04774ZM5.41182 8.18485L5.68811 7.4876L5.6881 7.4876L5.41182 8.18485ZM7.6568 10.7819C7.94969 11.0748 8.42456 11.0748 8.71746 10.7819C9.01035 10.489 9.01035 10.0142 8.71746 9.72128L7.6568 10.7819ZM8.15854 9.1636C7.86521 8.87114 7.39034 8.87186 7.09789 9.16519C6.80543 9.45852 6.80615 9.93339 7.09948 10.2258L8.15854 9.1636ZM12.4826 5.44219L11.9477 5.09796L11.1359 6.35929L11.6708 6.70352L12.4826 5.44219ZM11.9477 5.09796C11.421 4.75893 10.9904 4.48119 10.6187 4.28092C10.2377 4.07557 9.87347 3.92597 9.46729 3.86595L9.248 5.34983C9.41668 5.37476 9.60814 5.44027 9.9072 5.60142C10.2157 5.76764 10.5898 6.0078 11.1359 6.35929L11.9477 5.09796ZM5.7209 7.65114C6.19994 7.17354 6.71143 6.6638 7.17057 6.24495C7.39993 6.03572 7.60728 5.85743 7.78387 5.72132C7.97207 5.57626 8.08295 5.5126 8.12592 5.49477L7.55107 4.10929C7.31817 4.20593 7.07924 4.37058 6.86816 4.53327C6.64547 4.70491 6.40406 4.91382 6.15964 5.13679C5.6712 5.58237 5.13501 6.11714 4.66185 6.58887L5.7209 7.65114ZM9.46729 3.86595C8.82208 3.77059 8.15942 3.85688 7.55107 4.10929L8.12592 5.49477C8.49073 5.34341 8.87932 5.29534 9.248 5.34983L9.46729 3.86595ZM5.13554 8.88211L5.45738 9.00964L6.00995 7.61513L5.68811 7.4876L5.13554 8.88211ZM5.45738 9.00964C5.51174 9.03118 5.53257 9.03945 5.5527 9.04774L6.12411 7.66084C6.09245 7.6478 6.06072 7.63524 6.00995 7.61513L5.45738 9.00964ZM4.66185 6.58887C3.9466 7.30195 4.19893 8.51098 5.13554 8.88211L5.6881 7.4876C5.75268 7.51318 5.77259 7.5996 5.7209 7.65114L4.66185 6.58887ZM7.50699 10.6321L7.6568 10.7819L8.71746 9.72128L8.56765 9.57148L7.50699 10.6321ZM7.09948 10.2258L7.50779 10.6329L8.56686 9.57068L8.15854 9.1636L7.09948 10.2258Z" fill="#1C274C"/>
<path d="M13.9246 16.026L13.3942 16.5563C13.4058 16.5679 13.4178 16.5791 13.4301 16.5899L13.9246 16.026ZM18.5443 11.4869C18.3191 11.1392 17.8548 11.0398 17.5071 11.265C17.1594 11.4901 17.06 11.9545 17.2852 12.3022L18.5443 11.4869ZM18.26 12.4278L17.6304 12.8354L17.6304 12.8354L18.26 12.4278ZM19.3841 14.6054L20.1259 14.4951L19.3841 14.6054ZM16.8644 18.7592L16.3349 18.228L16.3349 18.228L16.8644 18.7592ZM19.1894 16.12L18.4972 15.8311L19.1894 16.12ZM16.5329 18.3617C16.3796 17.9769 15.9433 17.7894 15.5585 17.9427C15.1738 18.0961 14.9862 18.5324 15.1396 18.9171L16.5329 18.3617ZM13.8746 16.9796C14.186 17.2526 14.6599 17.2215 14.933 16.9101C15.206 16.5986 15.1749 16.1248 14.8635 15.8517L13.8746 16.9796ZM16.793 18.8304L17.3225 19.3615L17.3225 19.3615L16.793 18.8304ZM14.2159 15.2566C13.923 14.9637 13.4481 14.9637 13.1552 15.2566C12.8623 15.5495 12.8623 16.0244 13.1552 16.3173L14.2159 15.2566ZM17.2852 12.3022L17.6304 12.8354L18.8895 12.0201L18.5443 11.4869L17.2852 12.3022ZM16.3349 18.228L16.2634 18.2993L17.3225 19.3615L17.394 19.2903L16.3349 18.228ZM17.6304 12.8354C17.983 13.3799 18.2238 13.7528 18.3905 14.0602C18.552 14.3582 18.6174 14.5485 18.6423 14.7157L20.1259 14.4951C20.0656 14.0891 19.9152 13.7254 19.7092 13.3453C19.5082 12.9746 19.2296 12.5453 18.8895 12.0201L17.6304 12.8354ZM17.394 19.2903C17.8671 18.8185 18.4035 18.284 18.8504 17.797C19.0741 17.5533 19.2836 17.3126 19.4558 17.0905C19.619 16.8801 19.7843 16.6416 19.8815 16.4089L18.4972 15.8311C18.4796 15.8734 18.416 15.9837 18.2704 16.1713C18.1339 16.3474 17.9552 16.5541 17.7453 16.7827C17.3252 17.2405 16.8139 17.7504 16.3349 18.228L17.394 19.2903ZM18.6423 14.7157C18.6967 15.082 18.6487 15.4682 18.4972 15.8311L19.8815 16.4089C20.135 15.8015 20.2218 15.1397 20.1259 14.4951L18.6423 14.7157ZM14.8635 15.8517L14.419 15.462L13.4301 16.5899L13.8746 16.9796L14.8635 15.8517ZM16.2634 18.2993C16.3072 18.2557 16.3661 18.2454 16.4081 18.2538C16.4504 18.2622 16.5069 18.2964 16.5329 18.3617L15.1396 18.9171C15.4965 19.8125 16.6547 20.0273 17.3225 19.3615L16.2634 18.2993ZM14.4549 15.4956L14.2159 15.2566L13.1552 16.3173L13.3942 16.5563L14.4549 15.4956Z" fill="#1C274C"/>
<path d="M15.0499 9.41317C15.3433 9.70562 15.8182 9.70491 16.1106 9.41157C16.4031 9.11824 16.4023 8.64337 16.109 8.35091L15.0499 9.41317ZM17.3846 8.35091C17.0913 8.64337 17.0906 9.11824 17.383 9.41157C17.6755 9.70491 18.1504 9.70562 18.4437 9.41317L17.3846 8.35091ZM18.4437 6.02322C17.5063 5.08861 15.9874 5.08861 15.0499 6.02322L16.109 7.08547C16.461 6.73453 17.0326 6.73453 17.3846 7.08547L18.4437 6.02322ZM15.0499 6.02322C14.1113 6.95907 14.1113 8.47732 15.0499 9.41317L16.109 8.35091C15.7583 8.00121 15.7583 7.43517 16.109 7.08547L15.0499 6.02322ZM18.4437 9.41317C19.3824 8.47732 19.3824 6.95907 18.4437 6.02322L17.3846 7.08547C17.7354 7.43517 17.7354 8.00121 17.3846 8.35091L18.4437 9.41317Z" fill="#1C274C"/>
</svg>
