<svg width="24" height="24" viewBox="0 0 24 24" fill="none" xmlns="http://www.w3.org/2000/svg">
<path d="M20.4692 10.9191C20.4692 10.9191 18.6222 10.3037 16.1595 7.84107C13.6969 5.37845 13.0813 3.53125 13.0813 3.53125" stroke="#1C274C" stroke-width="1.5"/>
<path d="M20.4698 10.9178C18.4297 12.9579 15.122 12.9579 13.0819 10.9178C11.0418 8.87772 11.0418 5.57005 13.0819 3.52995M20.4698 10.9178C22.5099 8.87772 22.5099 5.57005 20.4698 3.52995C19.7634 2.82354 18.905 2.36174 17.9999 2.14453M20.4698 10.9178L17.6464 16M13.0819 3.52995C13.6429 2.9689 14.2999 2.56214 14.9999 2.30968M13.0819 3.52995L6.83594 7M16.1601 7.83977L10.9999 12.9999" stroke="#1C274C" stroke-width="1.5" stroke-linecap="round"/>
<path d="M2 9.68624L5 8.01953M14.3132 21.9994L16.5 17.9995M5 18.9994L9 14.9994" stroke="#1C274C" stroke-width="1.5" stroke-linecap="round"/>
</svg>
