<svg width="24" height="24" viewBox="0 0 24 24" fill="none" xmlns="http://www.w3.org/2000/svg">
<path d="M8.32181 14.4923C7.3798 15.9853 6.90879 16.7317 7.22969 17.3423C7.55059 17.9528 8.45088 18.0231 10.2514 18.1637L10.7173 18.2001C11.2289 18.24 11.4848 18.26 11.7084 18.3775C11.9321 18.4951 12.0983 18.6969 12.4306 19.1006L12.7331 19.468C13.9026 20.8885 14.4873 21.5987 15.1543 21.5074C15.8213 21.416 16.1289 20.5837 16.7439 18.9189L16.9031 18.4882C17.0778 18.0151 17.1652 17.7785 17.3369 17.6069C17.5086 17.4352 17.7451 17.3478 18.2182 17.173L18.6489 17.0139C20.3137 16.3988 21.1461 16.0913 21.2374 15.4243C21.3288 14.7573 20.6185 14.1725 19.1981 13.0031M17.8938 10.5214C17.7532 8.72081 17.6829 7.82053 17.0723 7.49963C16.4618 7.17873 15.7153 7.64974 14.2224 8.59175L13.8361 8.83546C13.4119 9.10315 13.1998 9.23699 12.9554 9.27045C12.7111 9.3039 12.4622 9.23318 11.9644 9.09174L11.5113 8.96296C9.75959 8.46522 8.88375 8.21635 8.41508 8.68502C7.94641 9.15369 8.19528 10.0295 8.69303 11.7812" stroke="#1C274C" stroke-width="1.5" stroke-linecap="round"/>
<path d="M13.5 6.5L13 6M9.5 2.5L11.5 4.5" stroke="#1C274C" stroke-width="1.5" stroke-linecap="round"/>
<path d="M6.5 6.5L4 4" stroke="#1C274C" stroke-width="1.5" stroke-linecap="round"/>
<path d="M6 12L4.5 10.5M2 8L2.5 8.5" stroke="#1C274C" stroke-width="1.5" stroke-linecap="round"/>
</svg>
