<svg width="24" height="24" viewBox="0 0 24 24" fill="none" xmlns="http://www.w3.org/2000/svg">
<path fill-rule="evenodd" clip-rule="evenodd" d="M17.8196 19.7011C17.7303 18.6069 18.6359 17.6934 19.7206 17.7835C19.9087 17.7991 20.1339 17.8675 20.3632 17.9372C20.3853 17.944 20.4074 17.9507 20.4295 17.9574C20.4495 17.9634 20.4695 17.9694 20.4895 17.9754C20.7003 18.0388 20.9099 18.1018 21.0693 18.1879C21.9846 18.6823 22.28 19.8636 21.7068 20.7368C21.6069 20.8888 21.452 21.0446 21.2963 21.2012C21.2815 21.2161 21.2668 21.231 21.252 21.2458C21.2373 21.2607 21.2225 21.2756 21.2078 21.2906C21.0525 21.4476 20.8981 21.6039 20.7473 21.7046C19.8817 22.2828 18.7106 21.9848 18.2205 21.0616C18.1351 20.9007 18.0727 20.6893 18.0099 20.4767C18.0039 20.4566 17.9979 20.4364 17.9919 20.4162C17.9853 20.3939 17.9786 20.3715 17.972 20.3493C17.9029 20.1179 17.835 19.8908 17.8196 19.7011Z" fill="#1C274C"/>
<g opacity="0.5">
<path d="M11.1566 20.3133C16.2137 20.3133 20.3133 16.2137 20.3133 11.1566C20.3133 6.09956 16.2137 2 11.1566 2C6.09956 2 2 6.09956 2 11.1566C2 16.2137 6.09956 20.3133 11.1566 20.3133Z" fill="#1C274C"/>
</g>
<path fill-rule="evenodd" clip-rule="evenodd" d="M11.156 8.02344C11.5552 8.02344 11.8789 8.34709 11.8789 8.74633V10.4331H13.5656C13.9648 10.4331 14.2885 10.7567 14.2885 11.156C14.2885 11.5552 13.9648 11.8789 13.5656 11.8789H11.8789V13.5656C11.8789 13.9648 11.5552 14.2885 11.156 14.2885C10.7567 14.2885 10.4331 13.9648 10.4331 13.5656V11.8789H8.74633C8.34709 11.8789 8.02344 11.5552 8.02344 11.156C8.02344 10.7567 8.34709 10.4331 8.74633 10.4331H10.4331V8.74633C10.4331 8.34709 10.7567 8.02344 11.156 8.02344Z" fill="#1C274C"/>
</svg>
