<svg width="24" height="24" viewBox="0 0 24 24" fill="none" xmlns="http://www.w3.org/2000/svg">
<path opacity="0.5" d="M20 12C20 16.4183 16.4183 20 12 20C7.58172 20 4 16.4183 4 12C4 7.58172 7.58172 4 12 4C16.4183 4 20 7.58172 20 12Z" fill="#1C274C"/>
<path d="M19.0089 6.784C19.4214 6.74604 19.725 6.38089 19.687 5.96842C19.6491 5.55595 19.2839 5.25235 18.8714 5.29032C18.4476 5.32932 17.9974 5.39638 17.5264 5.4892C17.3268 5.52854 17.1614 5.64369 17.0543 5.79885L18.1716 6.89558C18.4671 6.84528 18.7467 6.80814 19.0089 6.784Z" fill="#1C274C"/>
<path fill-rule="evenodd" clip-rule="evenodd" d="M20.9369 5.37924C20.5338 5.28378 20.1297 5.53313 20.0342 5.93619C19.9388 6.33925 20.1881 6.74339 20.5912 6.83886C20.9852 6.93219 21.137 7.07125 21.1934 7.16142C21.2568 7.26269 21.3265 7.52732 21.0366 8.10938C20.8519 8.48014 21.0027 8.93042 21.3735 9.1151C21.7442 9.29979 22.1945 9.14894 22.3792 8.77818C22.7569 8.02003 22.9424 7.12886 22.465 6.36582C22.1209 5.81574 21.5418 5.52252 20.9369 5.37924ZM20.7121 10.9611C21.0039 10.6672 21.0022 10.1923 20.7083 9.90049C20.4143 9.60865 19.9395 9.61036 19.6476 9.90431C18.9612 10.5957 18.08 11.3337 17.039 12.0753C16.7017 12.3157 16.623 12.784 16.8634 13.1213C17.1037 13.4587 17.572 13.5373 17.9094 13.297C19.0038 12.5172 19.9535 11.7252 20.7121 10.9611ZM3.5872 14.9475C3.78874 14.6952 4.02453 14.4306 4.2934 14.1564L4.0555 12.8262C3.8002 12.7509 3.51277 12.8142 3.31161 13.0159C2.97676 13.3517 2.67621 13.6846 2.41524 14.0113C2.15671 14.3349 2.20949 14.8069 2.53311 15.0654C2.85674 15.3239 3.32867 15.2711 3.5872 14.9475ZM15.7507 14.704C16.1062 14.4915 16.2221 14.0309 16.0095 13.6754C15.7969 13.3199 15.3364 13.204 14.9809 13.4166C14.4993 13.7045 13.9976 13.9881 13.4783 14.2648C12.9448 14.5491 12.4135 14.8149 11.8885 15.0615C11.5136 15.2376 11.3524 15.6843 11.5286 16.0592C11.7047 16.4341 12.1514 16.5953 12.5263 16.4192C13.0741 16.1618 13.6279 15.8847 14.1836 15.5887C14.7245 15.3005 15.2477 15.0048 15.7507 14.704ZM2.81505 16.2501C2.94082 15.8555 2.72283 15.4336 2.32817 15.3078C1.93351 15.1821 1.51162 15.4 1.38586 15.7947C1.19416 16.3963 1.17378 17.0573 1.53513 17.6349C1.98799 18.3587 2.84178 18.6413 3.68932 18.7224C4.10165 18.7619 4.4679 18.4596 4.50736 18.0473C4.54683 17.635 4.24456 17.2687 3.83223 17.2293C3.13788 17.1628 2.88379 16.9624 2.80675 16.8393C2.75703 16.7598 2.70503 16.5954 2.81505 16.2501ZM10.0832 17.4529C10.471 17.3073 10.6674 16.8749 10.5218 16.4872C10.3762 16.0994 9.94384 15.903 9.55605 16.0486C8.33137 16.5084 7.19113 16.8405 6.19441 17.0377C5.78808 17.1181 5.52384 17.5127 5.60423 17.919C5.68462 18.3253 6.07919 18.5896 6.48552 18.5092C7.57805 18.293 8.7981 17.9354 10.0832 17.4529Z" fill="#1C274C"/>
</svg>
