<svg width="24" height="24" viewBox="0 0 24 24" fill="none" xmlns="http://www.w3.org/2000/svg">
<path fill-rule="evenodd" clip-rule="evenodd" d="M12 3.25C12.4142 3.25 12.75 3.58579 12.75 4V6.4C12.75 6.81421 12.4142 7.15 12 7.15C11.5858 7.15 11.25 6.81421 11.25 6.4V4C11.25 3.58579 11.5858 3.25 12 3.25ZM3.25 12C3.25 11.5858 3.58579 11.25 4 11.25H6.4C6.81421 11.25 7.15 11.5858 7.15 12C7.15 12.4142 6.81421 12.75 6.4 12.75H4C3.58579 12.75 3.25 12.4142 3.25 12ZM16.85 12C16.85 11.5858 17.1858 11.25 17.6 11.25H20C20.4142 11.25 20.75 11.5858 20.75 12C20.75 12.4142 20.4142 12.75 20 12.75H17.6C17.1858 12.75 16.85 12.4142 16.85 12ZM12 16.85C12.4142 16.85 12.75 17.1858 12.75 17.6V20C12.75 20.4142 12.4142 20.75 12 20.75C11.5858 20.75 11.25 20.4142 11.25 20V17.6C11.25 17.1858 11.5858 16.85 12 16.85Z" fill="#1C274C"/>
<g opacity="0.5">
<path d="M18.187 5.81342C18.4799 6.10631 18.4799 6.58119 18.187 6.87408L16.49 8.57114C16.1971 8.86403 15.7222 8.86403 15.4293 8.57114C15.1364 8.27824 15.1364 7.80337 15.4293 7.51048L17.1264 5.81342C17.4193 5.52053 17.8941 5.52053 18.187 5.81342Z" fill="#1C274C"/>
<path d="M5.81244 5.8136C6.10534 5.5207 6.58021 5.5207 6.8731 5.8136L8.57016 7.51065C8.86305 7.80355 8.86305 8.27842 8.57016 8.57131C8.27727 8.86421 7.80239 8.86421 7.5095 8.57131L5.81244 6.87426C5.51955 6.58136 5.51955 6.10649 5.81244 5.8136Z" fill="#1C274C"/>
<path d="M8.57037 15.4301C8.86327 15.723 8.86327 16.1978 8.57037 16.4907L6.87332 18.1878C6.58042 18.4807 6.10555 18.4807 5.81266 18.1878C5.51976 17.8949 5.51976 17.42 5.81266 17.1271L7.50971 15.4301C7.80261 15.1372 8.27748 15.1372 8.57037 15.4301Z" fill="#1C274C"/>
<path d="M15.4291 15.4302C15.722 15.1374 16.1969 15.1374 16.4898 15.4302L18.1868 17.1273C18.4797 17.4202 18.4797 17.8951 18.1868 18.188C17.8939 18.4809 17.419 18.4809 17.1262 18.188L15.4291 16.4909C15.1362 16.198 15.1362 15.7231 15.4291 15.4302Z" fill="#1C274C"/>
</g>
</svg>
