<svg width="24" height="24" viewBox="0 0 24 24" fill="none" xmlns="http://www.w3.org/2000/svg">
<path fill-rule="evenodd" clip-rule="evenodd" d="M21.0471 22.0116C21.7007 21.327 21.9872 20.2439 21.52 19.1962L14.1575 2.68648C13.3029 0.770016 10.6971 0.770016 9.84248 2.68648L2.47998 19.1962C2.01277 20.2439 2.29935 21.327 2.95289 22.0116C3.61193 22.7019 4.68817 23.0207 5.72013 22.4697L5.36689 21.8081L5.72013 22.4697L11.6238 19.3177L11.2706 18.6561L11.6238 19.3177C11.8623 19.1904 12.1377 19.1904 12.3762 19.3177L18.2799 22.4697L18.6331 21.8081L18.2799 22.4697C19.3118 23.0207 20.3881 22.7019 21.0471 22.0116ZM18.9863 21.1465L18.6357 21.8033L18.9863 21.1465L13.0826 17.9945C12.4027 17.6315 11.5973 17.6315 10.9174 17.9945L5.01366 21.1465C4.65787 21.3365 4.2996 21.25 4.03785 20.9758C3.77059 20.6959 3.65008 20.2553 3.84993 19.8071L11.2124 3.29741C11.5384 2.56637 12.4616 2.56637 12.7876 3.29741L20.1501 19.8071C20.3499 20.2553 20.2294 20.6959 19.9621 20.9758C19.7004 21.25 19.3421 21.3365 18.9863 21.1465Z" fill="#1C274C"/>
</svg>
