<svg width="24" height="24" viewBox="0 0 24 24" fill="none" xmlns="http://www.w3.org/2000/svg">
<path fill-rule="evenodd" clip-rule="evenodd" d="M21.0471 1.98842C21.7007 2.67298 21.9872 3.75611 21.52 4.8038L14.1575 21.3135C13.3029 23.23 10.6971 23.23 9.84248 21.3135L2.47998 4.8038C2.01277 3.75611 2.29935 2.67298 2.95289 1.98842C3.61193 1.29808 4.68817 0.979282 5.72013 1.53025L5.36689 2.19186L5.72013 1.53025L11.6238 4.68228L11.2706 5.34389L11.6238 4.68229C11.8623 4.80958 12.1377 4.80958 12.3762 4.68228L18.2799 1.53025L18.6331 2.19186L18.2799 1.53025C19.3118 0.979281 20.3881 1.29808 21.0471 1.98842ZM18.9863 2.85347L18.6357 2.19669L18.9863 2.85347L13.0826 6.0055C12.4027 6.3685 11.5973 6.36851 10.9174 6.0055L5.01366 2.85347C4.65787 2.66351 4.2996 2.75003 4.03785 3.0242C3.77059 3.30415 3.65008 3.74472 3.84993 4.19287L11.2124 20.7026C11.5384 21.4336 12.4616 21.4336 12.7876 20.7026L20.1501 4.19287C20.3499 3.74472 20.2294 3.30414 19.9621 3.0242C19.7004 2.75003 19.3421 2.66351 18.9863 2.85347Z" fill="#1C274C"/>
</svg>
