<svg width="24" height="24" viewBox="0 0 24 24" fill="none" xmlns="http://www.w3.org/2000/svg">
<path fill-rule="evenodd" clip-rule="evenodd" d="M12 2.90049C11.8811 3.07699 11.7345 3.33717 11.5164 3.72853L11.3853 3.96367C11.3756 3.98113 11.3655 3.99938 11.3551 4.01827C11.2465 4.21557 11.099 4.48359 10.8555 4.66849C10.6074 4.85681 10.3083 4.92266 10.0944 4.96974C10.0741 4.97421 10.0545 4.97851 10.0359 4.98273L9.78133 5.04032C9.31615 5.14557 9.02626 5.21294 8.83146 5.28104C8.95191 5.462 9.15408 5.70102 9.48204 6.08453L9.65557 6.28745C9.66833 6.30237 9.68164 6.31778 9.69537 6.33367C9.84312 6.50471 10.0397 6.73224 10.1305 7.02438C10.2204 7.31348 10.19 7.61259 10.1667 7.84122C10.1646 7.86257 10.1624 7.88331 10.1605 7.90336L10.1343 8.1741C10.0874 8.65774 10.0585 8.9706 10.0593 9.19191C10.2516 9.12379 10.5148 9.0042 10.9166 8.81921L11.1549 8.70948C11.1725 8.7014 11.1908 8.69281 11.21 8.68386C11.4078 8.59128 11.6885 8.45994 12 8.45994C12.3115 8.45994 12.5922 8.59128 12.7901 8.68386C12.8092 8.69281 12.8275 8.7014 12.8451 8.70948L13.0834 8.81921C13.4852 9.00421 13.7485 9.1238 13.9407 9.19191C13.9415 8.9706 13.9126 8.65774 13.8657 8.1741L13.8395 7.90336C13.8376 7.88331 13.8355 7.86257 13.8333 7.84123C13.81 7.61259 13.7796 7.31348 13.8695 7.02438C13.9603 6.73224 14.1569 6.5047 14.3046 6.33367C14.3184 6.31778 14.3317 6.30237 14.3444 6.28744L14.518 6.08453C14.8459 5.70102 15.0481 5.462 15.1685 5.28104C14.9738 5.21294 14.6839 5.14557 14.2187 5.04032L13.9641 4.98273C13.9455 4.97851 13.9259 4.97421 13.9056 4.96974C13.6918 4.92266 13.3926 4.85681 13.1445 4.66849C12.901 4.48359 12.7535 4.21556 12.6449 4.01826C12.6345 3.99937 12.6245 3.98113 12.6147 3.96367L12.4836 3.72853C12.2655 3.33717 12.1189 3.07699 12 2.90049ZM14.1529 9.2502C14.1541 9.25023 14.1547 9.25028 14.1547 9.25029L14.1529 9.2502ZM9.84533 9.25029C9.84535 9.25028 9.84594 9.25023 9.84707 9.2502L9.84533 9.25029ZM10.8832 1.88484C11.0988 1.60321 11.451 1.25 12 1.25C12.549 1.25 12.9012 1.60321 13.1169 1.88484C13.3245 2.15604 13.5371 2.53751 13.7683 2.9524C13.7768 2.96761 13.7853 2.98287 13.7938 2.99817L13.9249 3.23332C13.9617 3.29934 13.9902 3.35037 14.0155 3.39412C14.0324 3.42352 14.0458 3.44573 14.0565 3.46286C14.0733 3.46751 14.0946 3.47303 14.1219 3.47967C14.1689 3.49111 14.2235 3.50351 14.2952 3.51971L14.5497 3.5773C14.5671 3.58123 14.5844 3.58514 14.6016 3.58905C15.0486 3.69009 15.4657 3.78439 15.7807 3.90852C16.122 4.04302 16.5343 4.28543 16.6932 4.79638C16.8496 5.29916 16.6571 5.73321 16.4626 6.0421C16.2799 6.3323 15.9979 6.66198 15.6916 7.02013L15.4844 7.26233C15.4357 7.31933 15.3981 7.36328 15.3662 7.40179C15.3401 7.43338 15.322 7.45619 15.309 7.4734C15.3107 7.5291 15.3179 7.60752 15.3325 7.75868L15.3637 8.08034C15.4102 8.55958 15.4526 8.997 15.4373 9.3415C15.4213 9.69943 15.3369 10.1785 14.9114 10.5015C14.4737 10.8337 13.9847 10.7689 13.6378 10.6695C13.3132 10.5765 12.9231 10.3969 12.5049 10.2042C12.4887 10.1967 12.4724 10.1892 12.4561 10.1817L12.2177 10.072C12.1507 10.0411 12.0994 10.0175 12.0548 9.99788C12.0329 9.9882 12.0149 9.98052 12 9.97438C11.9851 9.98052 11.9671 9.9882 11.9452 9.99788C11.9006 10.0175 11.8493 10.0411 11.7823 10.072L11.5439 10.1817C11.5276 10.1892 11.5114 10.1967 11.4951 10.2042C11.0769 10.3969 10.6868 10.5765 10.3622 10.6695C10.0153 10.7689 9.52629 10.8337 9.08858 10.5015C8.66311 10.1785 8.57867 9.69943 8.56273 9.3415C8.54738 8.997 8.58982 8.5596 8.63632 8.08037C8.63796 8.06344 8.63961 8.04646 8.64126 8.02942L8.6675 7.75868C8.68214 7.60752 8.68929 7.5291 8.69098 7.47341C8.67804 7.45619 8.65995 7.43338 8.63378 7.4018C8.60187 7.36328 8.56431 7.31933 8.51557 7.26233L8.34204 7.05941C8.33081 7.04628 8.3196 7.03318 8.30843 7.02011C8.00208 6.66197 7.72007 6.33229 7.53738 6.0421C7.34294 5.73321 7.15045 5.29916 7.3068 4.79638C7.46569 4.28543 7.87806 4.04302 8.21935 3.90852C8.53433 3.78439 8.95146 3.69009 9.39836 3.58905C9.41563 3.58515 9.43295 3.58123 9.45031 3.5773L9.70485 3.51971C9.77646 3.50351 9.83114 3.49112 9.87814 3.47967C9.90543 3.47302 9.9267 3.46751 9.94352 3.46287C9.95424 3.44573 9.96756 3.42352 9.98455 3.39412C10.0098 3.35037 10.0383 3.29934 10.0751 3.23332L10.2062 2.99817C10.2147 2.98287 10.2232 2.96761 10.2317 2.9524C10.4629 2.53751 10.6755 2.15604 10.8832 1.88484ZM4.00001 8.20162C4.05217 8.29794 4.16323 8.49454 4.34553 8.63293C4.54144 8.78165 4.77659 8.83117 4.87431 8.85175C4.88408 8.8538 4.89247 8.85557 4.89932 8.85712L4.91991 8.86178L4.88722 8.9C4.8822 8.90587 4.87615 8.91277 4.86923 8.92065C4.80066 8.99878 4.64738 9.17342 4.57666 9.40084C4.50691 9.62513 4.53205 9.85483 4.54353 9.95978C4.5447 9.97048 4.54573 9.97988 4.5465 9.98785L4.54758 9.99898C4.45328 9.95385 4.23948 9.85497 4 9.85497C3.76053 9.85497 3.54673 9.95385 3.45243 9.99898L3.4535 9.98785C3.45428 9.97988 3.45531 9.97048 3.45648 9.95978C3.46796 9.85483 3.4931 9.62513 3.42335 9.40084C3.35263 9.17342 3.19935 8.99878 3.13078 8.92065C3.12386 8.91277 3.11781 8.90587 3.11279 8.9L3.0801 8.86178L3.10069 8.85712C3.10754 8.85557 3.11593 8.8538 3.1257 8.85175C3.22342 8.83117 3.45857 8.78165 3.65448 8.63293C3.83678 8.49454 3.94784 8.29794 4.00001 8.20162ZM2.93518 8.12561L2.79329 7.4985L2.93518 8.12561ZM3.40601 10.6324C3.40622 10.6338 3.40629 10.6346 3.40627 10.6346L3.40601 10.6324ZM4.59373 10.6346C4.59372 10.6346 4.59379 10.6338 4.594 10.6324L4.59373 10.6346ZM3.14385 6.71442C3.27252 6.54641 3.54565 6.25 4 6.25C4.45436 6.25 4.72749 6.54641 4.85616 6.71442C4.97724 6.87253 5.09589 7.08561 5.20506 7.28166C5.21156 7.29334 5.21803 7.30496 5.22446 7.3165L5.27312 7.40378L5.35761 7.4229C5.37048 7.42581 5.38346 7.42874 5.39653 7.43169C5.60742 7.47928 5.84245 7.53232 6.02782 7.60538C6.23882 7.68853 6.57506 7.86998 6.70469 8.28684C6.83178 8.69552 6.66659 9.03351 6.54867 9.22083C6.44216 9.39002 6.28443 9.5743 6.13957 9.74353C6.13099 9.75355 6.12246 9.76352 6.11399 9.77343L6.04102 9.85875L6.05263 9.97854C6.05389 9.99151 6.05515 10.0046 6.05643 10.0177C6.07849 10.2443 6.10217 10.4877 6.09327 10.6874C6.0838 10.9 6.03132 11.2846 5.68246 11.5494C5.32135 11.8235 4.92819 11.7562 4.71561 11.6953C4.52457 11.6405 4.30502 11.5393 4.10777 11.4483C4.09549 11.4427 4.08329 11.4371 4.0712 11.4315L4 11.3987L3.92881 11.4315C3.91672 11.4371 3.90452 11.4427 3.89224 11.4483C3.69499 11.5393 3.47544 11.6405 3.2844 11.6953C3.07183 11.7562 2.67866 11.8235 2.31755 11.5494C1.96868 11.2846 1.91621 10.9 1.90674 10.6874C1.89784 10.4877 1.92152 10.2443 1.94358 10.0177C1.94485 10.0046 1.94612 9.99152 1.94738 9.97854L1.95899 9.85875L1.88602 9.77343C1.87755 9.76352 1.86902 9.75355 1.86044 9.74353C1.71558 9.5743 1.55785 9.39002 1.45134 9.22083C1.33342 9.03351 1.16823 8.69552 1.29532 8.28684C1.42495 7.86998 1.76119 7.68853 1.97219 7.60538C2.15756 7.53232 2.39259 7.47928 2.60348 7.43169C2.61655 7.42874 2.62953 7.42581 2.6424 7.4229L2.72689 7.40378L2.77554 7.3165C2.78198 7.30496 2.78844 7.29334 2.79495 7.28167C2.90411 7.08562 3.02277 6.87253 3.14385 6.71442ZM20 8.20162C20.0522 8.29793 20.1632 8.49454 20.3455 8.63293C20.5414 8.78165 20.7766 8.83117 20.8743 8.85174C20.8841 8.8538 20.8925 8.85557 20.8993 8.85712L20.9199 8.86178L20.8872 8.9C20.8822 8.90587 20.8761 8.91277 20.8692 8.92065C20.8007 8.99878 20.6474 9.17342 20.5767 9.40084C20.5069 9.62513 20.532 9.85482 20.5435 9.95978C20.5447 9.97048 20.5457 9.97988 20.5465 9.98785L20.5476 9.99898C20.4533 9.95385 20.2395 9.85497 20 9.85497C19.7605 9.85497 19.5467 9.95385 19.4524 9.99898L19.4535 9.98785C19.4543 9.97988 19.4553 9.97048 19.4565 9.95978C19.468 9.85483 19.4931 9.62513 19.4233 9.40084C19.3526 9.17342 19.1994 8.99878 19.1308 8.92065C19.1239 8.91277 19.1178 8.90587 19.1128 8.90001L19.0801 8.86178L19.1007 8.85712C19.1075 8.85557 19.1159 8.8538 19.1257 8.85175C19.2234 8.83117 19.4586 8.78165 19.6545 8.63293C19.8368 8.49454 19.9478 8.29793 20 8.20162ZM19.406 10.6324C19.4062 10.634 19.4063 10.6347 19.4063 10.6346L19.406 10.6324ZM19.1438 6.71442C19.2725 6.54641 19.5456 6.25 20 6.25C20.4544 6.25 20.7275 6.54641 20.8562 6.71442C20.9772 6.87253 21.0959 7.08561 21.2051 7.28166C21.2116 7.29334 21.218 7.30496 21.2245 7.3165L21.2731 7.40378L21.3576 7.4229C21.3705 7.42581 21.3835 7.42874 21.3965 7.43169C21.6074 7.47928 21.8425 7.53233 22.0278 7.60538C22.2388 7.68853 22.5751 7.86998 22.7047 8.28684C22.8318 8.69552 22.6666 9.03351 22.5487 9.22083C22.4422 9.39003 22.2844 9.57431 22.1396 9.74354C22.131 9.75356 22.1225 9.76352 22.114 9.77343L22.041 9.85875L22.0526 9.97854C22.0539 9.99151 22.0552 10.0046 22.0564 10.0176C22.0785 10.2443 22.1022 10.4877 22.0933 10.6874C22.0838 10.9 22.0313 11.2846 21.6825 11.5494C21.3214 11.8235 20.9282 11.7562 20.7156 11.6953C20.5246 11.6405 20.305 11.5393 20.1078 11.4484C20.0955 11.4427 20.0833 11.4371 20.0712 11.4315L20 11.3987L19.9288 11.4315C19.9167 11.4371 19.9045 11.4427 19.8923 11.4483C19.695 11.5393 19.4754 11.6405 19.2844 11.6953C19.0718 11.7562 18.6787 11.8235 18.3176 11.5494C17.9687 11.2846 17.9162 10.9 17.9067 10.6874C17.8978 10.4877 17.9215 10.2443 17.9436 10.0177C17.9449 10.0046 17.9461 9.99152 17.9474 9.97855L17.959 9.85875L17.886 9.77343C17.8775 9.76352 17.869 9.75354 17.8604 9.74352C17.7156 9.57429 17.5578 9.39002 17.4513 9.22083C17.3334 9.03351 17.1682 8.69552 17.2953 8.28684C17.4249 7.86998 17.7612 7.68853 17.9722 7.60538C18.1576 7.53232 18.3926 7.47928 18.6035 7.43169C18.6166 7.42874 18.6295 7.42581 18.6424 7.4229L18.7269 7.40378L18.7755 7.3165C18.782 7.30496 18.7884 7.29334 18.7949 7.28167C18.9041 7.08562 19.0228 6.87253 19.1438 6.71442ZM20.5937 10.6346C20.5937 10.6346 20.5938 10.6338 20.594 10.6324L20.5937 10.6346ZM8.68392 14.4482C10.5497 14.0867 12.5471 14.1678 14.1633 15.1318C14.3903 15.2672 14.6031 15.4359 14.7887 15.6444C15.1646 16.0666 15.3587 16.5913 15.3679 17.1174C15.5591 16.994 15.7507 16.857 15.9454 16.71L17.7526 15.3448C18.6571 14.6615 19.9718 14.6614 20.8765 15.3445C21.7124 15.9757 22.0457 17.1085 21.4473 18.0677C21.0219 18.7495 20.3814 19.6924 19.7296 20.2962C19.0706 20.9065 18.1329 21.4196 17.4235 21.762C16.562 22.1778 15.6316 22.4077 14.7268 22.5541C12.8776 22.8534 10.9534 22.8076 9.12499 22.431C8.19059 22.2384 7.21955 22.1384 6.25994 22.1384H4C3.58579 22.1384 3.25 21.8026 3.25 21.3884C3.25 20.9742 3.58579 20.6384 4 20.6384H6.25994C7.32205 20.6384 8.39448 20.749 9.42767 20.9618C11.0797 21.3022 12.8201 21.3432 14.4871 21.0734C15.316 20.9392 16.0901 20.74 16.7715 20.4111C17.4549 20.0812 18.2232 19.6468 18.7103 19.1957C19.2028 18.7395 19.754 17.9479 20.1746 17.2738C20.3015 17.0703 20.284 16.7767 19.9726 16.5416C19.6029 16.2624 19.0263 16.2625 18.6567 16.5417L16.8495 17.9069C16.1281 18.4518 15.2401 19.0349 14.1387 19.2106C14.0276 19.2283 13.9118 19.2445 13.7917 19.2588C13.7345 19.2692 13.6748 19.276 13.6132 19.2783C13.0509 19.3342 12.3997 19.3472 11.6813 19.2793C11.2689 19.2404 10.9662 18.8745 11.0051 18.4621C11.044 18.0497 11.4099 17.747 11.8223 17.786C12.4497 17.8452 13.0126 17.8321 13.4902 17.7831C13.4999 17.7821 13.5096 17.7811 13.5192 17.7801C13.5391 17.7685 13.5696 17.7474 13.6096 17.7125C13.9291 17.4336 13.9576 16.9667 13.6684 16.6418C13.5951 16.5595 13.5048 16.4856 13.3949 16.42C12.2137 15.7155 10.6362 15.5978 8.96922 15.9208C7.31169 16.2419 5.66491 16.9817 4.43386 17.8547C4.09599 18.0943 3.62784 18.0146 3.38823 17.6768C3.14862 17.3389 3.22827 16.8708 3.56615 16.6311C4.96451 15.6395 6.8086 14.8115 8.68392 14.4482Z" fill="#1C274C"/>
</svg>
