<svg width="24" height="24" viewBox="0 0 24 24" fill="none" xmlns="http://www.w3.org/2000/svg">
<path fill-rule="evenodd" clip-rule="evenodd" d="M12.1104 3.32656C11.3417 2.55781 10.0953 2.55781 9.32656 3.32656C8.55781 4.0953 8.55781 5.34168 9.32656 6.11042L10.3146 7.09845C10.3486 7.08325 10.3841 7.06678 10.4211 7.04896C10.8072 6.86288 11.354 6.52792 11.9409 5.94106C12.5277 5.3542 12.8627 4.80736 13.0489 4.42117C13.0667 4.38414 13.0832 4.34857 13.0984 4.31456L12.1104 3.32656ZM14.2131 5.42923C13.9512 5.89156 13.5653 6.43798 13.0015 7.00172C12.4379 7.56539 11.8915 7.95129 11.4293 8.21313L11.8896 8.67344C12.6583 9.44219 13.9047 9.44219 14.6734 8.67344C15.4422 7.9047 15.4422 6.65832 14.6734 5.88958L14.2131 5.42923ZM8.2659 2.2659C9.62043 0.911367 11.8166 0.911367 13.1711 2.2659L15.7341 4.82892C17.0886 6.18345 17.0886 8.37957 15.7341 9.7341C14.3796 11.0886 12.1834 11.0886 10.8289 9.7341L8.2659 7.17108C6.91137 5.81656 6.91137 3.62043 8.2659 2.2659ZM8.68391 14.4482C10.5497 14.0867 12.5471 14.1678 14.1632 15.1318C14.3903 15.2672 14.603 15.4359 14.7887 15.6444C15.1646 16.0666 15.3587 16.5913 15.3679 17.1174C15.5591 16.994 15.7507 16.857 15.9454 16.71L17.7525 15.3448C18.6571 14.6615 19.9718 14.6614 20.8765 15.3445C21.7124 15.9757 22.0457 17.1085 21.4472 18.0677C21.0219 18.7495 20.3814 19.6924 19.7296 20.2962C19.0706 20.9065 18.1329 21.4196 17.4235 21.762C16.562 22.1778 15.6316 22.4077 14.7268 22.5541C12.8776 22.8534 10.9534 22.8076 9.12499 22.431C8.19058 22.2384 7.21955 22.1384 6.25993 22.1384H4C3.58579 22.1384 3.25 21.8026 3.25 21.3884C3.25 20.9742 3.58579 20.6384 4 20.6384H6.25993C7.32204 20.6384 8.39448 20.749 9.42766 20.9618C11.0797 21.3022 12.8201 21.3432 14.4871 21.0734C15.316 20.9392 16.0901 20.74 16.7715 20.4111C17.4549 20.0812 18.2232 19.6468 18.7103 19.1957C19.2028 18.7395 19.754 17.9479 20.1746 17.2738C20.3015 17.0703 20.284 16.7767 19.9726 16.5416C19.6029 16.2624 19.0263 16.2625 18.6567 16.5417L16.8495 17.9069C16.1281 18.4518 15.2401 19.0349 14.1387 19.2106C14.0276 19.2283 13.9118 19.2445 13.7917 19.2588C13.7344 19.2692 13.6748 19.276 13.6132 19.2783C13.0509 19.3342 12.3997 19.3472 11.6813 19.2793C11.2689 19.2404 10.9661 18.8745 11.0051 18.4621C11.044 18.0497 11.4099 17.747 11.8223 17.786C12.4497 17.8452 13.0126 17.8321 13.4902 17.7831C13.4999 17.7821 13.5096 17.7811 13.5192 17.7801C13.5391 17.7685 13.5696 17.7474 13.6096 17.7125C13.929 17.4336 13.9576 16.9667 13.6684 16.6418C13.5951 16.5595 13.5048 16.4856 13.3949 16.42C12.2137 15.7155 10.6362 15.5978 8.96921 15.9208C7.31168 16.2419 5.66491 16.9817 4.43385 17.8547C4.09598 18.0943 3.62784 18.0146 3.38822 17.6768C3.14861 17.3389 3.22827 16.8708 3.56614 16.6311C4.96451 15.6395 6.8086 14.8115 8.68391 14.4482Z" fill="#1C274C"/>
</svg>
