<svg width="24" height="24" viewBox="0 0 24 24" fill="none" xmlns="http://www.w3.org/2000/svg">
<path fill-rule="evenodd" clip-rule="evenodd" d="M18.9059 3.92194C17.892 2.88646 16.446 2.50452 15.0305 2.9073C14.6321 3.02066 14.2172 2.78959 14.1038 2.39119C13.9905 1.99279 14.2215 1.57792 14.6199 1.46456C16.5581 0.913072 18.5746 1.43959 19.9776 2.8725C20.2674 3.16846 20.2624 3.64331 19.9665 3.9331C19.6705 4.2229 19.1957 4.2179 18.9059 3.92194ZM11.1902 3.30839C10.9762 2.94131 10.3524 2.7187 9.71869 3.08085C9.08734 3.44168 8.9763 4.07772 9.18663 4.4384L11.7123 8.76952C11.9209 9.12734 11.8 9.58656 11.4422 9.79522C11.0844 10.0039 10.6252 9.88296 10.4165 9.52514L7.89085 5.19403C7.89073 5.19381 7.89098 5.19424 7.89085 5.19403L7.04897 3.75032C6.83491 3.38324 6.2111 3.16063 5.57742 3.52278C4.94607 3.88361 4.83503 4.51965 5.04536 4.88033L8.83385 11.377C9.0425 11.7348 8.92159 12.1941 8.56377 12.4027C8.20595 12.6114 7.74673 12.4905 7.53807 12.1326L5.8543 9.24522C5.64024 8.87814 5.01643 8.65553 4.38275 9.01768C3.7514 9.37851 3.64036 10.0145 3.85069 10.3752L7.63918 16.8719C9.24811 19.631 13.2185 20.5264 16.5855 18.6021C19.9501 16.6792 21.1461 12.8377 19.5409 10.085L17.0153 5.75387C16.8012 5.3868 16.1774 5.16418 15.5437 5.52633C14.9124 5.88716 14.8013 6.5232 15.0117 6.88389L16.6954 9.7713C16.7962 9.94411 16.8238 10.15 16.772 10.3432C16.7202 10.5365 16.5934 10.701 16.4197 10.8003C14.8772 11.6818 14.4045 13.3863 15.0798 14.5443C15.2885 14.9022 15.1676 15.3614 14.8097 15.57C14.4519 15.7787 13.9927 15.6578 13.7841 15.3C12.7248 13.4835 13.3916 11.2368 15.0474 9.92287L11.1902 3.30839ZM13.9184 5.00916L12.486 2.55277C11.7702 1.32517 10.1629 1.09928 8.9744 1.77853C8.60811 1.98787 8.29656 2.27483 8.06166 2.60775C7.26161 1.72687 5.88378 1.62001 4.83313 2.22046C3.64229 2.90104 3.03 4.40197 3.74958 5.63596L4.75175 7.35452C4.36671 7.39635 3.98481 7.51742 3.63846 7.71536C2.44762 8.39595 1.83533 9.89687 2.55491 11.1309L6.3434 17.6275C8.45414 21.2471 13.4079 22.1458 17.3297 19.9044C21.2539 17.6617 22.9512 12.9554 20.8367 9.32937L18.3111 4.99825C17.5952 3.77065 15.988 3.54476 14.7994 4.22401C14.4494 4.42406 14.1494 4.69498 13.9184 5.00916ZM4.41389 17.859C4.77171 17.6504 5.23093 17.7713 5.43959 18.1291C6.26645 19.5471 7.53054 20.6193 9.08942 21.3151C9.46767 21.4839 9.63745 21.9274 9.46863 22.3057C9.29981 22.6839 8.85632 22.8537 8.47807 22.6849C6.66656 21.8764 5.14676 20.6046 4.14381 18.8847C3.93515 18.5269 4.05607 18.0677 4.41389 17.859Z" fill="#1C274C"/>
</svg>
