<svg width="24" height="24" viewBox="0 0 24 24" fill="none" xmlns="http://www.w3.org/2000/svg">
<path d="M15.7283 3.8836C17.1626 2.44371 19.2607 2.41347 20.4221 3.57944C21.5858 4.74762 21.5545 6.85885 20.1192 8.29972L17.6953 10.733C17.403 11.0264 17.4039 11.5013 17.6974 11.7936C17.9909 12.086 18.4657 12.085 18.758 11.7916L21.1819 9.35833C23.0932 7.43961 23.3331 4.37629 21.4849 2.52084C19.6344 0.663185 16.5779 0.905298 14.6656 2.825L9.81793 7.69145C7.90663 9.61017 7.66668 12.6735 9.51494 14.529C9.80727 14.8224 10.2821 14.8234 10.5756 14.531C10.8691 14.2387 10.87 13.7638 10.5777 13.4704C9.414 12.3022 9.44534 10.1909 10.8806 8.75006L15.7283 3.8836Z" fill="#1C274C"/>
<path opacity="0.5" d="M14.4846 9.4707C14.1923 9.17724 13.7174 9.17632 13.4239 9.46864C13.1305 9.76097 13.1296 10.2358 13.4219 10.5293C14.5856 11.6975 14.5542 13.8087 13.1189 15.2496L8.27129 20.1161C6.83696 21.556 4.73889 21.5862 3.57742 20.4202C2.41376 19.2521 2.4451 17.1408 3.8804 15.6999L6.30424 13.2666C6.59657 12.9732 6.59565 12.4983 6.30219 12.206C6.00873 11.9137 5.53386 11.9146 5.24153 12.208L2.81769 14.6413C0.906387 16.56 0.666428 19.6234 2.5147 21.4788C4.36518 23.3365 7.42173 23.0944 9.334 21.1747L14.1816 16.3082C16.0929 14.3895 16.3329 11.3262 14.4846 9.4707Z" fill="#1C274C"/>
</svg>
