<svg width="24" height="24" viewBox="0 0 24 24" fill="none" xmlns="http://www.w3.org/2000/svg">
<path fill-rule="evenodd" clip-rule="evenodd" d="M9 1.00026H14.9768C14.992 0.999913 15.0072 0.999911 15.0225 1.00026H21C21.5523 1.00026 22 1.44798 22 2.00026C22 2.55255 21.5523 3.00026 21 3.00026H15.744H13.656H9C8.44772 3.00026 8 2.55255 8 2.00026C8 1.44798 8.44772 1.00026 9 1.00026ZM8.25597 21.0003H3C2.44772 21.0003 2 21.448 2 22.0003C2 22.5525 2.44772 23.0003 3 23.0003H8.97753C8.99281 23.0006 9.00805 23.0006 9.02325 23.0003H15C15.5523 23.0003 16 22.5525 16 22.0003C16 21.448 15.5523 21.0003 15 21.0003H10.344H8.25597Z" fill="#1C274C"/>
<path opacity="0.5" d="M13.6559 3L8.25586 21H10.3439L15.7439 3H13.6559Z" fill="#1C274C"/>
</svg>
