<svg width="24" height="24" viewBox="0 0 24 24" fill="none" xmlns="http://www.w3.org/2000/svg">
<path fill-rule="evenodd" clip-rule="evenodd" d="M4 4.6087C4 2.61567 5.61567 1 7.6087 1H12C15.3137 1 18 3.68629 18 7C18 10.3137 15.3137 13 12 13H4V4.6087ZM7.6087 3C6.72024 3 6 3.72024 6 4.6087V11H12C14.2091 11 16 9.20914 16 7C16 4.79086 14.2091 3 12 3H7.6087Z" fill="#1C274C"/>
<path opacity="0.5" d="M4 13.0003V19.9415C4 21.6308 5.36948 23.0003 7.05882 23.0003H14C17.3137 23.0003 20 20.314 20 17.0003C20 14.4262 18.3791 12.2307 16.1022 11.3789C15.0293 12.3845 13.5866 13.0003 12 13.0003H14C16.2091 13.0003 18 14.7912 18 17.0003C18 19.2095 16.2091 21.0003 14 21.0003H7.05882C6.47405 21.0003 6 20.5263 6 19.9415V13.0003H4Z" fill="#1C274C"/>
</svg>
