<svg width="24" height="24" viewBox="0 0 24 24" fill="none" xmlns="http://www.w3.org/2000/svg">
<path fill-rule="evenodd" clip-rule="evenodd" d="M6.37564 19.5722C5.89807 19.4015 5.50578 19.1626 5.1716 18.8284C4.19727 17.8541 4.03323 16.3859 4.00562 13.75H19.9944C19.9668 16.3859 19.8028 17.8541 18.8285 18.8284C18.4943 19.1625 18.1021 19.4014 17.6247 19.5721L18.671 21.6648C18.8563 22.0352 18.7061 22.4857 18.3356 22.671C17.9651 22.8562 17.5146 22.7061 17.3294 22.3356L16.1054 19.8877C15.0571 20 13.726 20 12 20C10.2742 20 8.94326 20 7.89494 19.8877L6.67101 22.3356C6.48577 22.7061 6.03526 22.8562 5.66478 22.671C5.29429 22.4857 5.14413 22.0352 5.32937 21.6648L6.37564 19.5722ZM14.75 16C14.75 15.5858 15.0858 15.25 15.5 15.25H17C17.4142 15.25 17.75 15.5858 17.75 16C17.75 16.4142 17.4142 16.75 17 16.75H15.5C15.0858 16.75 14.75 16.4142 14.75 16ZM7.00002 15.25C6.58581 15.25 6.25002 15.5858 6.25002 16C6.25002 16.4142 6.58581 16.75 7.00002 16.75H8.50002C8.91424 16.75 9.25002 16.4142 9.25002 16C9.25002 15.5858 8.91424 15.25 8.50002 15.25H7.00002Z" fill="#1C274C"/>
<path opacity="0.5" d="M5.17157 3.17104C4 4.34261 4 6.22823 4 9.99947V13.7495H20V9.99947C20 6.22823 20 4.34261 18.8284 3.17104C17.9495 2.29215 16.6688 2.07259 14.4917 2.01773C14.2216 2.01093 14 2.22928 14 2.49947C14 3.60404 13.1046 4.49947 12 4.49947C10.8954 4.49947 10 3.60404 10 2.49947C10 2.22928 9.77845 2.01093 9.50835 2.01773C7.33118 2.07259 6.05046 2.29215 5.17157 3.17104Z" fill="#1C274C"/>
</svg>
