<svg width="24" height="24" viewBox="0 0 24 24" fill="none" xmlns="http://www.w3.org/2000/svg">
<path d="M9.41185 21.6598C9.94114 21.8016 10.4719 21.8982 11 21.9519C15.7947 22.4396 20.3717 19.3941 21.6593 14.5887C23.0887 9.25406 19.9229 3.77069 14.5882 2.34127C11.9556 1.63587 9.28684 2.04955 7.0869 3.2907M12 12.0005L5.00197 6.33643C4.57285 5.98911 3.93869 6.0528 3.63599 6.51448C3.06678 7.38261 2.62413 8.35486 2.34078 9.41234C1.37322 13.0233 2.51113 16.7025 5.00197 19.1463M7.36918 8.18514C6.51383 9.22212 6.00004 10.5513 6.00004 12.0005C6.00004 15.3142 8.68633 18.0005 12 18.0005C15.3137 18.0005 18 15.3142 18 12.0005C18 11.4827 17.9345 10.9803 17.8111 10.501M10.1029 6.30665C10.6991 6.10807 11.337 6.00053 12 6.00053C13.0929 6.00053 14.1175 6.2927 15 6.8032" stroke="#1C274C" stroke-width="1.5" stroke-linecap="round"/>
</svg>
