<svg width="24" height="24" viewBox="0 0 24 24" fill="none" xmlns="http://www.w3.org/2000/svg">
<path opacity="0.5" fill-rule="evenodd" clip-rule="evenodd" d="M19 11.9375V15C19 18.6126 16.2633 21.5861 12.75 21.9603V15C12.75 14.5858 12.4142 14.25 12 14.25C11.5858 14.25 11.25 14.5858 11.25 15V21.9603C7.73668 21.5861 5 18.6126 5 15V11.9375C5 10.2702 6.03633 8.84489 7.5 8.27065C7.94533 8.09593 8.43021 8 8.9375 8H15.0625C15.5698 8 16.0547 8.09593 16.5 8.27065C17.9637 8.84489 19 10.2702 19 11.9375Z" fill="#1C274C"/>
<path d="M19 14.7504V13.2504H22C22.4142 13.2504 22.75 13.5861 22.75 14.0004C22.75 14.4146 22.4142 14.7504 22 14.7504H19Z" fill="#1C274C"/>
<path d="M17.4955 19.3367C17.8063 18.9433 18.0758 18.5157 18.2974 18.0606L20.8354 19.3298C21.2059 19.515 21.3561 19.9655 21.1708 20.336C20.9855 20.7065 20.535 20.8566 20.1646 20.6714L17.4955 19.3367Z" fill="#1C274C"/>
<path d="M5.70259 18.0606C5.92418 18.5157 6.19367 18.9433 6.50449 19.3367L3.83545 20.6714C3.46497 20.8566 3.01446 20.7065 2.8292 20.336C2.64394 19.9655 2.79408 19.515 3.16455 19.3298L5.70259 18.0606Z" fill="#1C274C"/>
<path d="M5 13.2504H2C1.58579 13.2504 1.25 13.5861 1.25 14.0004C1.25 14.4146 1.58579 14.7504 2 14.7504H5V13.2504Z" fill="#1C274C"/>
<path d="M17.3535 8.73509L20.1646 7.32936C20.535 7.1441 20.9855 7.29424 21.1708 7.66472C21.3561 8.03519 21.2059 8.48571 20.8354 8.67097L18.4195 9.87908C18.1437 9.43031 17.7805 9.04106 17.3535 8.73509Z" fill="#1C274C"/>
<path d="M6.64654 8.73509C6.21954 9.04106 5.85627 9.43031 5.58046 9.87908L3.16455 8.67097C2.79408 8.48571 2.64394 8.03519 2.8292 7.66472C3.01446 7.29424 3.46497 7.1441 3.83545 7.32936L6.64654 8.73509Z" fill="#1C274C"/>
<path d="M16.5 8.27065V7.5C16.5 5.01472 14.4853 3 12 3C9.51472 3 7.5 5.01472 7.5 7.5V8.27065C7.94533 8.09593 8.43021 8 8.9375 8H15.0625C15.5698 8 16.0547 8.09593 16.5 8.27065Z" fill="#1C274C"/>
<g opacity="0.5">
<path d="M6.37604 1.58405C6.14628 1.9287 6.23941 2.39435 6.58405 2.62412L8.94366 4.19719C9.34521 3.82543 9.81469 3.52599 10.3314 3.31957L7.4161 1.37604C7.07146 1.14628 6.60581 1.23941 6.37604 1.58405Z" fill="#1C274C"/>
<path d="M15.0564 4.19725C14.6549 3.82548 14.1854 3.52604 13.6687 3.31961L16.5841 1.37604C16.9287 1.14628 17.3944 1.23941 17.6241 1.58405C17.8539 1.9287 17.7608 2.39435 17.4161 2.62412L15.0564 4.19725Z" fill="#1C274C"/>
</g>
<path fill-rule="evenodd" clip-rule="evenodd" d="M12 14.25C12.4142 14.25 12.75 14.5858 12.75 15V22H11.25V15C11.25 14.5858 11.5858 14.25 12 14.25Z" fill="#1C274C"/>
</svg>
