<svg width="24" height="24" viewBox="0 0 24 24" fill="none" xmlns="http://www.w3.org/2000/svg">
<path opacity="0.5" d="M2 12C2 7.28595 2 4.92893 3.46447 3.46447C4.92893 2 7.28595 2 12 2C16.714 2 19.0711 2 20.5355 3.46447C22 4.92893 22 7.28595 22 12C22 16.714 22 19.0711 20.5355 20.5355C19.0711 22 16.714 22 12 22C7.28595 22 4.92893 22 3.46447 20.5355C2 19.0711 2 16.714 2 12Z" fill="#1C274C"/>
<path d="M14.0184 7.36422C14.1256 6.96412 13.8882 6.55287 13.4881 6.44566C13.088 6.33846 12.6767 6.57589 12.5695 6.97599L9.98131 16.6353C9.8741 17.0354 10.1115 17.4466 10.5116 17.5538C10.9117 17.661 11.323 17.4236 11.4302 17.0235L14.0184 7.36422Z" fill="#1C274C"/>
</svg>
