<svg width="24" height="24" viewBox="0 0 24 24" fill="none" xmlns="http://www.w3.org/2000/svg">
<path d="M20.47 10.9172C20.47 10.9172 18.6229 10.3017 16.1603 7.83912C13.6976 5.37649 13.082 3.5293 13.082 3.5293" stroke="#8E93A6" stroke-width="1.5"/>
<path d="M16.6905 8.36945C16.9834 8.07656 16.9834 7.60169 16.6905 7.30879C16.3977 7.0159 15.9228 7.0159 15.6299 7.30879L16.6905 8.36945ZM1.63576 9.03047C1.27368 9.23164 1.14322 9.68824 1.34439 10.0503C1.54555 10.4124 2.00215 10.5429 2.36424 10.3417L1.63576 9.03047ZM13.6576 21.635C13.4565 21.9971 13.5869 22.4537 13.949 22.6548C14.3111 22.856 14.7677 22.7255 14.9688 22.3634L13.6576 21.635ZM4.46967 18.4689C4.17678 18.7618 4.17678 19.2367 4.46967 19.5295C4.76256 19.8224 5.23743 19.8224 5.53033 19.5296L4.46967 18.4689ZM12.7177 2.87368L1.63576 9.03047L2.36424 10.3417L13.4462 4.18491L12.7177 2.87368ZM19.8143 10.5529L13.6576 21.635L14.9688 22.3634L21.1255 11.2814L19.8143 10.5529ZM15.6299 7.30879L4.46967 18.4689L5.53033 19.5296L16.6905 8.36945L15.6299 7.30879Z" fill="#8E93A6"/>
<path d="M13.0818 10.918C15.122 12.9581 18.4297 12.9581 20.4698 10.918C22.5099 8.87785 22.5099 5.57019 20.4698 3.53008C18.4297 1.48997 15.122 1.48997 13.0818 3.53008C11.0417 5.57019 11.0417 8.87785 13.0818 10.918Z" stroke="#1C274C" stroke-width="1.5" stroke-linecap="round"/>
</svg>
