<svg width="24" height="24" viewBox="0 0 24 24" fill="none" xmlns="http://www.w3.org/2000/svg">
<path fill-rule="evenodd" clip-rule="evenodd" d="M12 2.75C10.7574 2.75 9.75 3.75736 9.75 5V5.25988C10.3071 5.24999 10.9183 5.24999 11.5891 5.25H12.4109C13.0817 5.24999 13.6929 5.24999 14.25 5.25988V5C14.25 3.75736 13.2426 2.75 12 2.75ZM15.75 5.32793V5C15.75 2.92893 14.0711 1.25 12 1.25C9.92894 1.25 8.25 2.92893 8.25 5V5.32793C8.10727 5.34021 7.96935 5.35444 7.83607 5.3709C6.8261 5.49569 5.99348 5.75783 5.28619 6.34483C4.5789 6.93183 4.1678 7.70189 3.85903 8.67156C3.55979 9.61128 3.33328 10.8194 3.04854 12.3381L3.02786 12.4484C2.62607 14.5912 2.30942 16.2799 2.25131 17.6112C2.19175 18.9758 2.39477 20.106 3.16454 21.0335C3.93432 21.961 5.00773 22.3689 6.35993 22.5618C7.67914 22.75 9.39725 22.75 11.5774 22.75H12.4226C14.6027 22.75 16.3208 22.75 17.6401 22.5618C18.9923 22.3689 20.0657 21.961 20.8355 21.0335C21.6052 20.106 21.8083 18.9758 21.7487 17.6112C21.6906 16.2799 21.3739 14.5912 20.9721 12.4484L20.9515 12.3381C20.6667 10.8194 20.4402 9.61129 20.141 8.67156C19.8322 7.70189 19.4211 6.93183 18.7138 6.34483C18.0065 5.75783 17.1739 5.49569 16.1639 5.3709C16.0307 5.35444 15.8927 5.34021 15.75 5.32793ZM8.02 6.85959C7.16446 6.96529 6.64775 7.16413 6.24414 7.49909C5.84054 7.83406 5.54988 8.30528 5.28831 9.12669C5.02045 9.96788 4.8097 11.0846 4.51359 12.6639C4.09787 14.8811 3.80278 16.4647 3.74989 17.6766C3.69789 18.8679 3.88896 19.5576 4.3188 20.0756C4.74865 20.5935 5.3914 20.9084 6.57181 21.0768C7.77272 21.2482 9.3836 21.25 11.6394 21.25H12.3606C14.6164 21.25 16.2273 21.2482 17.4282 21.0768C18.6086 20.9084 19.2514 20.5935 19.6812 20.0756C20.111 19.5576 20.3021 18.8679 20.2501 17.6766C20.1972 16.4647 19.9021 14.8811 19.4864 12.6639C19.1903 11.0846 18.9796 9.96788 18.7117 9.12669C18.4501 8.30528 18.1595 7.83406 17.7559 7.49909C17.3523 7.16413 16.8355 6.96529 15.98 6.85959C15.1039 6.75133 13.9674 6.75 12.3606 6.75H11.6394C10.0326 6.75 8.89615 6.75133 8.02 6.85959Z" fill="#1C274C"/>
</svg>
