<svg width="24" height="24" viewBox="0 0 24 24" fill="none" xmlns="http://www.w3.org/2000/svg">
<path d="M7.25001 9.0002C7.25001 8.58599 7.58579 8.2502 8.00001 8.2502H11C11.4142 8.2502 11.75 8.58599 11.75 9.0002C11.75 9.41442 11.4142 9.7502 11 9.7502H8.00001C7.58579 9.7502 7.25001 9.41442 7.25001 9.0002Z" fill="#1C274C"/>
<path fill-rule="evenodd" clip-rule="evenodd" d="M1.28849 2.76303C1.41948 2.37008 1.84422 2.15771 2.23718 2.28869L2.54156 2.39015C3.16793 2.59892 3.69726 2.77534 4.1135 2.96898C4.55593 3.1748 4.93983 3.42989 5.23092 3.83377C5.52202 4.23764 5.64262 4.6825 5.69798 5.16732C5.70109 5.19459 5.70401 5.22221 5.70677 5.2502L16.5108 5.2502C17.4868 5.25016 18.3032 5.25013 18.9276 5.34257C19.5791 5.43901 20.2074 5.66069 20.6036 6.2616C20.9998 6.8625 20.9561 7.52731 20.7881 8.16406C20.6271 8.77441 20.3055 9.52483 19.921 10.4218L19.4542 11.5111C19.2776 11.9232 19.1222 12.2857 18.9608 12.5727C18.786 12.8834 18.5726 13.1656 18.2495 13.3786C17.9264 13.5916 17.583 13.6766 17.2286 13.7149C16.9012 13.7503 16.5068 13.7502 16.0585 13.7502H6.15358C6.22738 13.8842 6.31232 13.9945 6.40902 14.0912C6.68578 14.368 7.07435 14.5484 7.80813 14.6471C8.56348 14.7486 9.56459 14.7502 11 14.7502H19C19.4142 14.7502 19.75 15.086 19.75 15.5002C19.75 15.9144 19.4142 16.2502 19 16.2502H10.9451C9.57756 16.2502 8.47521 16.2502 7.60825 16.1337C6.70815 16.0127 5.95027 15.7538 5.34835 15.1519C4.74644 14.5499 4.48754 13.7921 4.36653 12.892C4.24997 12.025 4.24998 10.9227 4.25 9.55508L4.25001 6.88324C4.25001 6.17024 4.24887 5.69848 4.20766 5.33747C4.16863 4.99562 4.10048 4.83074 4.01406 4.71083C3.92764 4.59093 3.79276 4.47414 3.4808 4.32901C3.15135 4.17575 2.70415 4.02549 2.02775 3.80002L1.76283 3.71172C1.36988 3.58073 1.15751 3.15599 1.28849 2.76303ZM5.80673 12.2502H16.0218C16.5177 12.2502 16.8303 12.2492 17.0676 12.2236C17.2868 12.1999 17.3712 12.161 17.4238 12.1263C17.4764 12.0916 17.5453 12.0294 17.6535 11.8373C17.7705 11.6292 17.8946 11.3423 18.0899 10.8865L18.5185 9.88652C18.933 8.91932 19.2085 8.27152 19.3377 7.78145C19.4634 7.30522 19.3997 7.16069 19.3513 7.08734C19.303 7.01398 19.1952 6.89853 18.708 6.8264C18.2066 6.75218 17.5027 6.7502 16.4504 6.7502H5.75C5.75001 6.78044 5.75001 6.81091 5.75001 6.84159L5.75001 9.5002C5.75001 10.6722 5.75107 11.5546 5.80673 12.2502Z" fill="#1C274C"/>
<path fill-rule="evenodd" clip-rule="evenodd" d="M7.50001 21.7502C6.25736 21.7502 5.25001 20.7428 5.25001 19.5002C5.25001 18.2576 6.25736 17.2502 7.50001 17.2502C8.74265 17.2502 9.75 18.2576 9.75 19.5002C9.75 20.7428 8.74265 21.7502 7.50001 21.7502ZM6.75001 19.5002C6.75001 19.9144 7.08579 20.2502 7.50001 20.2502C7.91422 20.2502 8.25001 19.9144 8.25001 19.5002C8.25001 19.086 7.91422 18.7502 7.50001 18.7502C7.08579 18.7502 6.75001 19.086 6.75001 19.5002Z" fill="#1C274C"/>
<path fill-rule="evenodd" clip-rule="evenodd" d="M14.25 19.5003C14.25 20.7429 15.2574 21.7503 16.5 21.7503C17.7426 21.7503 18.75 20.7429 18.75 19.5003C18.75 18.2576 17.7426 17.2503 16.5 17.2503C15.2574 17.2503 14.25 18.2576 14.25 19.5003ZM16.5 20.2503C16.0858 20.2503 15.75 19.9145 15.75 19.5003C15.75 19.0861 16.0858 18.7503 16.5 18.7503C16.9142 18.7503 17.25 19.0861 17.25 19.5003C17.25 19.9145 16.9142 20.2503 16.5 20.2503Z" fill="#1C274C"/>
</svg>
