<svg width="24" height="24" viewBox="0 0 24 24" fill="none" xmlns="http://www.w3.org/2000/svg">
<path opacity="0.5" d="M17 14.5C17 18.6421 13.6421 22 9.5 22C5.35786 22 2 18.6421 2 14.5C2 10.3579 5.35786 7 9.5 7C13.6421 7 17 10.3579 17 14.5Z" fill="#1C274C"/>
<path d="M16.6707 3.16475C16.4855 2.79427 16.035 2.6441 15.6645 2.82934C15.294 3.01459 15.1438 3.46509 15.3291 3.83557L15.8291 4.83557C16.0143 5.20606 16.4648 5.35623 16.8353 5.17098C17.2058 4.98574 17.356 4.53524 17.1707 4.16475L16.6707 3.16475Z" fill="#1C274C"/>
<path d="M19.8353 6.82934C19.4648 6.6441 19.0143 6.79427 18.8291 7.16475C18.6438 7.53524 18.794 7.98574 19.1645 8.17098L20.1645 8.67098C20.535 8.85623 20.9855 8.70606 21.1707 8.33557C21.356 7.96509 21.2058 7.51459 20.8353 7.32934L19.8353 6.82934Z" fill="#1C274C"/>
<path d="M20.5302 4.53049C20.8231 4.2376 20.8231 3.76273 20.5302 3.46983C20.2373 3.17694 19.7625 3.17694 19.4696 3.46983L18.4696 4.46983C18.1767 4.76273 18.1767 5.2376 18.4696 5.53049C18.7625 5.82339 19.2373 5.82339 19.5302 5.53049L20.5302 4.53049Z" fill="#1C274C"/>
<path d="M15.307 9.75359L17.5301 7.53049C17.823 7.2376 17.823 6.76273 17.5301 6.46983C17.2372 6.17694 16.7623 6.17694 16.4695 6.46983L14.2463 8.69295C14.6342 9.01032 14.9896 9.36577 15.307 9.75359Z" fill="#1C274C"/>
</svg>
