<svg width="24" height="24" viewBox="0 0 24 24" fill="none" xmlns="http://www.w3.org/2000/svg">
<path fill-rule="evenodd" clip-rule="evenodd" d="M4.2915 15.3036L8.69636 19.7085L9.06343 20.0756L9.79757 20.8097C10.4837 21.4959 10.8268 21.8389 11.2299 21.9469C11.4939 22.0177 11.7719 22.0177 12.036 21.9469C12.4391 21.8389 12.7821 21.4959 13.4683 20.8097C14.1544 20.1236 14.4975 19.7805 14.6055 19.3774C14.6763 19.1134 14.6763 18.8353 14.6055 18.5713C14.4975 18.1682 14.1544 17.8251 13.4683 17.139L12.3671 16.0378L7.96221 11.6329L6.861 10.5317C6.17486 9.84557 5.83179 9.5025 5.42871 9.3945C5.16466 9.32374 4.88662 9.32374 4.62257 9.3945C4.21949 9.5025 3.87642 9.84557 3.19028 10.5317C2.50414 11.2179 2.16107 11.5609 2.05306 11.964C1.98231 12.2281 1.98231 12.5061 2.05306 12.7701C2.16107 13.1732 2.50414 13.5163 3.19028 14.2024L4.2915 15.3036ZM16.0378 12.3671L11.6329 7.96221L10.5317 6.861C9.84557 6.17486 9.5025 5.83178 9.3945 5.42871C9.32374 5.16465 9.32374 4.88662 9.3945 4.62257C9.5025 4.21949 9.84557 3.87642 10.5317 3.19028C11.2179 2.50414 11.5609 2.16107 11.964 2.05307C12.2281 1.98231 12.5061 1.98231 12.7701 2.05307C13.1732 2.16107 13.5163 2.50414 14.2024 3.19028L15.3036 4.2915L19.7046 8.70027L20.0756 9.06343L20.8097 9.79757C21.4959 10.4837 21.8389 10.8268 21.9469 11.2299C22.0177 11.4939 22.0177 11.7719 21.9469 12.036C21.8389 12.4391 21.4959 12.7821 20.8097 13.4683C20.1236 14.1544 19.7805 14.4975 19.3774 14.6055C19.1134 14.6763 18.8353 14.6763 18.5713 14.6055C18.1682 14.4975 17.8251 14.1544 17.139 13.4683L16.0378 12.3671Z" fill="#1C274C"/>
<path opacity="0.5" d="M18.6077 3.92495L20.076 5.39324L20.2017 5.51907C20.8101 6.12899 21.1143 6.45835 21.1143 6.86153C21.1143 7.29158 20.7682 7.63766 20.076 8.32981L19.705 8.7008L15.3041 4.29203L15.6712 3.92495C16.3633 3.2328 16.7094 2.88672 17.1394 2.88672C17.5695 2.88672 17.9156 3.2328 18.6077 3.92495Z" fill="#1C274C"/>
<path opacity="0.5" d="M5.39264 20.0766L3.92436 18.6083C3.2322 17.9162 2.88612 17.5701 2.88612 17.14C2.88612 16.71 3.2322 16.3639 3.92436 15.6718L4.29143 15.3047L8.69629 19.7095L8.32922 20.0766C7.63706 20.7688 7.29098 21.1149 6.86093 21.1149C6.43088 21.1149 6.0848 20.7688 5.39264 20.0766Z" fill="#1C274C"/>
<path opacity="0.5" d="M16.0376 12.3658L12.3669 16.0365L7.96202 11.6317L11.6327 7.96094L16.0376 12.3658Z" fill="#1C274C"/>
</svg>
