<svg width="24" height="24" viewBox="0 0 24 24" fill="none" xmlns="http://www.w3.org/2000/svg">
<path opacity="0.5" d="M13.4573 2.10938C10.5739 2.38678 7.50954 3.25146 5.38075 5.38026C3.25195 7.50905 2.38727 10.5734 2.10986 13.4568L10.5429 21.8899C13.4263 21.6124 16.4907 20.7478 18.6195 18.619C20.7483 16.4902 21.6129 13.4259 21.8903 10.5424L13.4573 2.10938Z" fill="#1C274C"/>
<path d="M18.0686 2.08725C16.7367 1.98542 15.1273 1.94909 13.4572 2.10976L21.8902 10.5428C22.0509 8.87269 22.0146 7.26327 21.9127 5.93144C21.7537 3.85169 20.1483 2.24627 18.0686 2.08725Z" fill="#1C274C"/>
<path d="M5.93144 21.9127C7.26327 22.0146 8.87269 22.0509 10.5428 21.8902L2.10976 13.4572C1.94909 15.1273 1.98542 16.7367 2.08725 18.0686C2.24627 20.1483 3.85169 21.7537 5.93144 21.9127Z" fill="#1C274C"/>
<path fill-rule="evenodd" clip-rule="evenodd" d="M11.9426 8.16108C12.2355 7.86818 12.7104 7.86818 13.0032 8.16108L13.8914 9.04918L14.7795 8.16108C15.0724 7.86818 15.5472 7.86818 15.8401 8.16108C16.133 8.45397 16.133 8.92884 15.8401 9.22174L14.952 10.1098L15.8401 10.9979C16.133 11.2908 16.133 11.7657 15.8401 12.0586C15.5472 12.3515 15.0724 12.3515 14.7795 12.0586L13.8914 11.1705L13.0608 12.0011L13.9489 12.8892C14.2418 13.1821 14.2418 13.657 13.9489 13.9498C13.656 14.2427 13.1811 14.2427 12.8882 13.9498L12.0001 13.0617L11.1695 13.8923L12.0576 14.7804C12.3505 15.0733 12.3505 15.5482 12.0576 15.8411C11.7647 16.134 11.2899 16.134 10.997 15.8411L10.1089 14.953L9.22076 15.8411C8.92787 16.134 8.45299 16.134 8.1601 15.8411C7.86721 15.5482 7.86721 15.0733 8.1601 14.7804L9.0482 13.8923L8.1601 13.0042C7.86721 12.7113 7.86721 12.2365 8.1601 11.9436C8.45299 11.6507 8.92787 11.6507 9.22076 11.9436L10.1089 12.8317L10.9394 12.0011L10.0513 11.113C9.75845 10.8201 9.75845 10.3452 10.0513 10.0523C10.3442 9.75943 10.8191 9.75943 11.112 10.0523L12.0001 10.9404L12.8307 10.1098L11.9426 9.22174C11.6497 8.92884 11.6497 8.45397 11.9426 8.16108Z" fill="#1C274C"/>
</svg>
