<svg width="24" height="24" viewBox="0 0 24 24" fill="none" xmlns="http://www.w3.org/2000/svg">
<path d="M13.1959 2.07088C11.1208 1.81935 8.94969 2.21386 7.00008 3.33946C5.14622 4.40979 3.76471 5.98408 2.92871 7.78938C3.94512 8.51122 6.56318 10.5831 8.53601 14.0001C8.69226 14.2708 8.83784 14.5385 8.97347 14.8028C9.09981 15.0489 9.21752 15.2919 9.32719 15.5313C9.4307 15.7573 9.52704 15.98 9.61671 16.199C9.70467 16.4138 9.78621 16.625 9.86178 16.8322C10.9301 19.761 10.8071 21.8831 10.8043 21.929C12.2386 22.1028 13.7187 21.9677 15.1398 21.4962C15.2278 21.467 15.3156 21.4365 15.4031 21.4047C15.6118 21.3289 15.819 21.2458 16.0245 21.1551C16.1073 21.1186 16.1898 21.0809 16.272 21.0419C16.5177 20.9255 16.7605 20.7983 17.0001 20.66C18.9497 19.5344 20.3769 17.8514 21.1966 15.9286C21.1966 15.9286 17.9642 14.3303 15.4642 10.0001C12.9642 5.67 13.1959 2.07088 13.1959 2.07088Z" fill="#1C274C"/>
<g opacity="0.5">
<path d="M3.83026 17.7667L3.87336 17.8274C4.0828 18.1202 4.30583 18.3987 4.54109 18.6626C4.82414 18.9801 5.12486 19.2765 5.44089 19.551C5.52558 19.6246 5.61137 19.6966 5.69821 19.767C7.17265 20.9627 8.95022 21.7036 10.8044 21.9284C10.8078 21.8728 10.9276 19.7535 9.86191 16.8316C9.78633 16.6244 9.70479 16.4132 9.61683 16.1984C9.52717 15.9794 9.43082 15.7567 9.32731 15.5307C9.21765 15.2914 9.09993 15.0483 8.97359 14.8022C8.83796 14.538 8.69238 14.2702 8.53613 13.9996C6.5633 10.5825 3.94524 8.51065 2.92883 7.78881C1.60797 10.6411 1.64886 14.0701 3.33995 16.9992C3.49331 17.2648 3.65701 17.5207 3.83026 17.7667Z" fill="#1C274C"/>
<path d="M20.6605 6.99915C19.0246 4.16583 16.2117 2.43585 13.196 2.07031C13.196 2.07031 12.9643 5.66943 15.4643 9.99956C17.9643 14.3297 21.1967 15.928 21.1967 15.928C22.388 13.1336 22.2963 9.83247 20.6605 6.99915Z" fill="#1C274C"/>
</g>
</svg>
