<svg width="24" height="24" viewBox="0 0 24 24" fill="none" xmlns="http://www.w3.org/2000/svg">
<path d="M3 17L4.20414 18.3379C4.58342 18.7594 5.12375 19 5.69073 19H18.3093C18.8762 19 19.4166 18.7594 19.7959 18.3379L21 17" stroke="#1C274C" stroke-width="1.5" stroke-linecap="round" stroke-linejoin="round"/>
<circle opacity="0.5" cx="7" cy="21" r="1" fill="#1C274C"/>
<circle opacity="0.5" cx="17" cy="21" r="1" fill="#1C274C"/>
<circle cx="19" cy="4" r="2" stroke="#1C274C" stroke-width="1.5"/>
<path d="M15 16.4995V15.2486C15 15.1647 15 15.1228 14.999 15.0833C14.9732 14.1052 14.4721 13.2011 13.6563 12.6609C13.6234 12.6391 13.5842 12.6146 13.5057 12.5655C13.4089 12.505 13.3604 12.4747 13.3291 12.4535C12.241 11.7148 12.1498 10.1451 13.145 9.28533C13.1735 9.26062 13.2125 9.22947 13.2903 9.16721L13.7358 8.81079C14.7607 7.99089 14.5413 6.37429 13.3349 5.85727C12.8119 5.63313 12.2123 5.6793 11.7297 5.98088L8.5 7.99946" stroke="#1C274C" stroke-width="1.5" stroke-linecap="round"/>
<path opacity="0.5" d="M7 15.5H7.37868C8.73694 15.5 10.0396 14.9604 11 14" stroke="#1C274C" stroke-width="1.5" stroke-linecap="round"/>
<path opacity="0.5" d="M16.5 10C17.8131 10.3283 19.1869 10.3283 20.5 10" stroke="#1C274C" stroke-width="1.5" stroke-linecap="round"/>
</svg>
