<svg width="24" height="24" viewBox="0 0 24 24" fill="none" xmlns="http://www.w3.org/2000/svg">
<path fill-rule="evenodd" clip-rule="evenodd" d="M10.7063 1.25004C9.61851 1.24952 8.86256 1.24916 8.17118 1.53554C7.47981 1.82192 6.94552 2.35671 6.17672 3.12625L3.12613 6.17684C2.35659 6.94565 1.8218 7.47993 1.53542 8.1713C1.24904 8.86268 1.2494 9.61863 1.24992 10.7064V13.2938C1.2494 14.3815 1.24904 15.1375 1.53542 15.8289C1.82179 16.5202 2.35659 17.0545 3.12612 17.8233L6.17671 20.8739C6.94552 21.6435 7.4798 22.1783 8.17118 22.4646C8.86256 22.751 9.61851 22.7507 10.7063 22.7501H13.2937C14.3814 22.7507 15.1374 22.751 15.8288 22.4646C16.5201 22.1783 17.0544 21.6435 17.8232 20.874L20.8738 17.8233C21.6433 17.0545 22.1781 16.5202 22.4645 15.8289C22.7509 15.1375 22.7505 14.3815 22.75 13.2938V10.7064C22.7505 9.61863 22.7509 8.86268 22.4645 8.1713C22.1781 7.47993 21.6433 6.94564 20.8738 6.17684L17.8232 3.12624C17.0544 2.35671 16.5201 1.82192 15.8288 1.53554C15.1374 1.24916 14.3814 1.24952 13.2937 1.25004H10.7063ZM8.74521 2.92136C9.12664 2.76336 9.56144 2.75009 10.8489 2.75009H13.151C14.4385 2.75009 14.8733 2.76336 15.2547 2.92136C15.6362 3.07936 15.953 3.37742 16.8634 4.28778L17.7575 5.18191L5.18168 17.7575L4.28766 16.8635C3.37729 15.9531 3.07923 15.6363 2.92124 15.2548C2.76324 14.8734 2.74997 14.4386 2.74997 13.1512V10.849C2.74997 9.56156 2.76324 9.12676 2.92124 8.74533C3.07923 8.36389 3.37729 8.04706 4.28766 7.1367L7.13657 4.28778C8.04694 3.37742 8.36377 3.07936 8.74521 2.92136ZM6.24234 18.8182L7.13657 19.7124C8.04694 20.6228 8.36377 20.9208 8.74521 21.0788C9.12664 21.2368 9.56144 21.2501 10.8489 21.2501H13.151C14.4385 21.2501 14.8733 21.2368 15.2547 21.0788C15.6362 20.9208 15.953 20.6228 16.8634 19.7124L19.7123 16.8635C20.6226 15.9531 20.9207 15.6363 21.0787 15.2548C21.2367 14.8734 21.25 14.4386 21.25 13.1512V10.849C21.25 9.56156 21.2367 9.12676 21.0787 8.74533C20.9207 8.36389 20.6226 8.04706 19.7123 7.1367L18.8181 6.24257L6.24234 18.8182Z" fill="#1C274C"/>
</svg>
