<svg width="24" height="24" viewBox="0 0 24 24" fill="none" xmlns="http://www.w3.org/2000/svg">
<path fill-rule="evenodd" clip-rule="evenodd" d="M22.75 8C22.75 8.41421 22.4142 8.75 22 8.75H17C16.5858 8.75 16.25 8.41421 16.25 8C16.25 7.58579 16.5858 7.25 17 7.25L22 7.25C22.4142 7.25 22.75 7.58579 22.75 8Z" fill="#1C274C"/>
<path fill-rule="evenodd" clip-rule="evenodd" d="M22.75 12.5C22.75 12.9142 22.4142 13.25 22 13.25H18C17.5858 13.25 17.25 12.9142 17.25 12.5C17.25 12.0858 17.5858 11.75 18 11.75H22C22.4142 11.75 22.75 12.0858 22.75 12.5Z" fill="#1C274C"/>
<path fill-rule="evenodd" clip-rule="evenodd" d="M13.7606 7.29175L14.1967 7.72786C14.9321 8.46324 15.5321 9.06314 15.9423 9.58466C16.3623 10.1187 16.6765 10.6825 16.676 11.3484C16.6757 11.721 16.5997 12.0895 16.4526 12.4318C16.1898 13.0436 15.6781 13.4373 15.0812 13.7616C14.4981 14.0783 13.7099 14.392 12.7436 14.7766L12.5522 14.8527C11.94 15.0964 11.7792 15.1684 11.6558 15.2662C11.5468 15.3525 11.453 15.4565 11.3782 15.5737C11.2935 15.7065 11.2383 15.8738 11.0584 16.5077L11.0486 16.5423C10.9271 16.9702 10.8214 17.343 10.7084 17.6313C10.5935 17.9248 10.4271 18.2538 10.1138 18.4835C9.75364 18.7476 9.30612 18.864 8.86292 18.8088C8.47737 18.7608 8.17186 18.5546 7.92851 18.3543C7.68939 18.1575 7.41543 17.8835 7.10088 17.5689L6.04047 16.5085L3.87713 18.6718C3.58424 18.9647 3.10936 18.9647 2.81647 18.6718C2.52358 18.379 2.52358 17.9041 2.81647 17.6112L4.97981 15.4478L3.9196 14.3876C3.605 14.0731 3.33101 13.7991 3.1342 13.56C2.93391 13.3166 2.72766 13.0111 2.67968 12.6256C2.62452 12.1824 2.7409 11.7348 3.00499 11.3747C3.23472 11.0613 3.56368 10.895 3.85714 10.7801C4.14551 10.6671 4.51825 10.5614 4.94623 10.4399L4.98078 10.4301C5.6147 10.2502 5.78196 10.195 5.91474 10.1103C6.03199 10.0355 6.13594 9.94169 6.22231 9.83268C6.32011 9.70923 6.39207 9.54848 6.63574 8.93623L6.71188 8.74492C7.09644 7.77862 7.41015 6.99036 7.72689 6.40732C8.05122 5.81034 8.44484 5.29873 9.05667 5.03585C9.39894 4.88879 9.76752 4.8128 10.14 4.8125C10.806 4.81196 11.3698 5.12617 11.9038 5.54621C12.4253 5.95642 13.0252 6.55635 13.7606 7.29175ZM8.13613 16.4828L6.5795 14.9262L6.57087 14.9174L6.56211 14.9088L5.00564 13.3524C4.65823 13.0049 4.43721 12.7827 4.29237 12.6068C4.20313 12.4983 4.17446 12.4436 4.16694 12.4275C4.16295 12.3727 4.17716 12.3181 4.20735 12.2722C4.22176 12.2618 4.27344 12.228 4.4042 12.1768C4.61641 12.0936 4.91769 12.0073 5.39033 11.8731L5.47835 11.8482C5.9825 11.7055 6.37926 11.5932 6.72138 11.375C6.97934 11.2104 7.20803 11.004 7.39803 10.7642C7.65003 10.4461 7.80223 10.0629 7.99563 9.57592L8.08733 9.3454C8.49458 8.32214 8.7761 7.61825 9.04494 7.12338C9.3112 6.63327 9.49862 6.47855 9.64882 6.41402C9.80439 6.34718 9.97193 6.31264 10.1413 6.3125C10.3047 6.31237 10.5381 6.38034 10.9764 6.72518C11.4191 7.07337 11.9561 7.60852 12.7348 8.38728L13.1012 8.75366C13.88 9.53242 14.4151 10.0694 14.7633 10.512C15.1081 10.9504 15.1761 11.1838 15.176 11.3472C15.1758 11.5166 15.1413 11.6841 15.0745 11.8397C15.0099 11.9899 14.8552 12.1773 14.3651 12.4435C13.8702 12.7124 13.1663 12.9939 12.1431 13.4012L11.9126 13.4929C11.4256 13.6862 11.0424 13.8385 10.7243 14.0905C10.4845 14.2805 10.2781 14.5091 10.1135 14.7671C9.89531 15.1092 9.78301 15.506 9.64031 16.0101L9.61537 16.0982C9.48123 16.5708 9.39484 16.8721 9.31172 17.0843C9.26051 17.215 9.22673 17.2667 9.21633 17.2811C9.17039 17.3113 9.11577 17.3255 9.06094 17.3215C9.04484 17.314 8.99016 17.2854 8.88173 17.1961C8.70576 17.0513 8.48354 16.8303 8.13613 16.4828Z" fill="#1C274C"/>
<path d="M22 17.7495C22.4142 17.7495 22.75 17.4137 22.75 16.9995C22.75 16.5853 22.4142 16.2495 22 16.2495H13C12.5858 16.2495 12.25 16.5853 12.25 16.9995C12.25 17.4137 12.5858 17.7495 13 17.7495H22Z" fill="#1C274C"/>
</svg>
