<svg width="24" height="24" viewBox="0 0 24 24" fill="none" xmlns="http://www.w3.org/2000/svg">
<path fill-rule="evenodd" clip-rule="evenodd" d="M5.11677 7.7517C5.53007 7.72415 5.88744 8.03685 5.915 8.45015L6.37494 15.3493C6.4648 16.6971 6.52882 17.6349 6.66939 18.3406C6.80574 19.025 6.99607 19.3873 7.26949 19.6431C7.5429 19.8989 7.91706 20.0647 8.60906 20.1552C9.32246 20.2485 10.2625 20.25 11.6133 20.25H12.3867C13.7375 20.25 14.6775 20.2485 15.3909 20.1552C16.0829 20.0647 16.4571 19.8989 16.7305 19.6431C17.0039 19.3873 17.1942 19.025 17.3306 18.3406C17.4712 17.6349 17.5352 16.6971 17.625 15.3493L18.085 8.45015C18.1125 8.03685 18.4699 7.72415 18.8832 7.7517C19.2965 7.77925 19.6092 8.13663 19.5817 8.54993L19.1182 15.5017C19.0327 16.7844 18.9637 17.8206 18.8017 18.6336C18.6333 19.4789 18.3469 20.185 17.7553 20.7385C17.1637 21.2919 16.4401 21.5308 15.5855 21.6425C14.7634 21.7501 13.725 21.7501 12.4394 21.75H11.5606C10.275 21.7501 9.23654 21.7501 8.41451 21.6425C7.55985 21.5308 6.83631 21.2919 6.24471 20.7385C5.65312 20.185 5.3667 19.4789 5.1983 18.6336C5.03632 17.8205 4.96727 16.7844 4.88177 15.5017L4.41832 8.54993C4.39077 8.13663 4.70347 7.77925 5.11677 7.7517Z" fill="#1C274C"/>
<path fill-rule="evenodd" clip-rule="evenodd" d="M10.3553 2.25004L10.3093 2.25002C10.0929 2.24988 9.90436 2.24976 9.72634 2.27819C9.02304 2.39049 8.41444 2.82915 8.08549 3.46084C8.00223 3.62074 7.94272 3.79964 7.87443 4.00496L7.85991 4.04858L7.76282 4.33984C7.74383 4.39681 7.73854 4.41251 7.73393 4.42524C7.55881 4.90936 7.10479 5.23659 6.59014 5.24964C6.57661 5.24998 6.56004 5.25004 6.49999 5.25004H3.49991C3.08569 5.25004 2.74991 5.58582 2.74991 6.00004C2.74991 6.41425 3.08569 6.75004 3.49991 6.75004L6.50856 6.75004L6.5253 6.75004H17.4747L17.4914 6.75004L20.5 6.75004C20.9142 6.75004 21.25 6.41425 21.25 6.00004C21.25 5.58582 20.9142 5.25004 20.5 5.25004H17.5C17.4399 5.25004 17.4234 5.24998 17.4098 5.24964C16.8952 5.23659 16.4412 4.90933 16.266 4.42522C16.2615 4.41258 16.2561 4.39653 16.2372 4.33984L16.1401 4.04858L16.1256 4.00494C16.0573 3.79961 15.9978 3.62073 15.9145 3.46084C15.5855 2.82915 14.9769 2.39049 14.2736 2.27819C14.0956 2.24976 13.9071 2.24988 13.6907 2.25002L13.6447 2.25004H10.3553ZM9.14448 4.93548C9.10521 5.04404 9.05957 5.14902 9.00806 5.25004H14.9919C14.9404 5.14902 14.8948 5.04405 14.8555 4.9355L14.8168 4.82216L14.7171 4.52292C14.6259 4.2494 14.6049 4.19363 14.5841 4.15364C14.4744 3.94307 14.2716 3.79686 14.0371 3.75942C13.9926 3.75231 13.933 3.75004 13.6447 3.75004H10.3553C10.0669 3.75004 10.0074 3.75231 9.96287 3.75942C9.72843 3.79686 9.52557 3.94307 9.41592 4.15364C9.39509 4.19363 9.3741 4.24942 9.28293 4.52292L9.18313 4.82234C9.1681 4.86742 9.15641 4.90251 9.14448 4.93548Z" fill="#1C274C"/>
</svg>
