<svg width="24" height="24" viewBox="0 0 24 24" fill="none" xmlns="http://www.w3.org/2000/svg">
<path fill-rule="evenodd" clip-rule="evenodd" d="M10.3093 2.25002H13.6907C13.9071 2.24988 14.0956 2.24976 14.2736 2.27819C14.9769 2.39049 15.5855 2.82915 15.9145 3.46084C15.9978 3.62073 16.0573 3.79961 16.1256 4.00494L16.2372 4.33984C16.2561 4.39653 16.2615 4.41258 16.266 4.42522C16.4412 4.90933 16.8952 5.23659 17.4098 5.24964C17.4234 5.24998 17.4399 5.25004 17.5 5.25004H20.5C20.9142 5.25004 21.25 5.58582 21.25 6.00004C21.25 6.41425 20.9142 6.75004 20.5 6.75004H3.49991C3.08569 6.75004 2.74991 6.41425 2.74991 6.00004C2.74991 5.58582 3.08569 5.25004 3.49991 5.25004H6.49999C6.56004 5.25004 6.57661 5.24998 6.59014 5.24964C7.10479 5.23659 7.55881 4.90936 7.73393 4.42524C7.73854 4.41251 7.74383 4.39681 7.76282 4.33984L7.87443 4.00496C7.94272 3.79964 8.00223 3.62073 8.08549 3.46084C8.41444 2.82915 9.02304 2.39049 9.72634 2.27819C9.90436 2.24976 10.0929 2.24988 10.3093 2.25002ZM9.00806 5.25004C9.05957 5.14902 9.10521 5.04404 9.14448 4.93548C9.15641 4.90251 9.1681 4.86742 9.18313 4.82234L9.28293 4.52292C9.3741 4.24941 9.39509 4.19363 9.41592 4.15364C9.52557 3.94307 9.72843 3.79686 9.96287 3.75942C10.0074 3.75231 10.0669 3.75004 10.3553 3.75004H13.6447C13.933 3.75004 13.9926 3.75231 14.0371 3.75942C14.2716 3.79686 14.4744 3.94307 14.5841 4.15364C14.6049 4.19363 14.6259 4.2494 14.7171 4.52292L14.8168 4.82216L14.8555 4.9355C14.8948 5.04405 14.9404 5.14902 14.9919 5.25004H9.00806Z" fill="#1C274C"/>
<path d="M5.915 8.45015C5.88744 8.03685 5.53007 7.72415 5.11677 7.7517C4.70347 7.77925 4.39077 8.13663 4.41832 8.54993L4.88177 15.5017C4.96726 16.7844 5.03633 17.8205 5.1983 18.6336C5.3667 19.4789 5.65312 20.185 6.24471 20.7385C6.83631 21.2919 7.55985 21.5308 8.41451 21.6425C9.23653 21.7501 10.275 21.7501 11.5605 21.75H12.4394C13.725 21.7501 14.7635 21.7501 15.5855 21.6425C16.4401 21.5308 17.1637 21.2919 17.7553 20.7385C18.3469 20.185 18.6333 19.4789 18.8017 18.6336C18.9637 17.8206 19.0327 16.7844 19.1182 15.5017L19.5817 8.54993C19.6092 8.13663 19.2965 7.77925 18.8832 7.7517C18.4699 7.72415 18.1125 8.03685 18.085 8.45015L17.625 15.3493C17.5352 16.6971 17.4712 17.6349 17.3306 18.3406C17.1942 19.025 17.0039 19.3873 16.7305 19.6431C16.4571 19.8989 16.0829 20.0647 15.3909 20.1552C14.6775 20.2485 13.7375 20.25 12.3867 20.25H11.6133C10.2625 20.25 9.32246 20.2485 8.60906 20.1552C7.91706 20.0647 7.5429 19.8989 7.26949 19.6431C6.99607 19.3873 6.80574 19.025 6.66939 18.3406C6.52882 17.6349 6.4648 16.6971 6.37494 15.3493L5.915 8.45015Z" fill="#1C274C"/>
<path d="M9.42537 10.2538C9.83753 10.2125 10.2051 10.5133 10.2463 10.9254L10.7463 15.9254C10.7875 16.3376 10.4868 16.7051 10.0746 16.7463C9.66247 16.7875 9.29494 16.4868 9.25372 16.0747L8.75372 11.0747C8.71251 10.6625 9.01321 10.295 9.42537 10.2538Z" fill="#1C274C"/>
<path d="M14.5746 10.2538C14.9868 10.295 15.2875 10.6625 15.2463 11.0747L14.7463 16.0747C14.7051 16.4868 14.3375 16.7875 13.9254 16.7463C13.5132 16.7051 13.2125 16.3376 13.2537 15.9254L13.7537 10.9254C13.7949 10.5133 14.1625 10.2125 14.5746 10.2538Z" fill="#1C274C"/>
</svg>
