<svg width="24" height="24" viewBox="0 0 24 24" fill="none" xmlns="http://www.w3.org/2000/svg">
<path opacity="0.5" d="M3.99057 13.6019C1.33648 10.9478 1.33648 6.64466 3.99057 3.99057C6.64466 1.33648 10.9478 1.33648 13.6019 3.99057L20.0094 10.3981C22.6635 13.0522 22.6635 17.3553 20.0094 20.0094C17.3553 22.6635 13.0522 22.6635 10.3981 20.0094L3.99057 13.6019Z" fill="#1C274C"/>
<path d="M7.80741 17.4185L6.55396 16.165L7.04948 16.0696C7.04917 16.0696 7.04954 16.0696 7.05047 16.0694L7.06433 16.0664C7.0787 16.0632 7.1033 16.0575 7.13752 16.0489C7.20597 16.0316 7.31285 16.0025 7.45344 15.9576C7.73463 15.8678 8.15038 15.7151 8.6629 15.4681C9.68707 14.9745 11.1005 14.1035 12.6018 12.6021C14.1032 11.1008 14.9743 9.68725 15.468 8.66293C15.7151 8.15034 15.8679 7.73453 15.9577 7.45328C16.0027 7.31267 16.0318 7.20575 16.0491 7.13729C16.0577 7.10306 16.0634 7.07846 16.0666 7.06407L16.0696 7.05024C16.0698 7.04933 16.0698 7.0489 16.0698 7.04921L16.1653 6.55371L17.4187 7.80709C17.4087 7.83975 17.398 7.87396 17.3866 7.90968C17.2772 8.25238 17.099 8.73377 16.8193 9.31418C16.2594 10.4759 15.2938 12.0315 13.6625 13.6628C12.0312 15.2941 10.4757 16.2596 9.31409 16.8194C8.73373 17.099 8.25238 17.2771 7.90971 17.3866C7.8741 17.3979 7.83998 17.4086 7.80741 17.4185Z" fill="#1C274C"/>
</svg>
