<svg width="24" height="24" viewBox="0 0 24 24" fill="none" xmlns="http://www.w3.org/2000/svg">
<path opacity="0.5" d="M3.46447 3.46447C2 4.92893 2 7.28595 2 12C2 12.8185 2 13.5659 2.00767 14.25H5L5.10773 14.2499C5.63376 14.2491 6.10075 14.2483 6.52918 14.4319C6.9576 14.6155 7.27913 14.9542 7.64131 15.3357L7.71552 15.4138L8.85712 16.6125C8.9656 16.7264 9.14832 16.7141 9.24061 16.5867L12.8944 11.5435C13.0432 11.3379 13.1985 11.1233 13.3518 10.9653C13.5272 10.7844 13.7992 10.5708 14.1937 10.5527C14.5882 10.5346 14.8787 10.7223 15.0699 10.8863C15.2371 11.0297 15.4114 11.229 15.5785 11.4201L17.3823 13.4816C17.868 14.0368 17.9718 14.1316 18.085 14.183C18.1982 14.2343 18.3379 14.25 19.0756 14.25H21.9923C22 13.5659 22 12.8185 22 12C22 7.28595 22 4.92893 20.5355 3.46447C19.0711 2 16.714 2 12 2C7.28595 2 4.92893 2 3.46447 3.46447Z" fill="#1C274C"/>
<path d="M2.00757 14.2503C2.04405 17.5059 2.25418 19.3256 3.46437 20.5358C4.92883 22.0003 7.28586 22.0003 11.9999 22.0003C16.7139 22.0003 19.071 22.0003 20.5354 20.5358C21.7456 19.3256 21.9558 17.5059 21.9922 14.2503H19.0755C18.3378 14.2503 18.1981 14.2346 18.0849 14.1832C17.9717 14.1319 17.868 14.0371 17.3822 13.4819L15.5784 11.4204C15.4113 11.2293 15.237 11.0299 15.0698 10.8866C14.8786 10.7225 14.5881 10.5348 14.1936 10.553C13.7991 10.5711 13.5271 10.7847 13.3518 10.9655C13.1984 11.1236 13.0431 11.3381 12.8943 11.5438L9.24051 16.587C9.14823 16.7144 8.9655 16.7266 8.85702 16.6127L7.71542 15.4141L7.64121 15.336C7.27903 14.9545 6.9575 14.6158 6.52908 14.4322C6.10066 14.2486 5.63367 14.2493 5.10763 14.2502L4.9999 14.2503H2.00757Z" fill="#1C274C"/>
</svg>
