<svg width="24" height="24" viewBox="0 0 24 24" fill="none" xmlns="http://www.w3.org/2000/svg">
<path fill-rule="evenodd" clip-rule="evenodd" d="M12.4507 2.75947C10.7344 2.67403 8.97502 3.06532 7.37521 3.98897C5.77616 4.91218 4.55703 6.24074 3.77269 7.76992C4.1379 8.00339 4.63834 8.35339 5.21448 8.83716C6.39083 9.82491 7.88497 11.3723 9.18542 13.6247C10.4859 15.8772 11.0789 17.9448 11.3461 19.4575C11.477 20.1984 11.5299 20.8068 11.5495 21.2398C13.266 21.3252 15.0261 20.9337 16.6252 20.0104C18.225 19.0868 19.4436 17.7588 20.2277 16.2297C19.8625 15.9962 19.3619 15.6462 18.7856 15.1623C17.6092 14.1746 16.115 12.6272 14.8146 10.3747C13.5141 8.12228 12.9212 6.05461 12.654 4.54197C12.5231 3.80099 12.4702 3.1925 12.4507 2.75947ZM13.9649 2.96066C13.9898 3.30979 14.0385 3.7565 14.1311 4.28105C14.373 5.65031 14.9141 7.54708 16.1136 9.62474C17.3132 11.7024 18.6853 13.1194 19.7502 14.0136C20.1581 14.3561 20.5207 14.6216 20.8106 14.8177C21.5766 12.4208 21.3673 9.72406 20.0109 7.37471C18.6545 5.02535 16.4237 3.49581 13.9649 2.96066ZM10.0353 21.0387C10.0103 20.6896 9.96166 20.2429 9.869 19.7184C9.62708 18.3492 9.08593 16.4524 7.88638 14.3747C6.68684 12.2971 5.31476 10.88 4.24991 9.9859C3.84208 9.64345 3.47964 9.378 3.18979 9.18186C2.42434 11.5776 2.63289 14.275 3.98947 16.6247C5.34605 18.9744 7.57781 20.5037 10.0353 21.0387ZM6.62521 2.68993C8.72029 1.48034 11.0554 1.05591 13.2862 1.32632C16.526 1.71902 19.5512 3.57847 21.31 6.62471C23.0687 9.67094 23.1664 13.2206 21.8867 16.2227C21.0054 18.2898 19.4703 20.0999 17.3752 21.3095C12.2336 24.278 5.65897 22.5164 2.69043 17.3747C-0.278096 12.2331 1.48356 5.65846 6.62521 2.68993Z" fill="#1C274C"/>
</svg>
