<svg width="24" height="24" viewBox="0 0 24 24" fill="none" xmlns="http://www.w3.org/2000/svg">
<path d="M8 13V16H16V8H8V9" stroke="#1C274C" stroke-width="1.5" stroke-linecap="round"/>
<path d="M16 16.0014L19 16.001C20.6569 16.0007 22.0002 17.3436 22.0005 19.0005C22.0007 20.6574 20.6578 22.0007 19.0009 22.001C17.3441 22.0012 16.0007 20.6583 16.0005 19.0014L16 16.0014Z" stroke="#1C274C" stroke-width="1.5"/>
<path d="M8.00096 16.0014L5.00096 16.001C3.34411 16.0007 2.00075 17.3436 2.00049 19.0005C2.00023 20.6574 3.34316 22.0007 5.00002 22.001C6.65687 22.0012 8.00023 20.6583 8.00049 19.0014L8.00096 16.0014Z" stroke="#1C274C" stroke-width="1.5"/>
<path d="M16 7.99953L19 8C20.6569 8.00026 22.0002 6.65733 22.0005 5.00047C22.0007 3.34362 20.6578 2.00026 19.0009 2C17.3441 1.99974 16.0007 3.34267 16.0005 4.99953L16 7.99953Z" stroke="#1C274C" stroke-width="1.5"/>
<path d="M8.00096 7.99953L5.00096 8C3.34411 8.00026 2.00075 6.65733 2.00049 5.00047C2.00023 3.34362 3.34316 2.00026 5.00002 2C6.65687 1.99974 8.00023 3.34267 8.00049 4.99953L8.00096 7.99953Z" stroke="#1C274C" stroke-width="1.5"/>
</svg>
