<svg width="24" height="24" viewBox="0 0 24 24" fill="none" xmlns="http://www.w3.org/2000/svg">
<path fill-rule="evenodd" clip-rule="evenodd" d="M15.0136 3.18529L15.2917 3.53666C15.432 3.71375 15.511 3.8127 15.5754 3.88216C15.6102 3.91955 15.6285 3.9347 15.6351 3.93962C15.6427 3.94214 15.6633 3.94773 15.7068 3.95407C15.7959 3.96707 15.9163 3.97518 16.1366 3.98893L16.5747 4.01628C17.2574 4.05884 17.8552 4.09611 18.3102 4.19523C18.7919 4.3002 19.3161 4.51634 19.5944 5.07562C19.8693 5.62809 19.7352 6.17769 19.54 6.63187C19.3536 7.06583 19.0348 7.58362 18.6676 8.18017L18.6377 8.22872L18.4345 8.55894C18.3169 8.75005 18.2516 8.85708 18.2087 8.94111C18.1896 8.97852 18.1808 9.00021 18.1768 9.01183C18.1733 9.02174 18.173 9.02488 18.173 9.02504C18.1729 9.02526 18.1722 9.02895 18.1728 9.04069C18.1734 9.05422 18.1757 9.07887 18.1835 9.12177C18.2008 9.21739 18.2329 9.3422 18.2904 9.56233L18.39 9.94348L18.4043 9.99806C18.5847 10.688 18.7405 11.2836 18.7944 11.7559C18.85 12.2427 18.8262 12.8177 18.3953 13.2661C17.9552 13.724 17.3776 13.7539 16.8933 13.6962C16.432 13.6412 15.8525 13.4805 15.1905 13.297L14.7654 13.1791C14.5518 13.1199 14.4345 13.088 14.3458 13.0711C14.3089 13.0641 14.2884 13.0621 14.2788 13.0616C14.2698 13.065 14.2509 13.0734 14.218 13.0916C14.1389 13.1354 14.0374 13.2024 13.853 13.3254L13.4859 13.5702C12.9142 13.9515 12.4138 14.2853 11.9926 14.4817C11.5508 14.6877 10.9926 14.8401 10.4314 14.5424C10.0731 14.3523 9.86262 14.057 9.73208 13.7415C7.45909 14.7007 5.60135 16.3482 4.95864 18.2415C4.84782 18.5679 4.52874 18.7768 4.18524 18.7477C3.84173 18.7187 3.56226 18.4592 3.50785 18.1188C2.56727 12.235 4.32421 8.68634 6.84816 6.75226C7.02332 6.35644 7.35518 6.09188 7.68382 5.89833C8.08509 5.662 8.64144 5.43974 9.27679 5.18592C9.29493 5.17867 9.31314 5.1714 9.33142 5.1641L9.68442 5.02304C9.88939 4.94114 10.0013 4.89579 10.0819 4.85558C10.1215 4.83584 10.1393 4.82407 10.1457 4.81932C10.1504 4.81262 10.1632 4.7925 10.1846 4.74581C10.2243 4.65963 10.2685 4.5409 10.3465 4.32885L10.4813 3.96234C10.4879 3.94421 10.4946 3.92615 10.5012 3.90816C10.7446 3.24622 10.9557 2.67208 11.1805 2.25845C11.412 1.83223 11.7674 1.36855 12.3929 1.26829C13.0186 1.16801 13.501 1.49761 13.8539 1.83026C14.1964 2.15303 14.576 2.63254 15.0136 3.18529ZM7.15988 8.45939C5.73673 9.83019 4.64022 12.0495 4.75814 15.5665C5.92566 14.0993 7.63238 12.9511 9.45659 12.2345C9.43725 11.987 9.42094 11.7211 9.40369 11.44L9.37607 10.9905C9.36212 10.7633 9.35371 10.6347 9.34032 10.5385C9.33431 10.4953 9.32882 10.4712 9.32521 10.4581C9.32208 10.4468 9.32028 10.4435 9.3202 10.4434C9.32006 10.4431 9.31868 10.4401 9.31254 10.4321C9.30507 10.4224 9.29002 10.4045 9.26021 10.375C9.19324 10.3086 9.09793 10.2274 8.9266 10.0825L8.58702 9.79552C8.05223 9.34358 7.58797 8.95123 7.27549 8.59719C7.23634 8.55284 7.1976 8.50692 7.15988 8.45939ZM11.0329 12.8381C11.0498 12.7244 11.0408 12.605 11.0015 12.4886C10.9949 12.4691 10.9876 12.45 10.9796 12.4314C10.9499 12.135 10.9264 11.7639 10.8974 11.2917L10.8733 10.8985C10.8715 10.8706 10.8699 10.8426 10.8682 10.8144C10.848 10.4696 10.8266 10.1037 10.6631 9.77515C10.4984 9.44413 10.2186 9.20899 9.95817 8.99021C9.93692 8.97236 9.91581 8.95461 9.89489 8.93694L9.59887 8.68674C9.00778 8.18714 8.63067 7.86584 8.40009 7.60459C8.29025 7.48014 8.24641 7.40448 8.22984 7.36579C8.22785 7.36114 8.22638 7.35732 8.22531 7.35429C8.22581 7.35369 8.22634 7.35306 8.2269 7.35241C8.24918 7.32627 8.30756 7.27179 8.44504 7.19082C8.73511 7.01998 9.18164 6.83927 9.88801 6.55701L10.241 6.41596C10.2663 6.40586 10.2919 6.39573 10.3177 6.38551C10.6256 6.26367 10.9686 6.12794 11.2271 5.85905C11.4821 5.59364 11.6088 5.24576 11.7251 4.92659C11.7349 4.89971 11.7446 4.87303 11.7543 4.84663L11.8891 4.48011C12.1583 3.74818 12.3326 3.27988 12.4985 2.97457C12.5597 2.86185 12.6048 2.79998 12.6331 2.76741C12.6701 2.7895 12.7321 2.83415 12.8252 2.9219C13.0779 3.16006 13.3895 3.55042 13.8734 4.16167L14.1157 4.46774C14.1332 4.4898 14.1507 4.51212 14.1684 4.5346C14.3783 4.80146 14.6072 5.09251 14.9325 5.26503C15.2619 5.4398 15.6303 5.46155 15.9607 5.48106C15.9885 5.4827 16.016 5.48432 16.0431 5.48602L16.4225 5.5097C17.1815 5.55708 17.6621 5.58921 17.9908 5.66085C18.1467 5.6948 18.219 5.72829 18.2482 5.74608C18.2488 5.74645 18.2494 5.74681 18.25 5.74716C18.2499 5.75036 18.2497 5.7544 18.2493 5.75937C18.2456 5.80138 18.2275 5.88703 18.1619 6.03965C18.0242 6.35998 17.7661 6.78316 17.3603 7.44251L17.1571 7.77273C17.1427 7.79606 17.1282 7.81951 17.1136 7.84311C16.9344 8.13236 16.7419 8.44308 16.6886 8.80888C16.6357 9.172 16.7294 9.52629 16.8177 9.86022C16.8249 9.88752 16.8321 9.91468 16.8392 9.9417L16.9388 10.3229C17.1375 11.083 17.2638 11.5734 17.3041 11.9261C17.3225 12.0874 17.3169 12.1734 17.3096 12.2149C17.2713 12.2198 17.1984 12.2219 17.0708 12.2067C16.7374 12.167 16.2704 12.0397 15.534 11.8356L15.1661 11.7336C15.1395 11.7263 15.1125 11.7187 15.0853 11.711C14.7669 11.6216 14.4087 11.5209 14.0413 11.5798C13.6739 11.6387 13.3651 11.8462 13.0906 12.0307C13.067 12.0465 13.0438 12.0621 13.0208 12.0774L12.703 12.2893C12.0671 12.7134 11.663 12.9803 11.3586 13.1222C11.2425 13.1764 11.1726 13.1972 11.1346 13.2046C11.1148 13.1673 11.0828 13.0873 11.0502 12.9291C11.0441 12.8999 11.0384 12.8696 11.0329 12.8381ZM11.0969 13.2073C11.0974 13.2066 11.1023 13.2062 11.1104 13.2081C11.1005 13.2088 11.0964 13.2079 11.0969 13.2073ZM11.1474 13.2257C11.1526 13.2298 11.1548 13.2329 11.1546 13.2334C11.1545 13.234 11.1519 13.2319 11.1474 13.2257ZM17.2997 12.2482C17.2993 12.2477 17.3005 12.2441 17.3041 12.2386C17.3018 12.2459 17.3 12.2486 17.2997 12.2482ZM17.3334 12.2107C17.3405 12.2064 17.3453 12.2052 17.346 12.2057C17.3466 12.2062 17.3431 12.2083 17.3334 12.2107ZM12.6688 2.73457C12.6688 2.73514 12.6656 2.73781 12.6592 2.74085C12.6656 2.73552 12.6687 2.734 12.6688 2.73457ZM12.6 2.75031C12.593 2.74941 12.5891 2.74786 12.5889 2.74731C12.5888 2.74676 12.5923 2.74721 12.6 2.75031Z" fill="#1C274C"/>
<path d="M10.2808 16C10.2808 16 10.9135 17.3908 11.6935 17.8692C12.4735 18.3475 14 18.2808 14 18.2808C14 18.2808 12.6092 18.9135 12.1308 19.6935C11.6525 20.4735 11.7192 22 11.7192 22C11.7192 22 11.0865 20.6092 10.3065 20.1308C9.52652 19.6525 8 19.7192 8 19.7192C8 19.7192 9.39082 19.0865 9.86916 18.3065C10.3475 17.5265 10.2808 16 10.2808 16Z" stroke="#1C274C" stroke-linejoin="round"/>
<path d="M18.4795 15C18.4795 15 18.0577 15.9272 17.5377 16.2461C17.0177 16.565 16 16.5205 16 16.5205C16 16.5205 16.9272 16.9423 17.2461 17.4623C17.565 17.9823 17.5205 19 17.5205 19C17.5205 19 17.9423 18.0728 18.4623 17.7539C18.9823 17.435 20 17.4795 20 17.4795C20 17.4795 19.0728 17.0577 18.7539 16.5377C18.435 16.0177 18.4795 15 18.4795 15Z" stroke="#1C274C" stroke-linejoin="round"/>
</svg>
