<svg width="24" height="24" viewBox="0 0 24 24" fill="none" xmlns="http://www.w3.org/2000/svg">
<path d="M12.7071 12.7067C12.3166 13.0972 11.6834 13.0972 11.2929 12.7067C10.9024 12.3161 10.9024 11.683 11.2929 11.2924C11.6834 10.9019 12.3166 10.9019 12.7071 11.2924C13.0976 11.683 13.0976 12.3161 12.7071 12.7067Z" fill="#1C274C"/>
<path d="M9.87868 8.46401C9.48816 8.85453 8.85499 8.85453 8.46447 8.46401C8.07395 8.07349 8.07395 7.44032 8.46447 7.0498C8.85499 6.65927 9.48816 6.65927 9.87868 7.0498C10.2692 7.44032 10.2692 8.07349 9.87868 8.46401Z" fill="#1C274C"/>
<path d="M16.9498 15.5351C16.5592 15.9256 15.9261 15.9256 15.5355 15.5351C15.145 15.1446 15.145 14.5114 15.5355 14.1209C15.9261 13.7303 16.5592 13.7303 16.9498 14.1209C17.3403 14.5114 17.3403 15.1446 16.9498 15.5351Z" fill="#1C274C"/>
<path fill-rule="evenodd" clip-rule="evenodd" d="M8.10422 4.31648C7.15361 4.15399 6.58661 4.33146 6.28926 4.62882C6.0662 4.85188 5.91198 5.21823 5.91584 5.79791C5.91973 6.38136 6.08646 7.11883 6.43685 7.97123C7.1363 9.67276 8.50911 11.6904 10.4091 13.5904C12.3091 15.4904 14.3268 16.8632 16.0283 17.5627C16.8807 17.9131 17.6182 18.0798 18.2016 18.0837C18.7813 18.0876 19.1477 17.9334 19.3707 17.7103C19.6681 17.4129 19.8456 16.8459 19.6831 15.8953C19.5566 15.1556 19.2354 14.2744 18.7236 13.3121C18.5174 13.4188 18.2597 13.4845 17.9626 13.4312C17.2419 13.3018 15.886 12.7035 13.591 10.4086C11.296 8.11359 10.6978 6.75769 10.5684 6.03692C10.515 5.73983 10.5807 5.48213 10.6875 5.27594C9.72518 4.76414 8.84397 4.44292 8.10422 4.31648ZM11.8357 4.19702C10.6153 3.49688 9.42229 3.02002 8.35695 2.83792C7.19065 2.63856 6.0236 2.77315 5.22859 3.56816C4.6367 4.16005 4.41026 4.96581 4.41588 5.80791C4.42146 6.64625 4.65434 7.58024 5.04949 8.54153C5.84114 10.4673 7.34321 12.6459 9.34845 14.6511C11.3537 16.6563 13.5322 18.1584 15.458 18.9501C16.4193 19.3452 17.3533 19.5781 18.1916 19.5837C19.0337 19.5893 19.8395 19.3629 20.4314 18.771C21.2264 17.9759 21.361 16.8089 21.1616 15.6426C20.9795 14.5773 20.5027 13.3843 19.8025 12.1638C21.1906 10.0393 20.9518 7.16277 19.0861 5.29705L18.7025 4.91346C16.8368 3.04774 13.9602 2.80892 11.8357 4.19702ZM12.0794 5.91113C12.2071 6.33085 12.7101 7.40634 14.6517 9.34789C16.5932 11.2894 17.6687 11.7924 18.0884 11.9201C19.5789 10.3619 19.5579 7.89022 18.0254 6.35771L17.6418 5.97412C16.1093 4.4416 13.6377 4.42061 12.0794 5.91113ZM4.75216 10.7621C5.04505 11.055 5.04505 11.5299 4.75216 11.8228L2.63084 13.9441C2.33795 14.237 1.86307 14.237 1.57018 13.9441C1.27729 13.6512 1.27729 13.1763 1.57018 12.8834L3.6915 10.7621C3.98439 10.4692 4.45927 10.4692 4.75216 10.7621ZM8.28769 15.7119C8.58059 16.0047 8.58059 16.4796 8.28769 16.7725L4.16637 20.8938C3.87348 21.1867 3.39861 21.1867 3.10571 20.8938C2.81282 20.6009 2.81282 20.1261 3.10571 19.8332L7.22703 15.7119C7.51993 15.419 7.9948 15.419 8.28769 15.7119ZM13.2374 19.2474C13.5303 19.5403 13.5303 20.0152 13.2374 20.3081L11.1161 22.4294C10.8232 22.7223 10.3484 22.7223 10.0555 22.4294C9.76257 22.1365 9.76257 21.6616 10.0555 21.3687L12.1768 19.2474C12.4697 18.9545 12.9445 18.9545 13.2374 19.2474Z" fill="#1C274C"/>
</svg>
