<svg width="24" height="24" viewBox="0 0 24 24" fill="none" xmlns="http://www.w3.org/2000/svg">
<path opacity="0.5" d="M3.46447 3.46447C2 4.92893 2 7.28595 2 12L2.00001 12.2498C2.09277 12.2498 2.1871 12.2671 2.2785 12.3036L6.99997 14.1918L9.8645 13.046C11.2354 12.4977 12.7646 12.4977 14.1355 13.046L17 14.1918L21.7215 12.3036C21.8129 12.2671 21.9072 12.2498 22 12.2498L22 12C22 7.28595 22 4.92893 20.5355 3.46447C19.0711 2 16.714 2 12 2C7.28595 2 4.92893 2 3.46447 3.46447Z" fill="#1C274C"/>
<path d="M10 10.5C10 11.3284 9.55228 12 9 12C8.44772 12 8 11.3284 8 10.5C8 9.67157 8.44772 9 9 9C9.55228 9 10 9.67157 10 10.5Z" fill="#1C274C"/>
<path d="M16 10.5C16 11.3284 15.5523 12 15 12C14.4477 12 14 11.3284 14 10.5C14 9.67157 14.4477 9 15 9C15.5523 9 16 9.67157 16 10.5Z" fill="#1C274C"/>
<path d="M21.9964 13.8086L17.7148 15.5209L17.509 18.4015L20.7956 19.81C20.8778 19.8452 20.9505 19.8934 21.0123 19.9512C21.8458 18.6887 21.976 16.8389 21.9964 13.8086Z" fill="#1C274C"/>
<path d="M19.8879 21.0529L17.3959 19.9849L17.2631 21.8443C18.3638 21.716 19.2095 21.4815 19.8879 21.0529Z" fill="#1C274C"/>
<path d="M15.7514 21.9556C15.7516 21.9524 15.7518 21.9491 15.752 21.9459L16.213 15.4919L13.5785 14.4381C12.5653 14.0328 11.435 14.0328 10.4217 14.4381L7.78725 15.4919L8.24823 21.9459C8.24846 21.9491 8.24867 21.9524 8.24886 21.9556C9.3015 21.9993 10.5373 21.9993 12.0001 21.9993C13.4629 21.9993 14.6988 21.9993 15.7514 21.9556Z" fill="#1C274C"/>
<path d="M6.73715 21.8443L6.60435 19.9849L4.11236 21.0529C4.79082 21.4815 5.63646 21.716 6.73715 21.8443Z" fill="#1C274C"/>
<path d="M2.98793 19.9512C3.04974 19.8934 3.12245 19.8452 3.2047 19.81L6.49125 18.4015L6.28551 15.5209L2.00391 13.8086C2.02426 16.8389 2.15451 18.6887 2.98793 19.9512Z" fill="#1C274C"/>
</svg>
