<svg width="24" height="24" viewBox="0 0 24 24" fill="none" xmlns="http://www.w3.org/2000/svg">
<path fill-rule="evenodd" clip-rule="evenodd" d="M8.98564 3.47641C7.97205 2.04283 5.94383 1.80096 4.71765 3.0919L3.14805 4.7444C2.6122 5.30855 2.20492 6.09224 2.25396 7.00591C2.35322 8.85513 3.13839 12.64 7.27156 16.9915C11.7009 21.6548 15.9261 21.8893 17.7499 21.7092C18.497 21.6355 19.1016 21.2371 19.5449 20.7703L20.9655 19.2747C22.2704 17.9008 21.8904 15.6016 20.2575 14.6617L18.347 13.5621C17.2485 12.9298 15.8861 13.111 15.0124 14.031L14.6037 14.4612C14.5748 14.4714 14.4839 14.4959 14.3103 14.4677C13.9077 14.4023 13.0391 14.0469 11.6069 12.5392C10.1793 11.0361 9.8276 10.1104 9.76086 9.65489C9.72866 9.43513 9.76137 9.31935 9.77431 9.28299L9.77645 9.27719L10.0213 9.0194C10.9889 8.00073 11.0574 6.40656 10.2466 5.25989L8.98564 3.47641ZM5.80524 4.12493C6.32807 3.57449 7.24851 3.61773 7.76086 4.34237L9.02184 6.12586C9.44399 6.72292 9.37925 7.51731 8.93372 7.98637L8.6469 8.28834L9.17856 8.79333C8.64689 8.28835 8.64621 8.28907 8.64552 8.2898L8.6441 8.2913L8.6412 8.29441L8.6351 8.30104L8.62177 8.31603C8.61242 8.32678 8.60214 8.33909 8.59115 8.35298C8.56917 8.38075 8.5443 8.41489 8.51822 8.45566C8.4659 8.53742 8.40917 8.64508 8.36112 8.78011C8.26342 9.05468 8.21017 9.41827 8.2767 9.87234C8.40742 10.7645 8.99197 11.9642 10.5193 13.5722C12.0422 15.1755 13.1923 15.8058 14.0698 15.9483C14.5201 16.0214 14.8846 15.963 15.1606 15.8541C15.2955 15.8009 15.4022 15.7384 15.4823 15.6816C15.5223 15.6533 15.5555 15.6264 15.5824 15.6028C15.5959 15.591 15.6077 15.5801 15.618 15.5701L15.6324 15.556L15.6387 15.5495L15.6417 15.5464L15.6431 15.545C15.6438 15.5442 15.6445 15.5435 15.1173 15.0428L15.6445 15.5435L16.1 15.064C16.4854 14.6582 17.086 14.567 17.5987 14.8621L19.5092 15.9618C20.33 16.4342 20.4907 17.5965 19.8779 18.2417L18.4573 19.7373C18.1783 20.031 17.8863 20.1885 17.6026 20.2165C16.1676 20.3581 12.4233 20.2373 8.35915 15.9584C4.48302 11.8776 3.83284 8.43533 3.7518 6.92552C3.73037 6.52621 3.90425 6.12632 4.23564 5.77743L5.80524 4.12493Z" fill="#1C274C"/>
<path d="M15.75 3.99978C15.75 3.58556 15.4142 3.24978 15 3.24978C14.5858 3.24978 14.25 3.58556 14.25 3.99978L14.25 5.05178C14.25 5.95026 14.2499 6.69947 14.3299 7.29426C14.4143 7.92205 14.6 8.48885 15.0555 8.94432C15.5109 9.39979 16.0777 9.58546 16.7055 9.66987C17.1662 9.7318 17.7195 9.74575 18.363 9.74888L17.5315 10.4141C17.208 10.6729 17.1556 11.1449 17.4143 11.4683C17.6731 11.7917 18.1451 11.8442 18.4685 11.5854L20.9685 9.58543C21.1464 9.4431 21.25 9.22761 21.25 8.99978C21.25 8.77194 21.1464 8.55645 20.9685 8.41412L18.4685 6.41412C18.1451 6.15537 17.6731 6.20781 17.4143 6.53125C17.1556 6.8547 17.208 7.32667 17.5315 7.58543L18.3605 8.24866C17.7356 8.24539 17.2729 8.23265 16.9054 8.18324C16.4439 8.1212 16.2464 8.01398 16.1161 7.88366C15.9858 7.75334 15.8786 7.55585 15.8165 7.09438C15.7516 6.61135 15.75 5.96379 15.75 4.99978V3.99978Z" fill="#1C274C"/>
</svg>
