<svg width="24" height="24" viewBox="0 0 24 24" fill="none" xmlns="http://www.w3.org/2000/svg">
<path fill-rule="evenodd" clip-rule="evenodd" d="M8.98563 3.47641C7.97204 2.04283 5.94382 1.80096 4.71763 3.0919L3.14803 4.7444C2.61218 5.30855 2.2049 6.09224 2.25394 7.00591C2.3532 8.85513 3.13838 12.64 7.27154 16.9915C11.7009 21.6548 15.9261 21.8893 17.7499 21.7092C18.497 21.6355 19.1015 21.2371 19.5449 20.7703L20.9654 19.2747C22.2704 17.9008 21.8904 15.6016 20.2574 14.6617L18.3469 13.5621C17.2485 12.9298 15.8861 13.111 15.0123 14.031L14.6037 14.4612C14.5748 14.4714 14.4839 14.4959 14.3103 14.4677C13.9077 14.4023 13.039 14.0469 11.6069 12.5392C10.1792 11.0361 9.82759 10.1104 9.76084 9.65489C9.72864 9.43513 9.76136 9.31935 9.7743 9.28299L9.77644 9.27719L10.0213 9.0194C10.9889 8.00073 11.0573 6.40656 10.2466 5.25989L8.98563 3.47641ZM5.80522 4.12493C6.32806 3.57449 7.24849 3.61773 7.76084 4.34237L9.02183 6.12586C9.44397 6.72292 9.37924 7.51731 8.9337 7.98637L8.64689 8.28834L9.17855 8.79333C8.64688 8.28835 8.64619 8.28907 8.6455 8.2898L8.64409 8.2913L8.64118 8.29441L8.63508 8.30104L8.62176 8.31603C8.6124 8.32678 8.60213 8.33909 8.59114 8.35298C8.56916 8.38075 8.54429 8.41489 8.5182 8.45566C8.46588 8.53742 8.40915 8.64508 8.3611 8.78011C8.2634 9.05468 8.21016 9.41827 8.27669 9.87234C8.4074 10.7645 8.99196 11.9642 10.5193 13.5722C12.0422 15.1755 13.1923 15.8058 14.0698 15.9483C14.5201 16.0214 14.8846 15.963 15.1606 15.8541C15.2955 15.8009 15.4022 15.7384 15.4823 15.6816C15.5223 15.6533 15.5555 15.6264 15.5824 15.6028C15.5958 15.591 15.6077 15.5801 15.618 15.5701L15.6324 15.556L15.6387 15.5495L15.6417 15.5464L15.6431 15.545C15.6438 15.5442 15.6445 15.5435 15.1173 15.0428L15.6445 15.5435L16.0999 15.064C16.4854 14.6582 17.086 14.567 17.5987 14.8621L19.5092 15.9618C20.33 16.4342 20.4907 17.5965 19.8779 18.2417L18.4573 19.7373C18.1783 20.031 17.8863 20.1885 17.6026 20.2165C16.1676 20.3581 12.4233 20.2373 8.35913 15.9584C4.48301 11.8776 3.83283 8.43533 3.75179 6.92552C3.73036 6.52621 3.90423 6.12632 4.23562 5.77743L5.80522 4.12493Z" fill="#1C274C"/>
<path d="M16.5303 3.46945C16.2374 3.17655 15.7625 3.17655 15.4696 3.46945C15.1767 3.76234 15.1767 4.23721 15.4696 4.53011L16.9393 5.99978L15.4696 7.46945C15.1768 7.76234 15.1768 8.23721 15.4696 8.53011C15.7625 8.823 16.2374 8.823 16.5303 8.53011L18 7.06044L19.4696 8.53009C19.7625 8.82298 20.2374 8.82298 20.5303 8.53009C20.8232 8.2372 20.8232 7.76232 20.5303 7.46943L19.0606 5.99978L20.5303 4.53012C20.8232 4.23723 20.8232 3.76236 20.5303 3.46946C20.2374 3.17657 19.7625 3.17657 19.4696 3.46946L18 4.93912L16.5303 3.46945Z" fill="#1C274C"/>
</svg>
