<svg width="24" height="24" viewBox="0 0 24 24" fill="none" xmlns="http://www.w3.org/2000/svg">
<path fill-rule="evenodd" clip-rule="evenodd" d="M8.98565 3.47641C7.97206 2.04283 5.94384 1.80096 4.71766 3.0919L3.14806 4.7444C2.61221 5.30855 2.20493 6.09224 2.25397 7.00591C2.35322 8.85513 3.1384 12.64 7.27157 16.9915C11.701 21.6548 15.9261 21.8893 17.7499 21.7092C18.497 21.6355 19.1016 21.2371 19.5449 20.7703L20.9655 19.2747C22.2704 17.9008 21.8904 15.6016 20.2575 14.6617L18.347 13.5621C17.2485 12.9298 15.8861 13.111 15.0124 14.031L14.6037 14.4612C14.5748 14.4714 14.4839 14.4959 14.3103 14.4677C13.9077 14.4023 13.0391 14.0469 11.6069 12.5392C10.1793 11.0361 9.82761 10.1104 9.76086 9.65489C9.72867 9.43513 9.76138 9.31935 9.77432 9.28299L9.77646 9.27719L10.0213 9.0194C10.9889 8.00073 11.0574 6.40656 10.2466 5.25989L8.98565 3.47641ZM5.80525 4.12493C6.32808 3.57449 7.24851 3.61773 7.76086 4.34237L9.02185 6.12586C9.44399 6.72292 9.37926 7.51731 8.93373 7.98637L8.64691 8.28834L9.17857 8.79333C8.6469 8.28835 8.64621 8.28907 8.64552 8.2898L8.64411 8.2913L8.64121 8.29441L8.63511 8.30104L8.62178 8.31603C8.61243 8.32678 8.60215 8.33909 8.59116 8.35298C8.56918 8.38075 8.54431 8.41489 8.51822 8.45566C8.46591 8.53742 8.40917 8.64508 8.36113 8.78011C8.26342 9.05468 8.21018 9.41827 8.27671 9.87234C8.40742 10.7645 8.99198 11.9642 10.5193 13.5722C12.0422 15.1755 13.1923 15.8058 14.0698 15.9483C14.5201 16.0214 14.8846 15.963 15.1606 15.8541C15.2955 15.8009 15.4022 15.7384 15.4823 15.6816C15.5223 15.6533 15.5556 15.6264 15.5824 15.6028C15.5959 15.591 15.6077 15.5801 15.618 15.5701L15.6324 15.556L15.6387 15.5495L15.6417 15.5464L15.6431 15.545C15.6438 15.5442 15.6445 15.5435 15.1173 15.0428L15.6445 15.5435L16.1 15.064C16.4854 14.6582 17.086 14.567 17.5987 14.8621L19.5092 15.9618C20.33 16.4342 20.4907 17.5965 19.8779 18.2417L18.4573 19.7373C18.1783 20.031 17.8864 20.1885 17.6026 20.2165C16.1676 20.3581 12.4233 20.2373 8.35916 15.9584C4.48303 11.8776 3.83285 8.43533 3.75181 6.92552C3.73038 6.52621 3.90425 6.12632 4.23564 5.77743L5.80525 4.12493Z" fill="#1C274C"/>
<path d="M18 9.74978C18.4142 9.74978 18.75 9.41399 18.75 8.99978C18.75 8.58556 18.4142 8.24978 18 8.24978H16.8107L19.5303 5.53011C19.8232 5.23721 19.8232 4.76234 19.5303 4.46945C19.2374 4.17655 18.7626 4.17655 18.4697 4.46945L15.75 7.18912V5.99978C15.75 5.58556 15.4142 5.24978 15 5.24978C14.5858 5.24978 14.25 5.58556 14.25 5.99978V8.99978C14.25 9.41399 14.5858 9.74978 15 9.74978H18Z" fill="#1C274C"/>
</svg>
