<svg width="24" height="24" viewBox="0 0 24 24" fill="none" xmlns="http://www.w3.org/2000/svg">
<path fill-rule="evenodd" clip-rule="evenodd" d="M5.73262 2.04252C6.94995 0.832095 8.95433 1.04755 9.97364 2.40913L11.2346 4.09354C12.064 5.20142 11.9908 6.74983 11.0063 7.72875L10.7676 7.96616C10.7571 7.99645 10.7318 8.09166 10.7599 8.27262C10.8231 8.68011 11.1634 9.54452 12.5919 10.9649C14.0199 12.3848 14.8905 12.7248 15.3037 12.7882C15.491 12.8169 15.589 12.7901 15.6193 12.7795L16.0273 12.3739C16.9025 11.5036 18.2474 11.3409 19.331 11.93L21.2415 12.9686C22.8775 13.8579 23.2908 16.0816 21.9505 17.4143L20.5299 18.8268C20.0824 19.2718 19.4805 19.643 18.7459 19.7114C16.9369 19.8801 12.7186 19.6649 8.28653 15.2579C4.14862 11.1435 3.35456 7.55551 3.25409 5.78769L4.00288 5.74513L3.25409 5.78769C3.20328 4.89377 3.6257 4.13747 4.16302 3.6032L5.73262 2.04252ZM8.77285 3.30808C8.26622 2.63133 7.32194 2.57752 6.79026 3.10619L5.22066 4.66688C4.89074 4.99493 4.732 5.35646 4.75167 5.70258C4.8315 7.10717 5.47279 10.3449 9.34417 14.1943C13.4056 18.2326 17.1568 18.3531 18.6067 18.2179C18.9029 18.1903 19.1975 18.0364 19.4723 17.7631L20.8928 16.3507C21.4703 15.7765 21.3429 14.731 20.5251 14.2864L18.6146 13.2479C18.0871 12.9611 17.469 13.0557 17.085 13.4375L16.6295 13.8904L16.1007 13.3586C16.6295 13.8904 16.6288 13.8911 16.6281 13.8918L16.6266 13.8933L16.6236 13.8962L16.6171 13.9025L16.6024 13.9161C16.5919 13.9257 16.5799 13.9362 16.5663 13.9475C16.5392 13.97 16.5057 13.9954 16.4658 14.0222C16.3857 14.0758 16.28 14.1342 16.1472 14.1837C15.8763 14.2846 15.5192 14.3387 15.0763 14.2708C14.2095 14.1379 13.0613 13.5469 11.5343 12.0286C10.0078 10.5108 9.41188 9.36785 9.27764 8.50257C9.209 8.06012 9.26375 7.70282 9.36588 7.43176C9.41593 7.29892 9.47491 7.1933 9.52904 7.1134C9.55604 7.07356 9.58173 7.04025 9.6044 7.01319C9.61574 6.99966 9.62633 6.98768 9.63598 6.97721L9.64971 6.96263L9.656 6.95617L9.65899 6.95314L9.66045 6.95168C9.66116 6.95097 9.66188 6.95026 10.1907 7.4821L9.66188 6.95026L9.94869 6.66507C10.3773 6.2389 10.4373 5.53145 10.0338 4.99248L8.77285 3.30808Z" fill="#1C274C"/>
</svg>
