<svg width="24" height="24" viewBox="0 0 24 24" fill="none" xmlns="http://www.w3.org/2000/svg">
<path fill-rule="evenodd" clip-rule="evenodd" d="M4.71763 3.0919C5.94382 1.80096 7.97204 2.04283 8.98563 3.47641L10.2466 5.25989C11.0573 6.40656 10.9889 8.00073 10.0213 9.0194L9.77644 9.27719C9.77575 9.27897 9.77504 9.2809 9.7743 9.28299C9.76136 9.31935 9.72864 9.43513 9.76084 9.65489C9.82759 10.1104 10.1792 11.0361 11.6069 12.5392C13.039 14.0469 13.9077 14.4023 14.3103 14.4677C14.4839 14.4959 14.5748 14.4714 14.6037 14.4612L15.0123 14.031C15.8861 13.111 17.2485 12.9298 18.3469 13.5621L20.2574 14.6617C21.8904 15.6016 22.2704 17.9008 20.9654 19.2747L19.5449 20.7703C19.1015 21.2371 18.497 21.6355 17.7499 21.7092C15.9261 21.8893 11.7009 21.6548 7.27154 16.9915C3.13838 12.64 2.3532 8.85513 2.25394 7.00591L2.92005 6.97016L2.25394 7.00591C2.2049 6.09224 2.61218 5.30855 3.14803 4.7444L4.71763 3.0919ZM7.76084 4.34237C7.24849 3.61773 6.32806 3.57449 5.80522 4.12493L4.23562 5.77743C3.90423 6.12632 3.73036 6.52621 3.75179 6.92552C3.83283 8.43533 4.48301 11.8776 8.35913 15.9584C12.4233 20.2373 16.1676 20.3581 17.6026 20.2165C17.8863 20.1885 18.1783 20.031 18.4573 19.7373L19.8779 18.2417C20.4907 17.5965 20.33 16.4342 19.5092 15.9618L17.5987 14.8621C17.086 14.567 16.4854 14.6582 16.0999 15.064L15.6445 15.5435L15.1173 15.0428C15.6445 15.5435 15.6438 15.5442 15.6431 15.545L15.6417 15.5464L15.6387 15.5495L15.6324 15.556L15.618 15.5701C15.6077 15.5801 15.5958 15.591 15.5824 15.6028C15.5555 15.6264 15.5223 15.6533 15.4823 15.6816C15.4022 15.7384 15.2955 15.8009 15.1606 15.8541C14.8846 15.963 14.5201 16.0214 14.0698 15.9483C13.1923 15.8058 12.0422 15.1755 10.5193 13.5722C8.99196 11.9642 8.4074 10.7645 8.27669 9.87234C8.21016 9.41827 8.2634 9.05468 8.3611 8.78011C8.40915 8.64508 8.46588 8.53742 8.5182 8.45566C8.54429 8.41489 8.56916 8.38075 8.59114 8.35298C8.60213 8.33909 8.6124 8.32678 8.62176 8.31603L8.63508 8.30104L8.64118 8.29441L8.64409 8.2913L8.6455 8.2898C8.64619 8.28907 8.64688 8.28835 9.17855 8.79333L8.64689 8.28834L8.9337 7.98637C9.37924 7.51731 9.44397 6.72292 9.02183 6.12586L7.76084 4.34237Z" fill="#1C274C"/>
<path d="M13.2595 1.87983C13.3257 1.47094 13.7122 1.19357 14.1211 1.25976C14.1464 1.26461 14.2279 1.27983 14.2705 1.28933C14.3559 1.30834 14.4749 1.33759 14.6233 1.38082C14.9201 1.46726 15.3347 1.60967 15.8323 1.8378C16.8286 2.29456 18.1544 3.09356 19.5302 4.46936C20.906 5.84516 21.705 7.17097 22.1617 8.16725C22.3899 8.66487 22.5323 9.07947 22.6187 9.37625C22.6619 9.52466 22.6912 9.64369 22.7102 9.72901C22.7197 9.77168 22.7267 9.80594 22.7315 9.83125L22.7373 9.86245C22.8034 10.2713 22.5286 10.6739 22.1197 10.7401C21.712 10.8061 21.3279 10.53 21.2601 10.1231C21.258 10.1121 21.2522 10.0828 21.2461 10.0551C21.2337 9.9997 21.2124 9.91188 21.1786 9.79572C21.1109 9.56339 20.9934 9.21806 20.7982 8.79238C20.4084 7.94207 19.7074 6.76789 18.4695 5.53002C17.2317 4.29216 16.0575 3.59117 15.2072 3.20134C14.7815 3.00618 14.4362 2.88865 14.2038 2.82097C14.0877 2.78714 13.9417 2.75363 13.8863 2.7413C13.4793 2.67347 13.1935 2.28755 13.2595 1.87983Z" fill="#1C274C"/>
<path fill-rule="evenodd" clip-rule="evenodd" d="M13.4861 5.32931C13.5999 4.93103 14.015 4.70041 14.4133 4.81421L14.2072 5.53535C14.4133 4.81421 14.4136 4.81431 14.414 4.81441L14.4147 4.81462L14.4162 4.81506L14.4196 4.81604L14.4273 4.81835L14.4471 4.82451C14.4622 4.82934 14.481 4.83562 14.5035 4.84358C14.5484 4.85952 14.6077 4.88218 14.6805 4.91339C14.8262 4.97582 15.0253 5.07224 15.2698 5.21695C15.7593 5.50664 16.4275 5.98781 17.2124 6.77279C17.9974 7.55776 18.4786 8.22595 18.7683 8.71541C18.913 8.95992 19.0094 9.15899 19.0718 9.30467C19.103 9.37748 19.1257 9.43683 19.1416 9.48175C19.1496 9.5042 19.1559 9.52303 19.1607 9.5381L19.1669 9.55789L19.1692 9.56564L19.1702 9.56898L19.1706 9.57051L19.1708 9.57124C19.1709 9.5716 19.171 9.57195 18.4499 9.77799L19.171 9.57195C19.2848 9.97023 19.0542 10.3853 18.6559 10.4991C18.261 10.612 17.8496 10.3862 17.7317 9.99414L17.728 9.98336C17.7227 9.96833 17.7116 9.93875 17.6931 9.89555C17.6561 9.80921 17.589 9.66798 17.4774 9.47939C17.2544 9.10265 16.8517 8.5334 16.1518 7.83345C15.4518 7.13349 14.8826 6.73079 14.5058 6.50782C14.3172 6.3962 14.176 6.32911 14.0897 6.2921C14.0465 6.27359 14.0169 6.26256 14.0019 6.25722L13.9911 6.25353C13.599 6.13565 13.3733 5.7242 13.4861 5.32931Z" fill="#1C274C"/>
</svg>
