<svg width="24" height="24" viewBox="0 0 24 24" fill="none" xmlns="http://www.w3.org/2000/svg">
<path d="M11.8114 6.72585C12.8247 4.90805 13.3314 3.99915 14.0889 3.99915C14.8464 3.99915 15.353 4.90804 16.3663 6.72584L16.6285 7.19613C16.9164 7.71269 17.0604 7.97097 17.2849 8.14139C17.5094 8.31181 17.789 8.37507 18.3482 8.50158L18.8572 8.61677C20.825 9.06199 21.8089 9.2846 22.0429 10.0373C22.277 10.7901 21.6063 11.5744 20.2648 13.1431L19.9177 13.5489C19.5365 13.9947 19.3459 14.2176 19.2602 14.4933C19.1744 14.7691 19.2032 15.0664 19.2609 15.6612L19.3133 16.2027C19.5162 18.2956 19.6176 19.3421 19.0047 19.8073C18.3919 20.2725 17.4707 19.8484 15.6283 19.0001L15.1517 18.7806C14.6281 18.5396 14.3663 18.419 14.0889 18.419C13.8114 18.419 13.5496 18.5396 13.0261 18.7806L12.5494 19.0001C10.707 19.8484 9.78581 20.2725 9.17299 19.8073C8.56016 19.3421 8.66157 18.2956 8.86438 16.2027L8.91685 15.6612C8.97449 15.0664 9.0033 14.7691 8.91756 14.4933C8.83181 14.2176 8.64121 13.9947 8.26 13.5489L7.91294 13.1431C6.57147 11.5744 5.90073 10.7901 6.1348 10.0373C6.36888 9.2846 7.35275 9.06199 9.3205 8.61677L9.82958 8.50158C10.3887 8.37507 10.6683 8.31181 10.8928 8.14139C11.1173 7.97097 11.2613 7.71269 11.5492 7.19613L11.8114 6.72585Z" fill="#1C274C"/>
<path fill-rule="evenodd" clip-rule="evenodd" d="M8.74536 5.20143C6.76375 4.6304 4.63808 4.93202 2.58717 6.13309L2.37901 6.255C2.02158 6.46432 1.56213 6.34425 1.35281 5.98682C1.14349 5.62939 1.26356 5.16995 1.62099 4.96062L1.82915 4.83872C4.18957 3.45639 6.7369 3.06163 9.16071 3.76008L9.36859 3.81999C9.76661 3.93468 9.99629 4.35032 9.88159 4.74834C9.7669 5.14635 9.35126 5.37603 8.95325 5.26134L8.74536 5.20143ZM4.83616 9.93548C4.87132 10.3482 4.56525 10.7113 4.15253 10.7464C3.99937 10.7595 3.88194 10.7669 3.78353 10.7732C3.60615 10.7844 3.49057 10.7918 3.3389 10.8209C3.14241 10.8586 2.88728 10.9385 2.42428 11.17C2.05379 11.3552 1.60329 11.205 1.41805 10.8346C1.2328 10.4641 1.38297 10.0136 1.75346 9.82832C2.29045 9.55983 2.6802 9.41994 3.05615 9.34778C3.30305 9.30039 3.55792 9.28379 3.78712 9.26886C3.87041 9.26344 3.95031 9.25823 4.0252 9.25185C4.43792 9.21669 4.801 9.52276 4.83616 9.93548ZM5.91775 15.8551C4.7338 15.5777 3.48641 15.8528 2.55304 16.5882C2.22769 16.8446 1.75612 16.7887 1.49976 16.4633C1.24341 16.138 1.29934 15.6664 1.62469 15.41C2.92249 14.3875 4.63899 14.0148 6.25998 14.3947C6.66327 14.4892 6.91359 14.8927 6.81909 15.296C6.72458 15.6993 6.32104 15.9496 5.91775 15.8551Z" fill="#1C274C"/>
</svg>
