<svg width="24" height="24" viewBox="0 0 24 24" fill="none" xmlns="http://www.w3.org/2000/svg">
<path d="M3.2132 9.07107C1.5956 7.45346 1.5956 4.83081 3.2132 3.2132C4.83081 1.5956 7.45346 1.5956 9.07107 3.2132L20.7868 14.9289C22.4044 16.5465 22.4044 19.1692 20.7868 20.7868C19.1692 22.4044 16.5465 22.4044 14.9289 20.7868L3.2132 9.07107Z" stroke="#1C274C" stroke-width="1.5"/>
<g opacity="0.5">
<path d="M12 17.8579L9.07107 20.7868C7.45346 22.4044 4.83081 22.4044 3.2132 20.7868C1.5956 19.1692 1.5956 16.5465 3.2132 14.9289L6.14214 12L12 17.8579Z" stroke="#1C274C" stroke-width="1.5"/>
<path d="M12 6.14214L14.9289 3.2132C16.5465 1.5956 19.1692 1.5956 20.7868 3.2132C22.4044 4.83081 22.4044 7.45346 20.7868 9.07107L17.8579 12L12 6.14214Z" stroke="#1C274C" stroke-width="1.5"/>
</g>
<path d="M15.8413 12.8718C16.1489 13.1794 16.1489 13.678 15.8413 13.9856C15.5338 14.2931 15.0351 14.2931 14.7276 13.9856C14.42 13.678 14.42 13.1794 14.7276 12.8718C15.0351 12.5643 15.5338 12.5643 15.8413 12.8718Z" fill="#1C274C"/>
<path d="M12.1289 9.15937C11.8213 8.85182 11.3227 8.85182 11.0151 9.15937C10.7076 9.46692 10.7076 9.96556 11.0151 10.2731C11.3227 10.5807 11.8213 10.5807 12.1289 10.2731C12.4364 9.96556 12.4364 9.46692 12.1289 9.15937Z" fill="#1C274C"/>
<path d="M13.9851 14.7281C14.2926 15.0356 14.2926 15.5343 13.9851 15.8418C13.6775 16.1494 13.1789 16.1494 12.8714 15.8418C12.5638 15.5343 12.5638 15.0356 12.8714 14.7281C13.1789 14.4205 13.6775 14.4205 13.9851 14.7281Z" fill="#1C274C"/>
<path d="M10.2726 11.0156C9.96508 10.7081 9.46644 10.7081 9.15889 11.0156C8.85133 11.3232 8.85133 11.8218 9.15889 12.1293C9.46644 12.4369 9.96508 12.4369 10.2726 12.1293C10.5802 11.8218 10.5802 11.3232 10.2726 11.0156Z" fill="#1C274C"/>
<path d="M16.7696 15.6556C17.0771 15.9631 17.0771 16.4618 16.7696 16.7693C16.462 17.0769 15.9634 17.0769 15.6558 16.7693C15.3483 16.4618 15.3483 15.9631 15.6558 15.6556C15.9634 15.348 16.462 15.348 16.7696 15.6556Z" fill="#1C274C"/>
<path d="M9.34465 8.23066C9.0371 7.92311 8.53846 7.92311 8.23091 8.23066C7.92336 8.53821 7.92336 9.03685 8.23091 9.3444C8.53846 9.65195 9.0371 9.65195 9.34465 9.3444C9.6522 9.03685 9.6522 8.53821 9.34465 8.23066Z" fill="#1C274C"/>
<path opacity="0.5" d="M13.057 11.9436C13.3646 12.2511 13.3646 12.7497 13.057 13.0573C12.7495 13.3648 12.2509 13.3648 11.9433 13.0573C11.6358 12.7497 11.6358 12.2511 11.9433 11.9436C12.2509 11.636 12.7495 11.636 13.057 11.9436Z" fill="#1C274C"/>
</svg>
