<svg width="24" height="24" viewBox="0 0 24 24" fill="none" xmlns="http://www.w3.org/2000/svg">
<path fill-rule="evenodd" clip-rule="evenodd" d="M6.97736 1.32697C7.31458 1.56751 7.39295 2.03587 7.15242 2.37309L6.76635 2.91434C7.39217 3.3886 7.53088 4.27785 7.07189 4.92132L6.66128 5.49699C6.42074 5.83421 5.95238 5.91258 5.61516 5.67205C5.27794 5.43151 5.19957 4.96315 5.4401 4.62594L5.82617 4.08469C5.20035 3.61042 5.06164 2.72117 5.52063 2.0777L5.93124 1.50203C6.17178 1.16481 6.64014 1.08644 6.97736 1.32697ZM10.9774 1.32697C11.3146 1.56751 11.393 2.03587 11.1524 2.37309L10.7663 2.91434C11.3922 3.3886 11.5309 4.27785 11.0719 4.92132L10.6613 5.49699C10.4207 5.83421 9.95238 5.91258 9.61516 5.67205C9.27794 5.43151 9.19957 4.96315 9.4401 4.62594L9.82617 4.08469C9.20035 3.61042 9.06164 2.72117 9.52063 2.0777L9.93124 1.50203C10.1718 1.16481 10.6401 1.08644 10.9774 1.32697ZM14.9774 1.32697C15.3146 1.56751 15.393 2.03587 15.1524 2.37309L14.7663 2.91434C15.3922 3.3886 15.5309 4.27785 15.0719 4.92132L14.6613 5.49699C14.4207 5.83421 13.9524 5.91258 13.6152 5.67205C13.2779 5.43151 13.1996 4.96315 13.4401 4.62594L13.8262 4.08469C13.2003 3.61042 13.0616 2.72117 13.5206 2.0777L13.9312 1.50203C14.1718 1.16481 14.6401 1.08644 14.9774 1.32697ZM7.2215 6.25015H12.7785C13.7343 6.25012 14.5286 6.25009 15.155 6.33637C15.8146 6.42723 16.4084 6.62754 16.8704 7.12139C17.1803 7.45267 17.3545 7.8343 17.4497 8.25015H18C20.6234 8.25015 22.75 10.3768 22.75 13.0001C22.75 15.6235 20.6234 17.7501 18 17.7501H17.0305C17.0207 17.8758 17.0105 17.9984 17 18.118V18.7502H16.9362C16.8989 19.0698 16.8554 19.364 16.8017 19.6337C16.6333 20.479 16.3469 21.1851 15.7553 21.7386C15.1637 22.292 14.4401 22.5309 13.5855 22.6427C12.7634 22.7502 11.725 22.7502 10.4394 22.7502H9.56058C8.27499 22.7502 7.23655 22.7502 6.41451 22.6427C5.55986 22.5309 4.83631 22.292 4.24472 21.7386C3.65312 21.1851 3.3667 20.479 3.19831 19.6337C3.03633 18.8207 2.96727 17.7845 2.88178 16.5018L2.53247 11.2622C2.46886 10.3085 2.416 9.51592 2.46042 8.88522C2.5072 8.22103 2.66757 7.61525 3.1296 7.12139C3.59163 6.62754 4.18539 6.42723 4.845 6.33637C5.47135 6.25009 6.26574 6.25012 7.2215 6.25015ZM17.135 16.2501H18C19.7949 16.2501 21.25 14.7951 21.25 13.0001C21.25 11.2052 19.7949 9.75015 18 9.75015H17.5509C17.5385 10.1986 17.5048 10.7027 17.4675 11.2622L17.135 16.2501ZM15.5635 17.2502H4.4365C4.41653 16.9718 4.39648 16.6724 4.37495 16.3494L4.03274 11.2163C3.96465 10.1949 3.92041 9.50606 3.95671 8.9906C3.99149 8.49678 4.0942 8.28594 4.22497 8.14617C4.35573 8.00639 4.55927 7.88989 5.04969 7.82234C5.56159 7.75183 6.2518 7.75015 7.27555 7.75015H12.7245C13.7482 7.75015 14.4384 7.75183 14.9503 7.82234C15.4407 7.88989 15.6443 8.00639 15.775 8.14617C15.9058 8.28594 16.0085 8.49678 16.0433 8.9906C16.0796 9.50607 16.0354 10.1949 15.9673 11.2163L15.6251 16.3494C15.6035 16.6724 15.5835 16.9718 15.5635 17.2502ZM4.57478 18.7502H15.4252C15.3976 18.9642 15.3666 19.16 15.3306 19.3407C15.1943 20.0251 15.0039 20.3874 14.7305 20.6432C14.4571 20.899 14.0829 21.0648 13.3909 21.1553C12.6775 21.2486 11.7375 21.2502 10.3867 21.2502H9.61332C8.26248 21.2502 7.32247 21.2486 6.60907 21.1553C5.91707 21.0648 5.54291 20.899 5.2695 20.6432C4.99608 20.3874 4.80575 20.0251 4.6694 19.3407C4.63342 19.16 4.60245 18.9642 4.57478 18.7502Z" fill="#1C274C"/>
</svg>
