<svg width="24" height="24" viewBox="0 0 24 24" fill="none" xmlns="http://www.w3.org/2000/svg">
<path fill-rule="evenodd" clip-rule="evenodd" d="M10.5305 1.46967C10.8234 1.76256 10.8234 2.23744 10.5305 2.53033C10.2711 2.78972 10.2711 3.21028 10.5305 3.46967C11.3757 4.31485 11.3757 5.68515 10.5305 6.53033C10.2376 6.82322 9.76272 6.82322 9.46982 6.53033C9.17693 6.23744 9.17693 5.76256 9.46982 5.46967C9.72922 5.21028 9.72922 4.78972 9.46982 4.53033C8.62465 3.68515 8.62465 2.31485 9.46982 1.46967C9.76272 1.17678 10.2376 1.17678 10.5305 1.46967ZM6.03033 2.96967C6.32323 3.26256 6.32323 3.73744 6.03033 4.03033L5.91422 4.14645C5.67097 4.3897 5.6436 4.77479 5.85 5.05C6.50429 5.92239 6.41754 7.14313 5.64645 7.91421L5.53033 8.03033C5.23744 8.32322 4.76257 8.32322 4.46967 8.03033C4.17678 7.73744 4.17678 7.26256 4.46967 6.96967L4.58579 6.85355C4.82904 6.6103 4.85641 6.22521 4.65 5.95C3.99571 5.07761 4.08247 3.85687 4.85356 3.08579L4.96967 2.96967C5.26257 2.67678 5.73744 2.67678 6.03033 2.96967ZM15.5303 2.96967C15.8232 3.26256 15.8232 3.73744 15.5303 4.03033L15.4142 4.14645C15.171 4.3897 15.1436 4.77479 15.35 5.05C16.0043 5.92239 15.9175 7.14313 15.1464 7.91421L15.0303 8.03033C14.7374 8.32322 14.2626 8.32322 13.9697 8.03033C13.6768 7.73744 13.6768 7.26256 13.9697 6.96967L14.0858 6.85355C14.329 6.6103 14.3564 6.22521 14.15 5.95C13.4957 5.07761 13.5825 3.85687 14.3536 3.08579L14.4697 2.96967C14.7626 2.67678 15.2374 2.67678 15.5303 2.96967ZM4.64741 9.24998C4.66999 9.24999 4.6929 9.25 4.71615 9.25H15.2839C15.3071 9.25 15.33 9.24999 15.3526 9.24998C15.7153 9.24982 15.9935 9.24969 16.234 9.29246C16.8957 9.4101 17.4691 9.75939 17.874 10.25H19C21.0711 10.25 22.75 11.9289 22.75 14C22.75 16.0711 21.0711 17.75 19 17.75H17.6478C17.2097 18.8798 16.4487 19.8697 15.4435 20.5864C14.382 21.3432 13.1107 21.75 11.8069 21.75H8.19306C6.88931 21.75 5.61803 21.3432 4.55646 20.5864C3.11566 19.5591 2.17651 17.9704 1.97108 16.2129L1.5704 12.7849C1.5677 12.7618 1.56503 12.739 1.5624 12.7166C1.52014 12.3564 1.48771 12.0801 1.50227 11.8362C1.57801 10.5669 2.51408 9.51505 3.766 9.29246C4.00654 9.24969 4.28475 9.24982 4.64741 9.24998ZM16.4683 16.4711C16.3334 16.6067 16.25 16.7936 16.25 17C16.25 17.0551 16.2559 17.1088 16.2672 17.1605C15.9371 18.0395 15.3512 18.81 14.5728 19.365C13.7654 19.9406 12.7985 20.25 11.8069 20.25H8.19306C7.20149 20.25 6.23463 19.9406 5.42725 19.365C4.33145 18.5837 3.61718 17.3755 3.46094 16.0388L3.06026 12.6107C3.00643 12.1502 2.99405 12.0187 2.9996 11.9255C3.03403 11.3486 3.45952 10.8705 4.02857 10.7693C4.12043 10.753 4.25252 10.75 4.71615 10.75H15.2839C15.7475 10.75 15.8796 10.753 15.9714 10.7693C16.5405 10.8705 16.966 11.3486 17.0004 11.9255C17.006 12.0187 16.9936 12.1502 16.9397 12.6107L16.5391 16.0388C16.522 16.1845 16.4984 16.3288 16.4683 16.4711ZM18.0245 16.25H19C20.2426 16.25 21.25 15.2426 21.25 14C21.25 12.7574 20.2426 11.75 19 11.75H18.4912C18.4939 11.7786 18.496 11.8073 18.4977 11.8362C18.5123 12.0801 18.4799 12.3564 18.4376 12.7166C18.435 12.739 18.4323 12.7618 18.4296 12.7849L18.0289 16.2129C18.0275 16.2253 18.026 16.2376 18.0245 16.25Z" fill="#1C274C"/>
</svg>
