<svg width="24" height="24" viewBox="0 0 24 24" fill="none" xmlns="http://www.w3.org/2000/svg">
<path fill-rule="evenodd" clip-rule="evenodd" d="M5.87868 2.87868C5 3.75736 5 5.17157 5 8V16C5 18.8284 5 20.2426 5.87868 21.1213C6.75736 22 8.17157 22 11 22H13C15.8284 22 17.2426 22 18.1213 21.1213C19 20.2426 19 18.8284 19 16V8C19 5.17157 19 3.75736 18.1213 2.87868C17.2426 2 15.8284 2 13 2H11C8.17157 2 6.75736 2 5.87868 2.87868ZM8.25 17C8.25 16.5858 8.58579 16.25 9 16.25H12C12.4142 16.25 12.75 16.5858 12.75 17C12.75 17.4142 12.4142 17.75 12 17.75H9C8.58579 17.75 8.25 17.4142 8.25 17ZM9 12.25C8.58579 12.25 8.25 12.5858 8.25 13C8.25 13.4142 8.58579 13.75 9 13.75H15C15.4142 13.75 15.75 13.4142 15.75 13C15.75 12.5858 15.4142 12.25 15 12.25H9ZM8.25 9C8.25 8.58579 8.58579 8.25 9 8.25H15C15.4142 8.25 15.75 8.58579 15.75 9C15.75 9.41421 15.4142 9.75 15 9.75H9C8.58579 9.75 8.25 9.41421 8.25 9Z" fill="#1C274C"/>
<path opacity="0.5" d="M5.23525 4.05835C5 4.94164 5 6.17713 5 8.0001V16.0001C5 17.8231 5 19.0586 5.23527 19.9419L5 19.924C4.02491 19.8281 3.36857 19.6114 2.87868 19.1215C2 18.2428 2 16.8286 2 14.0001V10.0001C2 7.17172 2 5.75751 2.87868 4.87883C3.36857 4.38894 4.02491 4.17218 5 4.07627L5.23525 4.05835Z" fill="#1C274C"/>
<path opacity="0.5" d="M18.7646 19.9419C18.9999 19.0586 18.9999 17.8231 18.9999 16.0001V8.0001C18.9999 6.17713 18.9999 4.94164 18.7647 4.05835L18.9999 4.07627C19.975 4.17218 20.6314 4.38894 21.1212 4.87883C21.9999 5.75751 21.9999 7.17172 21.9999 10.0001V14.0001C21.9999 16.8286 21.9999 18.2428 21.1212 19.1215C20.6314 19.6114 19.975 19.8281 18.9999 19.924L18.7646 19.9419Z" fill="#1C274C"/>
</svg>
