<svg width="24" height="24" viewBox="0 0 24 24" fill="none" xmlns="http://www.w3.org/2000/svg">
<path d="M4.01207 15.7618L5.70156 10.6933C6.46758 8.39525 6.85059 7.24623 7.75684 7.03229C8.6631 6.81835 9.51953 7.67478 11.2324 9.38764L14.6114 12.7666C16.3242 14.4795 17.1807 15.3359 16.9667 16.2422C16.7528 17.1484 15.6038 17.5314 13.3057 18.2975L8.23724 19.987C5.47183 20.9088 4.08912 21.3697 3.35924 20.6398C2.62936 19.9099 3.09026 18.5272 4.01207 15.7618Z" stroke="#1C274C" stroke-width="1.5" stroke-linecap="round"/>
<path opacity="0.5" d="M12.2353 18.3461C12.2353 18.3461 11.4771 16.0649 11.4771 14.5552C11.4771 13.0454 12.2353 10.7643 12.2353 10.7643M8.06529 19.4833C8.06529 19.4833 7.42497 16.7314 7.30712 14.9343C7.11242 11.965 8.06529 7.35254 8.06529 7.35254" stroke="#1C274C" stroke-width="1.5" stroke-linecap="round"/>
<path d="M14.5093 10.0061L14.6533 9.28614C14.7986 8.55924 15.3224 7.96597 16.0256 7.73155C16.7289 7.49714 17.2526 6.90387 17.398 6.17697L17.542 5.45703" stroke="#1C274C" stroke-width="1.5" stroke-linecap="round"/>
<path d="M17.5693 13.2533L17.7822 13.3762C18.4393 13.7556 19.2655 13.6719 19.8332 13.1685C20.3473 12.7126 21.0794 12.597 21.709 12.8723L22.0005 12.9997" stroke="#1C274C" stroke-width="1.5" stroke-linecap="round"/>
<path d="M9.79513 2.77952C9.45764 3.33157 9.54223 4.04296 9.99976 4.50049L10.0976 4.59837C10.4908 4.99153 10.6358 5.56911 10.4749 6.10134" stroke="#1C274C" stroke-width="1.5" stroke-linecap="round"/>
<g opacity="0.5">
<path d="M6.92761 3.9403C7.13708 3.73084 7.47669 3.73084 7.68616 3.9403C7.89563 4.14977 7.89563 4.48939 7.68616 4.69886C7.47669 4.90833 7.13708 4.90833 6.92761 4.69886C6.71814 4.48939 6.71814 4.14977 6.92761 3.9403Z" fill="#1C274C"/>
</g>
<g opacity="0.5">
<path d="M12.1571 7.1571C12.3666 6.94763 12.7062 6.94763 12.9157 7.1571C13.1251 7.36657 13.1251 7.70619 12.9157 7.91566C12.7062 8.12512 12.3666 8.12512 12.1571 7.91566C11.9476 7.70619 11.9476 7.36657 12.1571 7.1571Z" fill="#1C274C"/>
</g>
<g opacity="0.5">
<path d="M17.1571 10.1571C17.3666 9.94763 17.7062 9.94763 17.9157 10.1571C18.1251 10.3666 18.1251 10.7062 17.9157 10.9157C17.7062 11.1251 17.3666 11.1251 17.1571 10.9157C16.9476 10.7062 16.9476 10.3666 17.1571 10.1571Z" fill="#1C274C"/>
</g>
<path opacity="0.5" d="M19.0582 15.3134C19.2677 15.1039 19.6073 15.1039 19.8168 15.3134C20.0262 15.5228 20.0262 15.8624 19.8168 16.0719C19.6073 16.2814 19.2677 16.2814 19.0582 16.0719C18.8488 15.8624 18.8488 15.5228 19.0582 15.3134Z" fill="#1C274C"/>
<path d="M19.1724 10.3275L18.687 10.4476L18.7595 10.7404L19.0522 10.8129L19.1724 10.3275ZM21.0004 8.49951L20.5004 8.49818C20.5 8.63125 20.5527 8.75897 20.6468 8.85307C20.7409 8.94716 20.8686 8.99987 21.0017 8.99951L21.0004 8.49951ZM19.1724 10.3275C19.6577 10.2074 19.6577 10.2075 19.6578 10.2076C19.6578 10.2076 19.6578 10.2077 19.6578 10.2077C19.6578 10.2078 19.6578 10.2078 19.6578 10.2078C19.6578 10.2078 19.6578 10.2078 19.6577 10.2075C19.6576 10.2071 19.6574 10.2063 19.6571 10.205C19.6565 10.2024 19.6554 10.198 19.654 10.1919C19.6512 10.1798 19.6469 10.1611 19.6416 10.1364C19.6308 10.0871 19.6159 10.0146 19.5998 9.92497C19.5674 9.74466 19.5313 9.50049 19.5146 9.24011C19.4978 8.97672 19.5021 8.71477 19.5416 8.49257C19.5824 8.26294 19.6509 8.13168 19.7152 8.06743L19.0081 7.36032C18.7372 7.6312 18.6145 7.99421 18.557 8.31748C18.4982 8.64818 18.4971 8.99774 18.5167 9.30399C18.5365 9.61323 18.5787 9.89681 18.6156 10.1018C18.6341 10.2049 18.6515 10.2894 18.6644 10.349C18.6709 10.3788 18.6763 10.4025 18.6802 10.4191C18.6821 10.4275 18.6837 10.4341 18.6849 10.4389C18.6854 10.4413 18.6859 10.4432 18.6863 10.4447C18.6864 10.4454 18.6866 10.446 18.6867 10.4465C18.6868 10.4468 18.6868 10.447 18.6869 10.4472C18.6869 10.4473 18.6869 10.4474 18.6869 10.4474C18.687 10.4475 18.687 10.4476 19.1724 10.3275ZM19.7152 8.06743C19.9579 7.82467 20.1499 7.84323 20.2386 7.88421C20.335 7.92873 20.5015 8.08837 20.5004 8.49818L21.5004 8.50085C21.5022 7.8168 21.2042 7.22868 20.658 6.97637C20.1041 6.72052 19.4752 6.89319 19.0081 7.36032L19.7152 8.06743ZM19.1724 10.3275C19.0522 10.8129 19.0523 10.8129 19.0524 10.8129C19.0525 10.8129 19.0526 10.813 19.0527 10.813C19.0529 10.813 19.0531 10.8131 19.0534 10.8132C19.0538 10.8133 19.0545 10.8134 19.0552 10.8136C19.0567 10.814 19.0586 10.8144 19.061 10.815C19.0658 10.8162 19.0724 10.8177 19.0807 10.8197C19.0974 10.8236 19.1211 10.829 19.1509 10.8355C19.2105 10.8484 19.295 10.8658 19.398 10.8843C19.6031 10.9212 19.8866 10.9634 20.1959 10.9832C20.5021 11.0028 20.8517 11.0017 21.1824 10.9429C21.5057 10.8854 21.8687 10.7627 22.1396 10.4918L21.4325 9.78469C21.3682 9.84895 21.2369 9.91748 21.0073 9.95832C20.7851 9.99783 20.5232 10.0021 20.2598 9.98526C19.9994 9.96859 19.7552 9.93249 19.5749 9.90009C19.4853 9.88399 19.4128 9.86903 19.3634 9.85831C19.3388 9.85295 19.3201 9.84866 19.308 9.84584C19.3019 9.84443 19.2975 9.84339 19.2949 9.84276C19.2936 9.84244 19.2927 9.84223 19.2923 9.84213C19.2921 9.84208 19.292 9.84206 19.2921 9.84207C19.2921 9.84207 19.2921 9.84208 19.2922 9.8421C19.2922 9.8421 19.2923 9.84212 19.2923 9.84213C19.2924 9.84215 19.2925 9.84217 19.1724 10.3275ZM22.1396 10.4918C22.6067 10.0247 22.7794 9.39581 22.5235 8.84191C22.2712 8.29567 21.6831 7.99769 20.999 7.99951L21.0017 8.99951C21.4115 8.99842 21.5712 9.16485 21.6157 9.26124C21.6567 9.34995 21.6752 9.54193 21.4325 9.78469L22.1396 10.4918Z" fill="#1C274C"/>
<path opacity="0.5" d="M15.1882 3.41748L15.1606 3.51459C15.1303 3.62126 15.1152 3.67459 15.1223 3.72695C15.1295 3.77931 15.1582 3.82476 15.2156 3.91567L15.2678 3.99844C15.4696 4.31836 15.5706 4.47831 15.5018 4.60915C15.433 4.73998 15.2401 4.75504 14.8543 4.78517L14.7545 4.79296C14.6448 4.80152 14.59 4.8058 14.5421 4.83099C14.4941 4.85618 14.4585 4.89943 14.3873 4.98592L14.3225 5.06467C14.0719 5.36905 13.9466 5.52124 13.8037 5.50167C13.6607 5.4821 13.5948 5.30373 13.463 4.94699L13.4289 4.85469C13.3915 4.75332 13.3728 4.70263 13.336 4.66584C13.2992 4.62905 13.2485 4.61033 13.1471 4.57287L13.0548 4.53878C12.6981 4.40698 12.5197 4.34108 12.5001 4.19815C12.4806 4.05522 12.6328 3.92992 12.9371 3.67932L13.0159 3.61448C13.1024 3.54327 13.1456 3.50767 13.1708 3.45974C13.196 3.41181 13.2003 3.35699 13.2089 3.24735L13.2166 3.14753C13.2468 2.76169 13.2618 2.56877 13.3927 2.50001C13.5235 2.43124 13.6835 2.53217 14.0034 2.73403L14.0861 2.78626C14.1771 2.84362 14.2225 2.8723 14.2749 2.87947C14.3272 2.88664 14.3806 2.87148 14.4872 2.84117L14.5843 2.81358C14.9597 2.70692 15.1474 2.65359 15.2478 2.75402C15.3482 2.85445 15.2949 3.04213 15.1882 3.41748Z" stroke="#1C274C"/>
</svg>
