<svg width="24" height="24" viewBox="0 0 24 24" fill="none" xmlns="http://www.w3.org/2000/svg">
<path opacity="0.5" d="M3.75712 17.3937L5.18154 18.8181L6.60623 20.2427C7.47332 21.1098 7.90686 21.5434 8.45818 21.7717C9.00949 22.0001 9.62262 22.0001 10.8489 22.0001H13.151C14.3773 22.0001 14.9904 22.0001 15.5417 21.7717C16.093 21.5434 16.5266 21.1098 17.3937 20.2427L20.2426 17.3938C21.1097 16.5267 21.5432 16.0932 21.7716 15.5419C21.9999 14.9905 22 14.3774 22 13.1512V10.849C22 9.62275 21.9999 9.00962 21.7716 8.45831C21.5432 7.90699 21.1097 7.47345 20.2426 6.60636L18.818 5.1819L17.3935 3.75736C16.5264 2.89027 16.0928 2.45672 15.5415 2.22836C14.9902 2 14.3771 2 13.1508 2H10.8487C9.62242 2 9.0093 2 8.45798 2.22836C7.90667 2.45672 7.47312 2.89027 6.60603 3.75736L3.75712 6.60628C2.89002 7.47337 2.45648 7.90691 2.22812 8.45823C1.99976 9.00954 1.99976 9.62267 1.99976 10.8489V13.1511C1.99976 14.3773 1.99976 14.9905 2.22812 15.5418C2.45648 16.0931 2.89002 16.5266 3.75712 17.3937Z" fill="#1C274C"/>
<path d="M18.8181 5.18164L5.18164 18.8179" stroke="#1C274C" stroke-width="1.5"/>
</svg>
