<svg width="24" height="24" viewBox="0 0 24 24" fill="none" xmlns="http://www.w3.org/2000/svg">
<path fill-rule="evenodd" clip-rule="evenodd" d="M7.09871 1.25004C7.14677 1.25006 7.19553 1.25008 7.24502 1.25008H16.755C16.8045 1.25008 16.8532 1.25006 16.9013 1.25004C17.918 1.2496 18.6178 1.24929 19.2071 1.45435C20.32 1.84161 21.1842 2.73726 21.5546 3.86559L20.842 4.09954L21.5546 3.86559C21.7507 4.46271 21.7504 5.17254 21.75 6.22655C21.75 6.27372 21.75 6.32158 21.75 6.37014V20.3743C21.75 21.8395 20.023 22.7118 18.8856 21.671C18.8061 21.5983 18.6939 21.5983 18.6144 21.671L18.1313 22.1131C17.2031 22.9624 15.7969 22.9624 14.8687 22.1131C14.5137 21.7882 13.9863 21.7882 13.6313 22.1131C12.7031 22.9624 11.2969 22.9624 10.3687 22.1131C10.0137 21.7882 9.4863 21.7882 9.13131 22.1131C8.20313 22.9624 6.79687 22.9624 5.86869 22.1131L5.38559 21.671C5.30611 21.5983 5.19389 21.5983 5.11441 21.671C3.97698 22.7118 2.25 21.8395 2.25 20.3743V6.37014C2.25 6.32158 2.24998 6.27372 2.24996 6.22655C2.24958 5.17255 2.24933 4.46271 2.44538 3.86559C2.81584 2.73726 3.67995 1.84161 4.79291 1.45435C5.38223 1.24929 6.08197 1.2496 7.09871 1.25004ZM7.24502 2.75008C6.02393 2.75008 5.60333 2.76057 5.28586 2.87103C4.62648 3.10047 4.09912 3.63728 3.87053 4.3335C3.75945 4.67183 3.75 5.11796 3.75 6.37014V20.3743C3.75 20.4933 3.80992 20.5661 3.8851 20.6009C3.92427 20.619 3.96257 20.6237 3.99449 20.6194C4.02263 20.6156 4.05904 20.6035 4.10178 20.5644C4.75446 19.9671 5.74554 19.9671 6.39822 20.5644L6.88131 21.0065C7.2363 21.3313 7.7637 21.3313 8.11868 21.0065C9.04687 20.1571 10.4531 20.1571 11.3813 21.0065C11.7363 21.3313 12.2637 21.3313 12.6187 21.0065C13.5469 20.1571 14.9531 20.1571 15.8813 21.0065C16.2363 21.3313 16.7637 21.3313 17.1187 21.0065L17.6018 20.5644C18.2545 19.9671 19.2455 19.9671 19.8982 20.5644C19.941 20.6035 19.9774 20.6156 20.0055 20.6194C20.0374 20.6237 20.0757 20.619 20.1149 20.6009C20.1901 20.5661 20.25 20.4934 20.25 20.3743V6.37014C20.25 5.11797 20.2406 4.67183 20.1295 4.3335C19.9009 3.63728 19.3735 3.10047 18.7141 2.87103C18.3967 2.76057 17.9761 2.75008 16.755 2.75008H7.24502ZM6.25 7.50008C6.25 7.08587 6.58578 6.75008 7 6.75008H7.5C7.91421 6.75008 8.25 7.08587 8.25 7.50008C8.25 7.9143 7.91421 8.25008 7.5 8.25008H7C6.58578 8.25008 6.25 7.9143 6.25 7.50008ZM9.75 7.50008C9.75 7.08587 10.0858 6.75008 10.5 6.75008H17C17.4142 6.75008 17.75 7.08587 17.75 7.50008C17.75 7.9143 17.4142 8.25008 17 8.25008H10.5C10.0858 8.25008 9.75 7.9143 9.75 7.50008ZM6.25 11.0001C6.25 10.5859 6.58578 10.2501 7 10.2501H7.5C7.91421 10.2501 8.25 10.5859 8.25 11.0001C8.25 11.4143 7.91421 11.7501 7.5 11.7501H7C6.58578 11.7501 6.25 11.4143 6.25 11.0001ZM9.75 11.0001C9.75 10.5859 10.0858 10.2501 10.5 10.2501H17C17.4142 10.2501 17.75 10.5859 17.75 11.0001C17.75 11.4143 17.4142 11.7501 17 11.7501H10.5C10.0858 11.7501 9.75 11.4143 9.75 11.0001ZM6.25 14.5001C6.25 14.0859 6.58578 13.7501 7 13.7501H7.5C7.91421 13.7501 8.25 14.0859 8.25 14.5001C8.25 14.9143 7.91421 15.2501 7.5 15.2501H7C6.58578 15.2501 6.25 14.9143 6.25 14.5001ZM9.75 14.5001C9.75 14.0859 10.0858 13.7501 10.5 13.7501H17C17.4142 13.7501 17.75 14.0859 17.75 14.5001C17.75 14.9143 17.4142 15.2501 17 15.2501H10.5C10.0858 15.2501 9.75 14.9143 9.75 14.5001Z" fill="#1C274C"/>
</svg>
