<svg width="24" height="24" viewBox="0 0 24 24" fill="none" xmlns="http://www.w3.org/2000/svg">
<path d="M19.9896 3.9909C18.4369 2.46971 16.3083 2.41169 15.2249 3.47306L11.5249 7.09803C11.229 7.3879 10.7541 7.38304 10.4643 7.08715C10.1744 6.79127 10.1792 6.31643 10.4751 6.02655L14.1752 2.40158C16.0111 0.602909 19.0889 1.00858 21.0393 2.91943C22.9925 4.83295 23.4177 7.87497 21.5679 9.68728L18.6607 12.5355C18.3648 12.8254 17.89 12.8205 17.6001 12.5246C17.3102 12.2288 17.3151 11.7539 17.611 11.464L20.5182 8.61581C21.5876 7.56808 21.5395 5.50942 19.9896 3.9909Z" fill="#1C274C"/>
<path d="M6.62403 3.58374C6.39426 3.2391 5.92861 3.14597 5.58396 3.37573C5.23932 3.60549 5.14619 4.07115 5.37595 4.41579L7.37595 7.41579C7.60572 7.76044 8.07137 7.85357 8.41602 7.62381C8.76066 7.39404 8.85379 6.92839 8.62403 6.58374L6.62403 3.58374Z" fill="#1C274C"/>
<path d="M2.23716 7.28826C1.8442 7.15727 1.41946 7.36964 1.28848 7.7626C1.15749 8.15555 1.36986 8.58029 1.76282 8.71128L7.76282 10.7113C8.15578 10.8423 8.58052 10.6299 8.7115 10.2369C8.84249 9.84398 8.63012 9.41924 8.23716 9.28826L2.23716 7.28826Z" fill="#1C274C"/>
<path d="M6.72754 12.5058C7.00699 12.2 6.98568 11.7256 6.67994 11.4462C6.37419 11.1667 5.8998 11.188 5.62034 11.4938L4.35949 12.8733C2.63265 14.7626 3.00982 17.9266 4.86383 19.955C6.72899 21.9956 9.73428 22.4592 11.5188 20.5068L15.5536 16.0924C15.833 15.7866 15.8117 15.3122 15.506 15.0328C15.2002 14.7533 14.7258 14.7746 14.4464 15.0804L10.4116 19.4948C9.41078 20.5898 7.44837 20.5593 5.97102 18.943C4.48252 17.3145 4.40809 15.0434 5.46668 13.8852L6.72754 12.5058Z" fill="#1C274C"/>
</svg>
