<svg width="24" height="24" viewBox="0 0 24 24" fill="none" xmlns="http://www.w3.org/2000/svg">
<path d="M15.7284 3.8836C17.1627 2.44371 19.2608 2.41347 20.4222 3.57944C21.5859 4.74762 21.5546 6.85885 20.1193 8.29972L17.6954 10.733C17.4031 11.0264 17.404 11.5013 17.6975 11.7936C17.9909 12.086 18.4658 12.085 18.7581 11.7916L21.182 9.35833C23.0933 7.43961 23.3332 4.37629 21.485 2.52084C19.6345 0.663185 16.5779 0.905298 14.6657 2.825L9.81802 7.69145C7.90672 9.61017 7.66677 12.6735 9.51503 14.529C9.80736 14.8224 10.2822 14.8234 10.5757 14.531C10.8692 14.2387 10.8701 13.7638 10.5777 13.4704C9.41409 12.3022 9.44543 10.1909 10.8807 8.75006L15.7284 3.8836Z" fill="#1C274C"/>
<path d="M14.4849 9.47037C14.1926 9.17691 13.7177 9.17599 13.4243 9.46832C13.1308 9.76064 13.1299 10.2355 13.4222 10.529C14.5859 11.6972 14.5546 13.8084 13.1192 15.2492L8.27162 20.1157C6.8373 21.5556 4.73922 21.5859 3.57775 20.4199C2.41409 19.2517 2.44543 17.1404 3.88074 15.6996L6.30458 13.2663C6.5969 12.9729 6.59598 12.498 6.30252 12.2057C6.00906 11.9133 5.53419 11.9143 5.24187 12.2077L2.81802 14.641C0.906723 16.5597 0.666764 19.6231 2.51504 21.4785C4.36551 23.3362 7.42206 23.0941 9.33434 21.1744L14.182 16.3078C16.0933 14.3891 16.3332 11.3258 14.4849 9.47037Z" fill="#1C274C"/>
</svg>
