<svg width="24" height="24" viewBox="0 0 24 24" fill="none" xmlns="http://www.w3.org/2000/svg">
<path fill-rule="evenodd" clip-rule="evenodd" d="M14.9098 2.77464L16.7426 4.07618C17.2829 4.45979 17.7547 4.79482 18.0842 5.10994C18.435 5.44542 18.75 5.87447 18.75 6.45932C18.75 7.04417 18.435 7.47321 18.0842 7.80869C17.7547 8.12381 17.2829 8.45885 16.7426 8.84246L12.2954 12.0006L16.7426 15.1587C17.2829 15.5423 17.7547 15.8773 18.0842 16.1925C18.435 16.5279 18.75 16.957 18.75 17.5418C18.75 18.1267 18.435 18.5557 18.0842 18.8912C17.7547 19.2063 17.2829 19.5414 16.7426 19.925L14.9098 21.2265C14.1803 21.7446 13.5644 22.182 13.0535 22.4426C12.5333 22.7079 11.8982 22.9076 11.263 22.5827C10.6261 22.2568 10.4191 21.6237 10.3337 21.0468C10.2499 20.4813 10.25 19.7282 10.25 18.8375L10.25 13.4411L6.4301 16.115C6.09076 16.3525 5.62312 16.27 5.38558 15.9307C5.14804 15.5913 5.23057 15.1237 5.56991 14.8862L9.69216 12.0006L5.56991 9.115C5.23057 8.87746 5.14804 8.40982 5.38558 8.07048C5.62312 7.73114 6.09076 7.64862 6.4301 7.88615L10.25 10.5601V5.22514C10.25 5.20457 10.25 5.18407 10.25 5.16363C10.25 4.27295 10.2499 3.51985 10.3337 2.95438C10.4191 2.37748 10.6261 1.74439 11.263 1.41849C11.8982 1.09352 12.5333 1.29321 13.0535 1.55856C13.5644 1.81914 14.1803 2.25657 14.9098 2.77464ZM11.75 13.453V18.776C11.75 19.7449 11.752 20.3849 11.8175 20.827C11.8492 21.041 11.8891 21.1536 11.9186 21.2097C11.9316 21.2343 11.94 21.2429 11.9409 21.2438C11.9411 21.2441 11.9413 21.2448 11.9463 21.2473C11.9508 21.2496 11.952 21.2498 11.953 21.2499C11.955 21.2502 11.968 21.252 11.9965 21.248C12.0613 21.2391 12.1779 21.2054 12.3719 21.1064C12.7727 20.902 13.2983 20.5311 14.0911 19.9681L15.829 18.734C16.4278 18.3088 16.8071 18.037 17.0474 17.8072C17.1611 17.6984 17.2119 17.6278 17.2343 17.5872C17.2502 17.5583 17.2501 17.5484 17.25 17.5428C17.25 17.5425 17.25 17.5431 17.25 17.5428C17.25 17.5425 17.25 17.5412 17.25 17.5408C17.2501 17.5353 17.2502 17.5254 17.2343 17.4964C17.2119 17.4558 17.1611 17.3852 17.0474 17.2765C16.8071 17.0466 16.4278 16.7749 15.829 16.3497L11.75 13.453ZM11.75 10.5481V5.22514C11.75 4.25628 11.752 3.61625 11.8175 3.17416C11.8492 2.9602 11.8891 2.84754 11.9186 2.79144C11.9316 2.76681 11.94 2.75822 11.9409 2.7573C11.9411 2.75709 11.9413 2.75639 11.9463 2.75387C11.9507 2.75157 11.952 2.7514 11.953 2.75127C11.9529 2.75129 11.9531 2.75126 11.953 2.75127C11.955 2.75097 11.968 2.74916 11.9965 2.7531C12.0613 2.76202 12.1779 2.79579 12.3719 2.89477C12.7727 3.09916 13.2983 3.47006 14.0911 4.033L15.829 5.26717C16.4278 5.69235 16.8071 5.96413 17.0474 6.19396C17.1611 6.3027 17.2119 6.37331 17.2343 6.41391C17.2502 6.44289 17.2501 6.45279 17.25 6.45833C17.25 6.45867 17.25 6.45801 17.25 6.45833C17.25 6.45864 17.25 6.45996 17.25 6.46031C17.2501 6.46585 17.2502 6.47575 17.2343 6.50472C17.2119 6.54533 17.1611 6.61593 17.0474 6.72467C16.8071 6.95451 16.4278 7.22628 15.829 7.65146L11.75 10.5481Z" fill="#1C274C"/>
</svg>
