<svg width="24" height="24" viewBox="0 0 24 24" fill="none" xmlns="http://www.w3.org/2000/svg">
<path d="M13.7522 14.5C13.7522 12.8431 15.0953 11.5 16.7522 11.5C18.4091 11.5 19.7522 12.8431 19.7522 14.5C19.7522 16.1569 18.4091 17.5 16.7522 17.5C15.0953 17.5 13.7522 16.1569 13.7522 14.5Z" fill="#1C274C"/>
<path d="M3.7522 9.5C3.7522 11.1569 5.09534 12.5 6.7522 12.5C8.40905 12.5 9.7522 11.1569 9.7522 9.5C9.7522 7.84315 8.40905 6.5 6.7522 6.5C5.09534 6.5 3.7522 7.84315 3.7522 9.5Z" fill="#1C274C"/>
<g opacity="0.5">
<path d="M7.46167 6.58318C7.2345 6.52817 6.99722 6.49902 6.75314 6.49902C6.47919 6.49902 6.21382 6.53574 5.96167 6.60453L5.96167 1.99902C5.96167 1.58481 6.29746 1.24902 6.71167 1.24902C7.12588 1.24902 7.46167 1.58481 7.46167 1.99902L7.46167 6.58318Z" fill="#1C274C"/>
<path d="M5.96167 12.3935C6.21382 12.4623 6.47919 12.499 6.75314 12.499C6.99722 12.499 7.2345 12.4699 7.46167 12.4149L7.46167 21.999C7.46167 22.4132 7.12588 22.749 6.71167 22.749C6.29746 22.749 5.96167 22.4132 5.96167 21.999L5.96167 12.3935Z" fill="#1C274C"/>
<path d="M15.9617 17.3935V21.999C15.9617 22.4132 16.2975 22.749 16.7117 22.749C17.1259 22.749 17.4617 22.4132 17.4617 21.999V17.4149C17.2345 17.4699 16.9972 17.499 16.7531 17.499C16.4792 17.499 16.2138 17.4623 15.9617 17.3935Z" fill="#1C274C"/>
<path d="M17.4617 11.5832V1.99902C17.4617 1.58481 17.1259 1.24902 16.7117 1.24902C16.2975 1.24902 15.9617 1.58481 15.9617 1.99902V11.6045C16.2138 11.5357 16.4792 11.499 16.7531 11.499C16.9972 11.499 17.2345 11.5282 17.4617 11.5832Z" fill="#1C274C"/>
</g>
</svg>
