<svg width="24" height="24" viewBox="0 0 24 24" fill="none" xmlns="http://www.w3.org/2000/svg">
<path d="M6.1651 3.38437C5.92333 3.7207 6 4.18935 6.33633 4.43112C6.67267 4.67288 7.14131 4.59622 7.38308 4.25989C7.56064 4.01287 7.76725 3.76902 8.00594 3.53033C8.29884 3.23744 8.29884 2.76256 8.00594 2.46967C7.71305 2.17678 7.23818 2.17678 6.94528 2.46967C6.65125 2.7637 6.39165 3.06921 6.1651 3.38437Z" fill="#1C274C"/>
<path d="M5.82757 8.64443C5.41627 8.69344 5.04311 8.39976 4.99409 7.98845C4.8998 7.1973 4.93509 6.38285 5.13814 5.57651C5.23929 5.17484 5.64691 4.93121 6.04858 5.03236C6.45025 5.13351 6.69388 5.54113 6.59273 5.9428C6.43853 6.55516 6.40884 7.18412 6.48355 7.81094C6.53257 8.22224 6.23888 8.59541 5.82757 8.64443Z" fill="#1C274C"/>
<path d="M6.83503 12.2743C7.0906 12.6002 7.56203 12.6573 7.888 12.4017C8.21397 12.1462 8.27104 11.6747 8.01547 11.3488C7.61364 10.8363 7.26725 10.2671 7.00282 9.6664C6.83593 9.28729 6.39332 9.11526 6.01421 9.28215C5.63511 9.44904 5.46307 9.89166 5.62997 10.2708C5.94748 10.992 6.36 11.6684 6.83503 12.2743Z" fill="#1C274C"/>
<path d="M11.2971 14.9172C11.118 15.0458 10.8842 15.0945 10.6555 15.03C9.9069 14.8186 9.17403 14.4287 8.50254 13.9223C8.17184 13.6729 8.10593 13.2026 8.35535 12.8719C8.5247 12.6473 8.7959 12.5449 9.05609 12.5803C9.01929 12.3926 9 12.1985 9 12C9 11.4518 9.14706 10.9379 9.40389 10.4956C9.3621 10.2622 9.4314 10.0128 9.61177 9.83245C9.94903 9.49519 10.3279 9.24063 10.7376 9.06789C10.9367 8.98395 11.1516 8.9925 11.3346 9.07406C11.5486 9.02559 11.7713 9 12 9C12.2421 9 12.4774 9.02867 12.7029 9.08279C12.882 8.95421 13.1158 8.90543 13.3445 8.97C14.0931 9.18141 14.826 9.57126 15.4975 10.0777C15.8282 10.3271 15.8941 10.7974 15.6447 11.1281C15.4753 11.3526 15.2041 11.4551 14.9439 11.4196C14.9807 11.6074 15 11.8014 15 12C15 12.5482 14.8529 13.0621 14.5961 13.5043C14.6379 13.7377 14.5686 13.9871 14.3883 14.1675C14.051 14.5048 13.6721 14.7593 13.2624 14.9321C13.0633 15.016 12.8484 15.0075 12.6655 14.9259C12.4514 14.9744 12.2287 15 12 15C11.7579 15 11.5226 14.9713 11.2971 14.9172Z" fill="#1C274C"/>
<path d="M16.112 11.5982C16.438 11.3427 16.9094 11.3997 17.165 11.7257C17.64 12.3316 18.0525 13.0079 18.3701 13.7292C18.537 14.1083 18.3649 14.5509 17.9858 14.7178C17.6067 14.8847 17.1641 14.7127 16.9972 14.3336C16.7328 13.7329 16.3864 13.1637 15.9846 12.6512C15.729 12.3252 15.7861 11.8538 16.112 11.5982Z" fill="#1C274C"/>
<path d="M19.0059 16.0115C18.9569 15.6002 18.5838 15.3065 18.1725 15.3555C17.7611 15.4046 17.4675 15.7777 17.5165 16.189C17.5912 16.8158 17.5615 17.4448 17.4073 18.0572C17.3061 18.4588 17.5498 18.8665 17.9514 18.9676C18.3531 19.0688 18.7607 18.8251 18.8619 18.4235C19.0649 17.6171 19.1002 16.8027 19.0059 16.0115Z" fill="#1C274C"/>
<path d="M17.6637 19.5689C18 19.8106 18.0767 20.2793 17.8349 20.6156C17.6084 20.9308 17.3488 21.2363 17.0547 21.5303C16.7618 21.8232 16.287 21.8232 15.9941 21.5303C15.7012 21.2374 15.7012 20.7625 15.9941 20.4696C16.2328 20.2309 16.4394 19.9871 16.6169 19.7401C16.8587 19.4037 17.3274 19.3271 17.6637 19.5689Z" fill="#1C274C"/>
<g opacity="0.5">
<path d="M9.83245 14.3873C10.1253 14.6802 10.6002 14.6802 10.8931 14.3873C11.186 14.0944 11.186 13.6195 10.8931 13.3266C10.6884 13.1219 10.5451 12.904 10.4501 12.6787C10.2892 12.297 9.84929 12.1181 9.46761 12.279C9.08593 12.4399 8.90697 12.8798 9.06789 13.2614C9.24063 13.6712 9.49519 14.05 9.83245 14.3873Z" fill="#1C274C"/>
<path d="M8.97 10.6545C8.85743 11.0532 9.08933 11.4676 9.48795 11.5801C9.88657 11.6927 10.301 11.4608 10.4135 11.0622C10.5649 10.5261 10.8578 9.9583 11.2753 9.40477C11.5247 9.07406 11.4588 8.60378 11.1281 8.35437C10.7974 8.10496 10.3271 8.17086 10.0777 8.50157C9.57126 9.17305 9.18141 9.90592 8.97 10.6545Z" fill="#1C274C"/>
<path d="M11.7257 6.83405C11.3997 7.08962 11.3427 7.56105 11.5982 7.88702C11.8538 8.21299 12.3252 8.27006 12.6512 8.01449C13.1637 7.61267 13.7329 7.26628 14.3336 7.00185C14.7127 6.83496 14.8847 6.39234 14.7178 6.01324C14.5509 5.63413 14.1083 5.4621 13.7292 5.62899C13.0079 5.9465 12.3316 6.35902 11.7257 6.83405Z" fill="#1C274C"/>
<path d="M16.0115 4.99311C15.6002 5.04213 15.3065 5.41529 15.3555 5.8266C15.4046 6.2379 15.7777 6.53159 16.189 6.48257C16.8158 6.40787 17.4448 6.43755 18.0572 6.59175C18.4588 6.6929 18.8665 6.44928 18.9676 6.0476C19.0688 5.64593 18.8251 5.23831 18.4235 5.13716C17.6171 4.93411 16.8027 4.89882 16.0115 4.99311Z" fill="#1C274C"/>
<path d="M20.6156 6.16413C20.2793 5.92236 19.8106 5.99902 19.5689 6.33535C19.3271 6.67169 19.4037 7.14033 19.7401 7.3821C19.9871 7.55967 20.2309 7.76628 20.4696 8.00497C20.7625 8.29786 21.2374 8.29786 21.5303 8.00497C21.8232 7.71207 21.8232 7.2372 21.5303 6.94431C21.2363 6.65027 20.9308 6.39067 20.6156 6.16413Z" fill="#1C274C"/>
<path d="M14.1675 9.61079C13.8746 9.3179 13.3997 9.3179 13.1069 9.61079C12.814 9.90369 12.814 10.3786 13.1069 10.6715C13.3116 10.8762 13.4549 11.094 13.5499 11.3194C13.7108 11.701 14.1507 11.88 14.5324 11.7191C14.914 11.5582 15.093 11.1183 14.9321 10.7366C14.7593 10.3269 14.5048 9.94806 14.1675 9.61079Z" fill="#1C274C"/>
<path d="M15.03 13.3435C15.1425 12.9449 14.9106 12.5305 14.512 12.4179C14.1134 12.3054 13.699 12.5373 13.5864 12.9359C13.435 13.472 13.1422 14.0398 12.7247 14.5933C12.4753 14.924 12.5412 15.3943 12.8719 15.6437C13.2026 15.8931 13.6729 15.8272 13.9223 15.4965C14.4287 14.825 14.8186 14.0922 15.03 13.3435Z" fill="#1C274C"/>
<path d="M12.2743 17.164C12.6002 16.9085 12.6573 16.437 12.4017 16.1111C12.1462 15.7851 11.6747 15.728 11.3488 15.9836C10.8363 16.3854 10.2671 16.7318 9.6664 16.9962C9.28729 17.1631 9.11526 17.6057 9.28215 17.9848C9.44904 18.3639 9.89166 18.536 10.2708 18.3691C10.992 18.0516 11.6684 17.639 12.2743 17.164Z" fill="#1C274C"/>
<path d="M7.98845 19.005C8.39976 18.9559 8.69344 18.5828 8.64443 18.1715C8.59541 17.7602 8.22224 17.4665 7.81094 17.5155C7.18412 17.5902 6.55516 17.5605 5.9428 17.4063C5.54113 17.3052 5.13351 17.5488 5.03236 17.9505C4.93121 18.3521 5.17484 18.7598 5.57651 18.8609C6.38285 19.064 7.1973 19.0993 7.98845 19.005Z" fill="#1C274C"/>
<path d="M3.38437 17.8339C3.7207 18.0757 4.18935 17.9991 4.43112 17.6627C4.67288 17.3264 4.59622 16.8577 4.25989 16.616C4.01287 16.4384 3.76902 16.2318 3.53033 15.9931C3.23744 15.7002 2.76256 15.7002 2.46967 15.9931C2.17678 16.286 2.17678 16.7609 2.46967 17.0538C2.7637 17.3478 3.06921 17.6074 3.38437 17.8339Z" fill="#1C274C"/>
</g>
</svg>
