<svg width="24" height="24" viewBox="0 0 24 24" fill="none" xmlns="http://www.w3.org/2000/svg">
<path opacity="0.5" fill-rule="evenodd" clip-rule="evenodd" d="M13.0861 5.04165L2.33239 10.3596C1.96109 10.5433 1.51125 10.3911 1.32764 10.0198C1.14402 9.64853 1.29617 9.19869 1.66746 9.01508L14.0954 2.86914L14.2403 3.87979C14.2408 3.88204 14.2415 3.8851 14.2424 3.88897C14.2472 3.90882 14.2581 3.95019 14.2793 4.01254C14.3217 4.13712 14.4055 4.34661 14.5643 4.63657C14.8821 5.21674 15.5011 6.12073 16.6905 7.31006C17.8798 8.4994 18.7837 9.11834 19.3638 9.43602C19.6537 9.5948 19.8631 9.67857 19.9877 9.72091C20.05 9.7421 20.0913 9.753 20.1112 9.75777C20.115 9.7587 20.1181 9.75939 20.1203 9.75989L21.1311 9.90469L14.9854 22.3329C14.8018 22.7042 14.352 22.8564 13.9807 22.6728C13.6094 22.4892 13.4573 22.0393 13.6409 21.668L18.9586 10.9142C18.8606 10.867 18.7555 10.8131 18.6433 10.7516C18.0245 10.4128 17.1927 9.84435 16.1694 8.89179L5.53025 19.5308C5.23736 19.8237 4.76248 19.8237 4.46959 19.5308C4.1767 19.2379 4.1767 18.7631 4.4696 18.4702L15.1087 7.83114C14.1561 6.80781 13.5877 5.97595 13.2487 5.35715C13.1873 5.24488 13.1333 5.13967 13.0861 5.04165Z" fill="#1C274C"/>
<path d="M20.8236 10.5271L21.1314 9.90469L20.1206 9.75989L20.1114 9.75777C20.0916 9.753 20.0502 9.7421 19.9879 9.72091C19.8634 9.67857 19.6539 9.5948 19.364 9.43602C18.784 9.11834 17.8801 8.4994 16.6907 7.31006C15.5014 6.12073 14.8823 5.21674 14.5646 4.63657C14.4058 4.34661 14.3219 4.13712 14.2796 4.01254C14.2584 3.95019 14.2475 3.90882 14.2427 3.88897L14.2406 3.87979L14.0956 2.86914L13.47 3.17854C15.522 1.49761 18.5545 1.61479 20.4698 3.53008C22.3842 5.4445 22.5022 8.47511 20.8236 10.5271Z" fill="#1C274C"/>
<path d="M18.3144 12.2174L18.9588 10.9142C18.8608 10.867 18.7557 10.8131 18.6435 10.7516C18.0248 10.4128 17.193 9.84435 16.1696 8.89179L13.6505 11.4109C15.01 12.4284 16.7525 12.6972 18.3144 12.2174Z" fill="#1C274C"/>
<path d="M12.5897 10.3504L15.109 7.83114C14.1564 6.80781 13.5879 5.97595 13.249 5.35715C13.1875 5.24488 13.1336 5.13967 13.0863 5.04165L11.782 5.68668C11.3026 7.24866 11.5718 8.99107 12.5897 10.3504Z" fill="#1C274C"/>
</svg>
