<svg width="24" height="24" viewBox="0 0 24 24" fill="none" xmlns="http://www.w3.org/2000/svg">
<circle opacity="0.5" cx="12" cy="9" r="7" fill="#1C274C"/>
<path d="M11.25 15.9609V17.7506H9.5C9.08579 17.7506 8.75 18.0864 8.75 18.5006C8.75 18.9149 9.08579 19.2506 9.5 19.2506H11.25V22.0006C11.25 22.4149 11.5858 22.7506 12 22.7506C12.4142 22.7506 12.75 22.4149 12.75 22.0006V19.2506H14.5C14.9142 19.2506 15.25 18.9149 15.25 18.5006C15.25 18.0864 14.9142 17.7506 14.5 17.7506L12.75 17.7506V15.9609C12.5036 15.9872 12.2534 16.0006 12 16.0006C11.7466 16.0006 11.4964 15.9872 11.25 15.9609Z" fill="#1C274C"/>
</svg>
