<svg width="24" height="24" viewBox="0 0 24 24" fill="none" xmlns="http://www.w3.org/2000/svg">
<path opacity="0.5" d="M11.6065 22.0003H12.3935C15.1009 22.0003 16.4547 22.0003 17.3349 21.1371C18.2151 20.2739 18.3051 18.8579 18.4852 16.026L18.7447 11.9455C18.8424 10.409 18.8913 9.64069 18.4497 9.15384C18.0082 8.66699 17.2625 8.66699 15.7712 8.66699H8.22881C6.73746 8.66699 5.99179 8.66699 5.55023 9.15384C5.10867 9.64069 5.15753 10.409 5.25525 11.9455L5.51476 16.026C5.69486 18.8579 5.78491 20.2739 6.66509 21.1371C7.54528 22.0003 8.89903 22.0003 11.6065 22.0003Z" fill="#1C274C"/>
<path d="M3 6.52381C3 6.12932 3.32671 5.80952 3.72973 5.80952H8.51787C8.52437 4.9683 8.61554 3.81504 9.45037 3.01668C10.1074 2.38839 11.0081 2 12 2C12.9919 2 13.8926 2.38839 14.5496 3.01668C15.3844 3.81504 15.4756 4.9683 15.4821 5.80952H20.2703C20.6733 5.80952 21 6.12932 21 6.52381C21 6.9183 20.6733 7.2381 20.2703 7.2381H3.72973C3.32671 7.2381 3 6.9183 3 6.52381Z" fill="#1C274C"/>
</svg>
