<svg width="24" height="24" viewBox="0 0 24 24" fill="none" xmlns="http://www.w3.org/2000/svg">
<path d="M3.636 20.3635L7.75732 16.2422" stroke="#1C274C" stroke-width="1.5" stroke-linecap="round"/>
<path d="M9.99976 21.9995L12.707 19.7781" stroke="#1C274C" stroke-width="1.5" stroke-linecap="round"/>
<path d="M2.00024 14L4.22192 11.293" stroke="#1C274C" stroke-width="1.5" stroke-linecap="round"/>
<path d="M7.85635 4C9.00545 4.0891 10.4349 4.63632 11.9467 5.56025M5.27368 6.58267C5.4389 8.71337 7.1792 11.8079 9.97569 14.6044C13.8821 18.5108 18.3701 20.3563 20 18.7264C20.8256 17.9008 20.7596 16.3421 19.9858 14.497C19.7357 13.9007 19.4116 13.2745 19.0199 12.6334M14.2184 10.362C11.9622 8.10581 11.4919 6.88372 11.4026 6.38717C11.3713 6.21268 11.4554 6.05189 11.5807 5.92656C13.4274 4.07986 16.4219 4.0803 18.2692 5.92754L18.6529 6.31124C20.5001 8.15848 20.5006 11.153 18.6539 12.9997C18.5285 13.125 18.3674 13.2091 18.1929 13.1777C17.8559 13.1171 17.1854 12.8811 16.0851 12.0319" stroke="#1C274C" stroke-width="1.5" stroke-linecap="round"/>
<path d="M13.0285 13.2702C12.6379 13.6607 12.0048 13.6607 11.6142 13.2702C11.2237 12.8797 11.2237 12.2465 11.6142 11.856C12.0048 11.4655 12.6379 11.4655 13.0285 11.856C13.419 12.2465 13.419 12.8797 13.0285 13.2702Z" fill="#1C274C"/>
<path d="M10.2 9.02757C9.8095 9.41809 9.17634 9.41809 8.78581 9.02757C8.39529 8.63705 8.39529 8.00388 8.78581 7.61336C9.17634 7.22283 9.8095 7.22283 10.2 7.61336C10.5906 8.00388 10.5906 8.63705 10.2 9.02757Z" fill="#1C274C"/>
<path d="M17.2711 16.0986C16.8806 16.4892 16.2474 16.4892 15.8569 16.0986C15.4664 15.7081 15.4664 15.0749 15.8569 14.6844C16.2474 14.2939 16.8806 14.2939 17.2711 14.6844C17.6616 15.0749 17.6616 15.7081 17.2711 16.0986Z" fill="#1C274C"/>
</svg>
