<svg width="24" height="24" viewBox="0 0 24 24" fill="none" xmlns="http://www.w3.org/2000/svg">
<path opacity="0.5" d="M20.5355 20.5355C19.0711 22 16.714 22 12 22C7.28595 22 4.92893 22 3.46447 20.5355C2 19.0711 2 16.714 2 12C2 7.28596 2 4.92893 3.46447 3.46447C4.92893 2 7.28595 2 12 2C16.714 2 19.0711 2 20.5355 3.46447C22 4.92893 22 7.28596 22 12C22 16.714 22 19.0711 20.5355 20.5355Z" fill="#1C274C"/>
<path d="M15.5785 14.8287C15.5785 15.2429 15.2427 15.5787 14.8285 15.5787L10.5858 15.5787C10.1716 15.5787 9.83585 15.2429 9.83585 14.8287C9.83585 14.4145 10.1716 14.0787 10.5858 14.0787H13.0178L8.6413 9.70221C8.34841 9.40931 8.34841 8.93444 8.6413 8.64154C8.93419 8.34865 9.40907 8.34865 9.70196 8.64154L14.0785 13.0181L14.0785 10.5861C14.0785 10.1719 14.4143 9.83609 14.8285 9.83609C15.2427 9.83609 15.5785 10.1719 15.5785 10.5861L15.5785 14.8287Z" fill="#1C274C"/>
</svg>
