<svg width="24" height="24" viewBox="0 0 24 24" fill="none" xmlns="http://www.w3.org/2000/svg">
<path fill-rule="evenodd" clip-rule="evenodd" d="M11.9098 2.77464L13.7426 4.07618C14.2829 4.45979 14.7547 4.79482 15.0842 5.10994C15.435 5.44542 15.75 5.87447 15.75 6.45932C15.75 7.04417 15.435 7.47321 15.0842 7.80869C14.7547 8.12381 14.2829 8.45885 13.7426 8.84246L9.29535 12.0006L13.7426 15.1587C14.2829 15.5423 14.7547 15.8773 15.0842 16.1925C15.435 16.5279 15.75 16.957 15.75 17.5418C15.75 18.1267 15.435 18.5557 15.0842 18.8912C14.7547 19.2063 14.2829 19.5414 13.7426 19.925L11.9098 21.2265C11.1803 21.7446 10.5644 22.182 10.0535 22.4426C9.5333 22.7079 8.89823 22.9076 8.26305 22.5827C7.62606 22.2568 7.41913 21.6237 7.33368 21.0468C7.24992 20.4813 7.24996 19.7282 7.25 18.8375L7.25 13.4411L3.4301 16.115C3.09076 16.3525 2.62312 16.27 2.38558 15.9307C2.14804 15.5913 2.23057 15.1237 2.56991 14.8862L6.69216 12.0006L2.56991 9.115C2.23057 8.87746 2.14804 8.40982 2.38558 8.07048C2.62312 7.73114 3.09076 7.64862 3.4301 7.88615L7.25 10.5601V5.22514C7.25 5.20457 7.25 5.18407 7.25 5.16363C7.24996 4.27295 7.24992 3.51985 7.33368 2.95438C7.41913 2.37748 7.62606 1.74439 8.26305 1.41849C8.89823 1.09352 9.5333 1.29321 10.0535 1.55856C10.5644 1.81914 11.1803 2.25657 11.9098 2.77464ZM8.75 13.453V18.776C8.75 19.7449 8.75201 20.3849 8.81749 20.827C8.84918 21.041 8.88909 21.1536 8.91864 21.2097C8.93162 21.2343 8.94088 21.2438 8.94088 21.2438C8.94088 21.2438 8.94134 21.2448 8.94626 21.2473C8.95075 21.2496 8.95297 21.2499 8.95297 21.2499C8.95498 21.2502 8.96797 21.252 8.99655 21.248C9.06127 21.2391 9.17789 21.2054 9.37194 21.1064C9.77265 20.902 10.2983 20.5311 11.0911 19.9681L12.829 18.734C13.4278 18.3088 13.8071 18.037 14.0474 17.8072C14.1611 17.6984 14.2119 17.6278 14.2343 17.5872C14.2502 17.5583 14.2501 17.5484 14.25 17.5428V17.5408C14.2501 17.5353 14.2502 17.5254 14.2343 17.4964C14.2119 17.4558 14.1611 17.3852 14.0474 17.2765C13.8071 17.0466 13.4278 16.7749 12.829 16.3497L8.75 13.453ZM8.75 10.5481V5.22514C8.75 4.25628 8.75201 3.61625 8.81749 3.17416C8.84918 2.9602 8.88909 2.84754 8.91864 2.79144C8.93162 2.76681 8.94088 2.7573 8.94088 2.7573C8.94088 2.7573 8.94134 2.75639 8.94626 2.75387C8.95075 2.75157 8.95296 2.75127 8.95296 2.75127C8.95497 2.75097 8.96797 2.74916 8.99655 2.7531C9.06127 2.76202 9.17789 2.79579 9.37194 2.89477C9.77265 3.09916 10.2983 3.47006 11.0911 4.033L12.829 5.26717C13.4278 5.69235 13.8071 5.96413 14.0474 6.19396C14.1611 6.3027 14.2119 6.37331 14.2343 6.41391C14.2502 6.44289 14.2501 6.45279 14.25 6.45833V6.46031C14.2501 6.46585 14.2502 6.47575 14.2343 6.50472C14.2119 6.54533 14.1611 6.61593 14.0474 6.72467C13.8071 6.95451 13.4278 7.22628 12.829 7.65146L8.75 10.5481ZM18.4828 4.45747C18.7827 4.17181 19.2574 4.18339 19.5431 4.48333L19.0249 4.9769C19.5431 4.48334 19.5431 4.48333 19.5431 4.48333L19.5444 4.48467L19.5458 4.4862L19.5493 4.48987L19.5583 4.4996C19.5652 4.50716 19.574 4.51686 19.5845 4.52873C19.6055 4.55246 19.6333 4.58486 19.6669 4.6261C19.7343 4.70858 19.825 4.82645 19.9311 4.98112C20.1432 5.29055 20.4166 5.74695 20.6866 6.36127C21.2278 7.59249 21.75 9.44515 21.75 12.0006C21.75 14.556 21.2278 16.4087 20.6866 17.6399C20.4166 18.2542 20.1432 18.7106 19.9311 19.02C19.825 19.1747 19.7343 19.2926 19.6669 19.3751C19.6333 19.4163 19.6055 19.4487 19.5845 19.4724C19.574 19.4843 19.5652 19.494 19.5583 19.5015L19.5493 19.5113L19.5458 19.5149L19.5444 19.5165C19.5444 19.5165 19.5431 19.5178 19.0249 19.0243L19.5431 19.5178C19.2574 19.8178 18.7827 19.8293 18.4828 19.5437C18.1841 19.2592 18.1713 18.7872 18.4533 18.4871L18.4556 18.4847L18.4549 18.4854L18.4533 18.4871L18.4604 18.4792C18.4688 18.4697 18.4839 18.4522 18.5049 18.4265C18.547 18.375 18.6125 18.2905 18.694 18.1717C18.8568 17.9343 19.0834 17.5594 19.3134 17.0363C19.7722 15.9925 20.25 14.3451 20.25 12.0006C20.25 9.656 19.7722 8.00866 19.3134 6.96488C19.0834 6.4417 18.8568 6.06684 18.694 5.82941C18.6125 5.71064 18.547 5.62617 18.5049 5.57466C18.4839 5.54891 18.4688 5.5314 18.4604 5.52198L18.4536 5.51436L18.4549 5.51572L18.4558 5.51667M18.4828 4.45747C18.1841 4.74195 18.1716 5.21422 18.4536 5.51436L18.4828 4.45747ZM16.6507 7.33689C17.0172 7.14397 17.4708 7.28472 17.6637 7.65127L17 8.00058C17.6637 7.65127 17.6637 7.65127 17.6637 7.65127L17.6645 7.6528L17.6657 7.65504L17.6691 7.6616L17.68 7.68295C17.6891 7.70078 17.7016 7.72577 17.717 7.7575C17.748 7.82092 17.7908 7.91143 17.8416 8.02566C17.943 8.25377 18.0768 8.57837 18.2103 8.9723C18.4751 9.75357 18.75 10.8393 18.75 12.0006C18.75 13.1618 18.4751 14.2476 18.2103 15.0289C18.0768 15.4228 17.943 15.7474 17.8416 15.9755C17.7908 16.0897 17.748 16.1802 17.717 16.2437C17.7016 16.2754 17.6891 16.3004 17.68 16.3182L17.6691 16.3396L17.6657 16.3461L17.6645 16.3484L17.6639 16.3496C17.6639 16.3496 17.6637 16.3499 17 16.0006L17.6639 16.3496C17.4709 16.7161 17.0172 16.8572 16.6507 16.6643C16.2845 16.4715 16.1436 16.0186 16.3358 15.6522M16.3363 15.6513L16.3425 15.6392C16.3481 15.6282 16.357 15.6103 16.3689 15.586C16.3926 15.5373 16.4279 15.463 16.4709 15.3663C16.557 15.1725 16.6732 14.8909 16.7897 14.5473C17.0249 13.8536 17.25 12.9393 17.25 12.0006C17.25 11.0618 17.0249 10.1476 16.7897 9.45385C16.6732 9.11028 16.557 8.82863 16.4709 8.63487C16.4279 8.53815 16.3926 8.46382 16.3689 8.41513C16.357 8.39081 16.3481 8.37293 16.3425 8.3619L16.3367 8.35058L16.3362 8.34961C16.1435 7.98311 16.2842 7.52976 16.6507 7.33689" fill="#1C274C"/>
</svg>
