<svg width="24" height="24" viewBox="0 0 24 24" fill="none" xmlns="http://www.w3.org/2000/svg">
<path d="M6.4443 3.68567C6.97115 3.33364 7.52766 3.03419 8.10577 2.78977C9.50868 2.19663 10.2101 1.90006 11.1051 2.49333C12 3.08659 12 4.05785 12 6.00036V8.00036C12 9.88598 12 10.8288 12.5858 11.4146C13.1716 12.0004 14.1144 12.0004 16 12.0004H18C19.9425 12.0004 20.9138 12.0004 21.507 12.8953C22.1003 13.7902 21.8037 14.4917 21.2106 15.8946C20.9662 16.4727 20.6667 17.0292 20.3147 17.5561C19.2159 19.2006 17.6541 20.4823 15.8268 21.2392C13.9996 21.996 11.9889 22.1941 10.0491 21.8082C8.10929 21.4224 6.32746 20.47 4.92894 19.0714C3.53041 17.6729 2.578 15.8911 2.19215 13.9513C1.8063 12.0115 2.00433 10.0008 2.76121 8.17353C3.51809 6.34627 4.79981 4.78448 6.4443 3.68567Z" fill="#1C274C"/>
<path fill-rule="evenodd" clip-rule="evenodd" d="M13.7737 2.12769C13.877 1.72655 14.2859 1.48506 14.687 1.58831C18.4657 2.56086 21.4388 5.534 22.4113 9.31265C22.5146 9.71379 22.2731 10.1227 21.872 10.2259C21.4708 10.3292 21.0619 10.0877 20.9587 9.68653C20.1224 6.43715 17.5625 3.8773 14.3131 3.04096C13.912 2.93772 13.6705 2.52883 13.7737 2.12769Z" fill="#1C274C"/>
</svg>
