<svg width="24" height="24" viewBox="0 0 24 24" fill="none" xmlns="http://www.w3.org/2000/svg">
<circle opacity="0.5" cx="18.5" cy="4.5" r="2.5" stroke="#1C274C" stroke-width="1.5"/>
<path d="M9 17L7.99923 18.2009C7.262 19.0856 6.89338 19.5279 6.38945 19.764C5.88552 20 5.30973 20 4.15813 20H3" stroke="#1C274C" stroke-width="1.5" stroke-linecap="round"/>
<path d="M5.43568 8.82121L5.06517 8.16911V8.16911L5.43568 8.82121ZM3.62949 8.98484C3.26935 9.18947 3.14328 9.6473 3.34791 10.0074C3.55253 10.3676 4.01037 10.4937 4.37051 10.289L3.62949 8.98484ZM15.7502 10.126L15.1262 10.542L15.1262 10.542L15.7502 10.126ZM15.8125 10.2194L16.4366 9.80339L16.4366 9.80339L15.8125 10.2194ZM10.9688 6.65426L11.0462 5.90827L10.9688 6.65426ZM10.7398 6.63687L10.7065 7.38613H10.7065L10.7398 6.63687ZM10.1548 6.67417L10.0522 5.93122L10.0522 5.93122L10.1548 6.67417ZM21 12.7506C21.4142 12.7506 21.75 12.4148 21.75 12.0006C21.75 11.5864 21.4142 11.2506 21 11.2506V12.7506ZM5.06517 8.16911L3.62949 8.98484L4.37051 10.289L5.80619 9.4733L5.06517 8.16911ZM15.1262 10.542L15.1885 10.6355L16.4366 9.80339L16.3742 9.70992L15.1262 10.542ZM11.0462 5.90827C10.9438 5.89764 10.853 5.89115 10.773 5.88761L10.7065 7.38613C10.7559 7.38832 10.8172 7.39256 10.8914 7.40025L11.0462 5.90827ZM5.80619 9.4733C8.12451 8.15607 9.19204 7.56423 10.2574 7.41712L10.0522 5.93122C8.63309 6.12718 7.27343 6.91442 5.06517 8.16911L5.80619 9.4733ZM19.1407 12.7506H21V11.2506H19.1407V12.7506ZM10.773 5.88761C10.5099 5.87595 10.2617 5.90228 10.0522 5.93122L10.2574 7.41712C10.4355 7.39252 10.5786 7.38046 10.7065 7.38613L10.773 5.88761ZM15.1885 10.6355C16.0695 11.9569 17.5525 12.7506 19.1407 12.7506V11.2506C18.0541 11.2506 17.0393 10.7075 16.4366 9.80339L15.1885 10.6355ZM16.3742 9.70992C15.1968 7.94381 13.4289 6.15558 11.0462 5.90827L10.8914 7.40025C12.5939 7.57697 14.0254 8.89085 15.1262 10.542L16.3742 9.70992Z" fill="#1C274C"/>
<path opacity="0.5" d="M14.0001 8.5L11.7793 11.2756C10.9429 12.321 10.5246 12.8438 10.4579 13.413C10.4204 13.733 10.4608 14.0573 10.5756 14.3584C10.7798 14.8939 11.3134 15.2981 12.3807 16.1066C13.1936 16.7225 13.6 17.0304 13.8755 17.4329C14.0326 17.6625 14.157 17.9129 14.2452 18.1767C14.3997 18.6394 14.3997 19.1493 14.3997 20.1692V21.9998" stroke="#1C274C" stroke-width="1.5" stroke-linecap="round"/>
</svg>
