<svg width="24" height="24" viewBox="0 0 24 24" fill="none" xmlns="http://www.w3.org/2000/svg">
<path fill-rule="evenodd" clip-rule="evenodd" d="M17.2059 1.85655C16.1431 1.43787 15.116 1.7213 14.389 2.3679C13.6798 2.9986 13.25 3.97026 13.25 5.00039V9.00039C13.25 9.96689 14.0335 10.7504 15 10.7504H19C20.0301 10.7504 21.0018 10.3206 21.6325 9.61139C22.2791 8.88436 22.5625 7.85727 22.1438 6.79449C21.2558 4.54028 19.4601 2.74459 17.2059 1.85655ZM14.75 9.00039V5.00039C14.75 4.37367 15.0149 3.81867 15.3858 3.48874C15.7389 3.17472 16.1774 3.06356 16.6561 3.25216C18.5233 3.98774 20.0127 5.4771 20.7482 7.34428C20.9368 7.82304 20.8257 8.26146 20.5117 8.61454C20.1817 8.9855 19.6267 9.25039 19 9.25039H15C14.8619 9.25039 14.75 9.13846 14.75 9.00039Z" fill="#1C274C"/>
<path fill-rule="evenodd" clip-rule="evenodd" d="M10.9953 2.87033C10.3847 2.47481 9.79417 2.36094 9.1457 2.47401C8.59499 2.57004 8.00554 2.8342 7.37816 3.11536L7.31056 3.14564C6.78871 3.37935 6.28506 3.65733 5.80541 3.97782C4.11981 5.1041 2.80604 6.70493 2.03024 8.57788C1.25444 10.4508 1.05146 12.5118 1.44696 14.5001C1.84245 16.4884 2.81867 18.3147 4.25216 19.7482C5.68565 21.1817 7.51202 22.1579 9.50033 22.5534C11.4886 22.9489 13.5496 22.7459 15.4225 21.9701C17.2955 21.1943 18.8963 19.8806 20.0226 18.195C20.3431 17.7153 20.621 17.2117 20.8547 16.6898L20.885 16.6222C21.1662 15.9948 21.4303 15.4054 21.5264 14.8547C21.6394 14.2062 21.5256 13.6156 21.1301 13.0051C20.7036 12.347 20.1199 12.0253 19.406 11.8796C18.7721 11.7502 17.98 11.7503 17.0722 11.7504L15.5 11.7504C14.536 11.7504 13.8884 11.7488 13.4054 11.6838C12.9439 11.6218 12.7464 11.5146 12.6161 11.3843C12.4858 11.254 12.3786 11.0565 12.3165 10.595C12.2516 10.112 12.25 9.46439 12.25 8.50038L12.25 6.9282C12.2501 6.02039 12.2502 5.22832 12.1208 4.59443C11.9751 3.88052 11.6534 3.29674 10.9953 2.87033ZM7.92364 4.51463C8.64284 4.19255 9.05972 4.01164 9.40336 3.95172C9.66896 3.90541 9.87762 3.93355 10.1797 4.12923C10.434 4.29403 10.5687 4.49074 10.6511 4.89444C10.7464 5.36141 10.75 5.99882 10.75 7.00038L10.75 8.55238C10.75 9.45084 10.7499 10.2001 10.8299 10.7949C10.9143 11.4227 11.1 11.9895 11.5555 12.4449C12.0109 12.9004 12.5777 13.0861 13.2055 13.1705C13.8003 13.2504 14.5495 13.2504 15.448 13.2504L17 13.2504C18.0016 13.2504 18.639 13.254 19.1059 13.3493C19.5096 13.4317 19.7064 13.5663 19.8712 13.8207C20.0668 14.1228 20.095 14.3314 20.0487 14.597C19.9887 14.9407 19.8078 15.3575 19.4858 16.0767C19.2863 16.5222 19.049 16.9521 18.7754 17.3616C17.8139 18.8006 16.4473 19.9221 14.8485 20.5843C13.2496 21.2466 11.4903 21.4199 9.79296 21.0823C8.09563 20.7446 6.53653 19.9113 5.31282 18.6876C4.08911 17.4639 3.25575 15.9048 2.91813 14.2074C2.58051 12.5101 2.75379 10.7508 3.41606 9.1519C4.07833 7.55305 5.19983 6.18649 6.63876 5.22502C7.04824 4.95142 7.47817 4.71413 7.92364 4.51463Z" fill="#1C274C"/>
</svg>
