<svg width="24" height="24" viewBox="0 0 24 24" fill="none" xmlns="http://www.w3.org/2000/svg">
<path fill-rule="evenodd" clip-rule="evenodd" d="M5.42671 1.25002C5.45079 1.25004 5.47522 1.25005 5.49999 1.25005C5.52476 1.25005 5.54918 1.25004 5.57326 1.25002C5.96599 1.24983 6.26898 1.24968 6.53648 1.30289C7.62738 1.51988 8.48015 2.37265 8.69715 3.46355C8.75036 3.73105 8.75021 4.03405 8.75001 4.42677C8.75 4.45086 8.74999 4.47528 8.74999 4.50005V4.75005H15.25V4.50005C15.25 4.47528 15.25 4.45086 15.25 4.42677C15.2498 4.03405 15.2496 3.73105 15.3028 3.46355C15.5198 2.37265 16.3726 1.51988 17.4635 1.30289C17.731 1.24968 18.034 1.24983 18.4267 1.25002C18.4508 1.25004 18.4752 1.25005 18.5 1.25005C18.5248 1.25005 18.5492 1.25004 18.5733 1.25002C18.966 1.24983 19.269 1.24968 19.5365 1.30289C20.6274 1.51988 21.4802 2.37265 21.6971 3.46355C21.7504 3.73105 21.7502 4.03404 21.75 4.42676C21.75 4.45084 21.75 4.47527 21.75 4.50005V6.50005C21.75 6.52482 21.75 6.54925 21.75 6.57334C21.7502 6.96606 21.7504 7.26904 21.6971 7.53654C21.4802 8.62744 20.6274 9.48021 19.5365 9.69721C19.269 9.75042 18.966 9.75027 18.5733 9.75007C18.5492 9.75006 18.5248 9.75005 18.5 9.75005C18.4752 9.75005 18.4508 9.75006 18.4267 9.75007C18.034 9.75027 17.731 9.75042 17.4635 9.69721C16.3726 9.48021 15.5198 8.62744 15.3028 7.53655C15.2496 7.26904 15.2498 6.96605 15.25 6.57332C15.25 6.54924 15.25 6.52482 15.25 6.50005V6.25005H12.75V8.00005C12.75 8.41426 12.4142 8.75005 12 8.75005C11.5858 8.75005 11.25 8.41426 11.25 8.00005V6.25005H8.74999V6.50005C8.74999 6.52482 8.75 6.54924 8.75001 6.57332C8.75021 6.96605 8.75036 7.26904 8.69715 7.53654C8.48015 8.62744 7.62738 9.48021 6.53648 9.69721C6.26898 9.75042 5.96599 9.75027 5.57326 9.75007C5.54918 9.75006 5.52476 9.75005 5.49999 9.75005C5.47522 9.75005 5.4508 9.75006 5.42671 9.75007C5.03398 9.75027 4.73099 9.75042 4.46349 9.69721C3.37259 9.48021 2.51982 8.62744 2.30283 7.53655C2.24962 7.26904 2.24977 6.96605 2.24996 6.57332C2.24997 6.54924 2.24999 6.52482 2.24999 6.50005V4.50005C2.24999 4.47528 2.24997 4.45086 2.24996 4.42677C2.24977 4.03405 2.24962 3.73105 2.30283 3.46355C2.51982 2.37265 3.37259 1.51988 4.46349 1.30289C4.73099 1.24968 5.03398 1.24983 5.42671 1.25002ZM7.24999 4.50005C7.24999 3.99944 7.24635 3.85867 7.22597 3.75618C7.12733 3.26032 6.73971 2.8727 6.24385 2.77407C6.14136 2.75368 6.00059 2.75005 5.49999 2.75005C4.99938 2.75005 4.85861 2.75368 4.75612 2.77407C4.26026 2.8727 3.87264 3.26032 3.774 3.75618C3.75362 3.85867 3.74999 3.99944 3.74999 4.50005V6.50005C3.74999 7.00065 3.75362 7.14142 3.774 7.24391C3.87264 7.73977 4.26026 8.1274 4.75612 8.22603C4.85861 8.24641 4.99938 8.25005 5.49999 8.25005C6.00059 8.25005 6.14136 8.24641 6.24385 8.22603C6.73971 8.1274 7.12733 7.73977 7.22597 7.24391C7.24635 7.14142 7.24999 7.00065 7.24999 6.50005V4.50005ZM16.75 6.50005C16.75 7.00065 16.7536 7.14142 16.774 7.24391C16.8726 7.73977 17.2603 8.1274 17.7561 8.22603C17.8586 8.24641 17.9994 8.25005 18.5 8.25005C19.0006 8.25005 19.1414 8.24641 19.2438 8.22603C19.7397 8.1274 20.1273 7.73977 20.226 7.24391C20.2464 7.14142 20.25 7.00065 20.25 6.50005V4.50005C20.25 3.99944 20.2464 3.85867 20.226 3.75618C20.1273 3.26032 19.7397 2.8727 19.2438 2.77407C19.1414 2.75368 19.0006 2.75005 18.5 2.75005C17.9994 2.75005 17.8586 2.75368 17.7561 2.77407C17.2603 2.8727 16.8726 3.26032 16.774 3.75618C16.7536 3.85867 16.75 3.99944 16.75 4.50005V6.50005ZM9.46966 9.46972C9.76255 9.17682 10.2374 9.17682 10.5303 9.46972L12 10.9394L13.4697 9.46972C13.7625 9.17682 14.2374 9.17682 14.5303 9.46972C14.8232 9.76261 14.8232 10.2375 14.5303 10.5304L13.0606 12L14.5303 13.4697C14.8232 13.7626 14.8232 14.2375 14.5303 14.5304C14.2374 14.8233 13.7625 14.8233 13.4697 14.5304L12 13.0607L10.5303 14.5304C10.2374 14.8233 9.76255 14.8233 9.46966 14.5304C9.17676 14.2375 9.17676 13.7626 9.46966 13.4697L10.9393 12L9.46966 10.5304C9.17676 10.2375 9.17676 9.76261 9.46966 9.46972ZM5.42671 14.25C5.4508 14.25 5.47522 14.25 5.49999 14.25C5.52476 14.25 5.54918 14.25 5.57326 14.25C5.96599 14.2498 6.26898 14.2497 6.53648 14.3029C7.62738 14.5199 8.48015 15.3727 8.69715 16.4635C8.75036 16.7311 8.75021 17.034 8.75001 17.4268C8.75 17.4509 8.74999 17.4753 8.74999 17.5V17.75H11.25V16C11.25 15.5858 11.5858 15.25 12 15.25C12.4142 15.25 12.75 15.5858 12.75 16V17.75H15.25V17.5C15.25 17.4753 15.25 17.4509 15.25 17.4268C15.2498 17.034 15.2496 16.7311 15.3028 16.4635C15.5198 15.3727 16.3726 14.5199 17.4635 14.3029C17.731 14.2497 18.034 14.2498 18.4267 14.25C18.4508 14.25 18.4752 14.25 18.5 14.25C18.5248 14.25 18.5492 14.25 18.5733 14.25C18.966 14.2498 19.269 14.2497 19.5365 14.3029C20.6274 14.5199 21.4802 15.3727 21.6971 16.4635C21.7504 16.7311 21.7502 17.034 21.75 17.4268C21.75 17.4508 21.75 17.4753 21.75 17.5V19.5C21.75 19.5248 21.75 19.5492 21.75 19.5733C21.7502 19.9661 21.7504 20.269 21.6971 20.5365C21.4802 21.6274 20.6274 22.4802 19.5365 22.6972C19.269 22.7504 18.966 22.7503 18.5733 22.7501C18.5492 22.7501 18.5248 22.75 18.5 22.75C18.4752 22.75 18.4508 22.7501 18.4267 22.7501C18.034 22.7503 17.731 22.7504 17.4635 22.6972C16.3726 22.4802 15.5198 21.6274 15.3028 20.5365C15.2496 20.269 15.2498 19.966 15.25 19.5733C15.25 19.5492 15.25 19.5248 15.25 19.5V19.25H8.74999V19.5C8.74999 19.5248 8.75 19.5492 8.75001 19.5733C8.75021 19.966 8.75036 20.269 8.69715 20.5365C8.48015 21.6274 7.62738 22.4802 6.53648 22.6972C6.26898 22.7504 5.966 22.7503 5.57328 22.7501C5.54919 22.7501 5.52476 22.75 5.49999 22.75C5.47521 22.75 5.45078 22.7501 5.4267 22.7501C5.03398 22.7503 4.73099 22.7504 4.46349 22.6972C3.37259 22.4802 2.51982 21.6274 2.30283 20.5365C2.24962 20.269 2.24977 19.9661 2.24996 19.5733C2.24997 19.5492 2.24999 19.5248 2.24999 19.5V17.5C2.24999 17.4753 2.24997 17.4509 2.24996 17.4268C2.24977 17.034 2.24962 16.7311 2.30283 16.4635C2.51982 15.3727 3.37259 14.5199 4.46349 14.3029C4.73099 14.2497 5.03399 14.2498 5.42671 14.25ZM7.24999 17.5C7.24999 16.9994 7.24635 16.8587 7.22597 16.7562C7.12733 16.2603 6.73971 15.8727 6.24385 15.7741C6.14136 15.7537 6.00059 15.75 5.49999 15.75C4.99938 15.75 4.85861 15.7537 4.75612 15.7741C4.26026 15.8727 3.87264 16.2603 3.774 16.7562C3.75362 16.8587 3.74999 16.9994 3.74999 17.5V19.5C3.74999 20.0007 3.75362 20.1414 3.774 20.2439C3.87264 20.7398 4.26026 21.1274 4.75612 21.226C4.85861 21.2464 4.99938 21.25 5.49999 21.25C6.00059 21.25 6.14136 21.2464 6.24385 21.226C6.73971 21.1274 7.12733 20.7398 7.22597 20.2439C7.24635 20.1414 7.24999 20.0007 7.24999 19.5V17.5ZM16.75 19.5C16.75 20.0007 16.7536 20.1414 16.774 20.2439C16.8726 20.7398 17.2603 21.1274 17.7561 21.226C17.8586 21.2464 17.9994 21.25 18.5 21.25C19.0006 21.25 19.1414 21.2464 19.2438 21.226C19.7397 21.1274 20.1273 20.7398 20.226 20.2439C20.2464 20.1414 20.25 20.0007 20.25 19.5V17.5C20.25 16.9994 20.2464 16.8587 20.226 16.7562C20.1273 16.2603 19.7397 15.8727 19.2438 15.7741C19.1414 15.7537 19.0006 15.75 18.5 15.75C17.9994 15.75 17.8586 15.7537 17.7561 15.7741C17.2603 15.8727 16.8726 16.2603 16.774 16.7562C16.7536 16.8587 16.75 16.9994 16.75 17.5V19.5Z" fill="#1C274C"/>
</svg>
