<svg width="24" height="24" viewBox="0 0 24 24" fill="none" xmlns="http://www.w3.org/2000/svg">
<g opacity="0.5">
<path d="M11.1566 20.3133C16.2137 20.3133 20.3133 16.2137 20.3133 11.1566C20.3133 6.09956 16.2137 2 11.1566 2C6.09956 2 2 6.09956 2 11.1566C2 16.2137 6.09956 20.3133 11.1566 20.3133Z" fill="#1C274C"/>
</g>
<path fill-rule="evenodd" clip-rule="evenodd" d="M11.1565 8.02344C11.5557 8.02344 11.8793 8.34709 11.8793 8.74633V10.4331H13.5661C13.9653 10.4331 14.289 10.7567 14.289 11.156C14.289 11.5552 13.9653 11.8789 13.5661 11.8789H11.8793V13.5656C11.8793 13.9648 11.5557 14.2885 11.1565 14.2885C10.7572 14.2885 10.4336 13.9648 10.4336 13.5656V11.8789H8.74682C8.34758 11.8789 8.02393 11.5552 8.02393 11.156C8.02393 10.7567 8.34758 10.4331 8.74682 10.4331H10.4336V8.74633C10.4336 8.34709 10.7572 8.02344 11.1565 8.02344Z" fill="#1C274C"/>
<path fill-rule="evenodd" clip-rule="evenodd" d="M18.8387 18.8387C19.121 18.5564 19.5787 18.5564 19.861 18.8387L21.7887 20.7664C22.071 21.0487 22.071 21.5064 21.7887 21.7887C21.5064 22.071 21.0487 22.071 20.7664 21.7887L18.8387 19.861C18.5564 19.5787 18.5564 19.121 18.8387 18.8387Z" fill="#1C274C"/>
</svg>
