<svg width="24" height="24" viewBox="0 0 24 24" fill="none" xmlns="http://www.w3.org/2000/svg">
<path opacity="0.5" d="M20.1278 11.1429C20.1278 16.1924 16.0697 20.2858 11.0639 20.2858C6.05804 20.2858 2 16.1924 2 11.1429C2 6.09342 6.05804 2 11.0639 2C16.0697 2 20.1278 6.09342 20.1278 11.1429Z" fill="#1C274C"/>
<path fill-rule="evenodd" clip-rule="evenodd" d="M17.8196 19.7011C17.7303 18.6069 18.6359 17.6934 19.7206 17.7835C19.9087 17.7991 20.1339 17.8675 20.3632 17.9372C20.3853 17.944 20.4074 17.9507 20.4295 17.9574C20.4495 17.9634 20.4695 17.9694 20.4895 17.9754C20.7003 18.0388 20.9099 18.1018 21.0693 18.1879C21.9846 18.6823 22.28 19.8636 21.7068 20.7368C21.6069 20.8888 21.452 21.0446 21.2963 21.2012C21.2815 21.2161 21.2668 21.231 21.252 21.2458C21.2373 21.2607 21.2225 21.2756 21.2078 21.2906C21.0525 21.4476 20.8981 21.6039 20.7473 21.7046C19.8817 22.2828 18.7106 21.9848 18.2205 21.0616C18.1351 20.9007 18.0727 20.6893 18.0099 20.4767C18.0039 20.4566 17.9979 20.4364 17.9919 20.4162C17.9853 20.3939 17.9786 20.3715 17.972 20.3493C17.9029 20.1179 17.835 19.8908 17.8196 19.7011Z" fill="#1C274C"/>
</svg>
