<svg width="24" height="24" viewBox="0 0 24 24" fill="none" xmlns="http://www.w3.org/2000/svg">
<path d="M18 9C18 9 18.5 9.9 18.5 12C18.5 14.1 18 15 18 15" stroke="#1C274C" stroke-width="1.5" stroke-linecap="round"/>
<path d="M1.95863 8.57776C2.24482 8.04661 2.79239 7.5314 3.33997 7.27805C3.9393 7.00076 4.62626 7.00076 6.00018 7.00076C6.51225 7.00076 6.76828 7.00076 7.01629 6.95888C7.26147 6.91748 7.50056 6.84576 7.72804 6.74536C7.95815 6.6438 8.1719 6.50287 8.59941 6.22099L8.81835 6.07664C11.3613 4.39995 12.6328 3.56161 13.7001 3.92585C13.9048 3.99568 14.1029 4.09648 14.2798 4.22081C15.2025 4.86927 15.2726 6.37797 15.4128 9.39538C15.4647 10.5126 15.5001 11.4689 15.5001 12.0008C15.5001 12.5326 15.4647 13.4889 15.4128 14.6062C15.2726 17.6236 15.2025 19.1323 14.2798 19.7807C14.1029 19.905 13.9048 20.0058 13.7001 20.0757C12.6328 20.4399 11.3613 19.6016 8.81834 17.9249L8.59941 17.7805C8.1719 17.4987 7.95815 17.3577 7.72804 17.2562C7.50056 17.1558 7.26147 17.084 7.01629 17.0426C6.76828 17.0008 6.51225 17.0008 6.00018 17.0008C4.62626 17.0008 3.9393 17.0008 3.33997 16.7235C2.79239 16.4701 2.24482 15.9549 1.95863 15.4238C1.6454 14.8424 1.60856 14.238 1.53488 13.0292C1.52396 12.85 1.51525 12.6732 1.50928 12.5008" stroke="#1C274C" stroke-width="1.5" stroke-linecap="round"/>
</svg>
