<svg width="24" height="24" viewBox="0 0 24 24" fill="none" xmlns="http://www.w3.org/2000/svg">
<path d="M5.95863 8.57776C6.24482 8.04661 6.79239 7.5314 7.33997 7.27805C7.9393 7.00076 8.62626 7.00076 10.0002 7.00076C10.5122 7.00076 10.7683 7.00076 11.0163 6.95888C11.2615 6.91748 11.5006 6.84576 11.728 6.74536C11.9581 6.6438 12.1719 6.50287 12.5994 6.22099L12.8183 6.07664C15.3613 4.39995 16.6328 3.56161 17.7001 3.92585C17.9048 3.99568 18.1029 4.09648 18.2798 4.22081C19.2025 4.86927 19.2726 6.37797 19.4128 9.39538C19.4647 10.5126 19.5001 11.4689 19.5001 12.0008C19.5001 12.5326 19.4647 13.4889 19.4128 14.6062C19.2726 17.6236 19.2025 19.1323 18.2798 19.7807C18.1029 19.905 17.9048 20.0058 17.7001 20.0757C16.6328 20.4399 15.3613 19.6016 12.8183 17.9249L12.5994 17.7805C12.1719 17.4987 11.9581 17.3577 11.728 17.2562C11.5006 17.1558 11.2615 17.084 11.0163 17.0426C10.7683 17.0008 10.5122 17.0008 10.0002 17.0008C8.62626 17.0008 7.9393 17.0008 7.33997 16.7235C6.79239 16.4701 6.24482 15.9549 5.95863 15.4238C5.6454 14.8424 5.60856 14.238 5.53488 13.0292C5.52396 12.85 5.51525 12.6732 5.50928 12.5008" stroke="#1C274C" stroke-width="1.5" stroke-linecap="round"/>
</svg>
