<svg width="24" height="24" viewBox="0 0 24 24" fill="none" xmlns="http://www.w3.org/2000/svg">
<path d="M6.09054 7.31123L6.18085 6.56668L6.09054 7.31123ZM8.93063 7.65568L8.84033 8.40023L8.93063 7.65568ZM10.513 11.0597L11.1516 11.4531L10.513 11.0597ZM8.02218 11.5898L8.11248 10.8453C7.70638 10.796 7.33572 11.0813 7.27934 11.4865L8.02218 11.5898ZM9.64468 11.684L9.4615 10.9567L9.4615 10.9567L9.64468 11.684ZM10.17 7.90862L10.5248 7.24783L10.5248 7.24783L10.17 7.90862ZM10.8387 8.71931L10.1182 8.92753L10.1182 8.92753L10.8387 8.71931ZM3.95469 7.88439L3.31612 7.49104V7.49104L3.95469 7.88439ZM4.82305 7.26012L4.63987 6.53283L4.63987 6.53283L4.82305 7.26012ZM3.62902 10.2248L2.9085 10.433L2.9085 10.433L3.62902 10.2248ZM5.89212 11.3315L6.63496 11.4349C6.66269 11.2356 6.60919 11.0335 6.48648 10.8741C6.36378 10.7146 6.18215 10.6112 5.98242 10.587L5.89212 11.3315ZM4.2977 11.0355L4.65247 10.3747L4.65247 10.3747L4.2977 11.0355ZM6.97053 21.7416L6.88023 22.4862L6.97053 21.7416ZM4.13045 21.3972L4.22075 20.6526L4.13045 21.3972ZM9.37732 20.0114L10.1202 20.1147L9.37732 20.0114ZM9.10638 21.1685L8.46781 20.7751L8.46781 20.7751L9.10638 21.1685ZM8.23802 21.7927L8.4212 22.52H8.4212L8.23802 21.7927ZM7.16896 17.7214L6.42612 17.618C6.39839 17.8173 6.45189 18.0193 6.5746 18.1788C6.6973 18.3382 6.87893 18.4417 7.07866 18.4659L7.16896 17.7214ZM8.76338 18.0174L9.11814 17.3566L9.11814 17.3566L8.76338 18.0174ZM9.43206 18.8281L8.71154 19.0363L8.71154 19.0363L9.43206 18.8281ZM2.2771 19.1502L3.01995 19.2536L2.2771 19.1502ZM2.54804 17.9931L1.90946 17.5998H1.90946L2.54804 17.9931ZM5.0389 17.463L4.9486 18.2076C5.3547 18.2568 5.72536 17.9716 5.78174 17.5664L5.0389 17.463ZM3.4164 17.3689L3.23322 16.6416H3.23322L3.4164 17.3689ZM2.22236 20.3335L1.50184 20.5418L2.22236 20.3335ZM2.89104 21.1442L2.53628 21.805H2.53628L2.89104 21.1442ZM6.00024 8.05577L8.84033 8.40023L9.02093 6.91114L6.18085 6.56668L6.00024 8.05577ZM10.0411 9.79926C9.99665 10.1189 9.96835 10.319 9.93615 10.4693C9.90564 10.6118 9.88231 10.6537 9.87447 10.6664L11.1516 11.4531C11.2858 11.2353 11.3549 11.0074 11.4029 10.7834C11.4492 10.5673 11.4853 10.304 11.5268 10.006L10.0411 9.79926ZM7.93188 12.3344C8.25813 12.374 8.61265 12.4171 8.92097 12.4408C9.19133 12.4616 9.55305 12.4805 9.82786 12.4113L9.4615 10.9567C9.48116 10.9518 9.45851 10.9592 9.36364 10.9598C9.27917 10.9603 9.16966 10.9555 9.03588 10.9452C8.76711 10.9245 8.44789 10.886 8.11248 10.8453L7.93188 12.3344ZM9.87447 10.6664C9.7929 10.7988 9.64864 10.9096 9.4615 10.9567L9.82786 12.4113C10.3741 12.2737 10.8545 11.9354 11.1516 11.4531L9.87447 10.6664ZM8.84033 8.40023C9.18071 8.44151 9.40101 8.46859 9.56825 8.4998C9.72998 8.52999 9.78897 8.55529 9.81527 8.56941L10.5248 7.24783C10.3042 7.12939 10.0743 7.06835 9.84345 7.02526C9.61814 6.98321 9.34219 6.9501 9.02093 6.91114L8.84033 8.40023ZM11.5268 10.006C11.5683 9.70804 11.6054 9.4448 11.6198 9.22462C11.6347 8.99693 11.6305 8.75774 11.5592 8.5111L10.1182 8.92753C10.1211 8.93763 10.1325 8.98124 10.123 9.1266C10.113 9.27947 10.0856 9.47952 10.0411 9.79926L11.5268 10.006ZM9.81527 8.56941C9.97631 8.65587 10.0783 8.78944 10.1182 8.92753L11.5592 8.5111C11.4013 7.96454 11.0222 7.51488 10.5248 7.24783L9.81527 8.56941ZM4.4266 9.14486C4.47109 8.82518 4.49939 8.62515 4.53159 8.47478C4.5621 8.3323 4.58543 8.29047 4.59327 8.27774L3.31612 7.49104C3.18196 7.70884 3.11281 7.9367 3.06484 8.1607C3.01856 8.37683 2.98239 8.64008 2.94092 8.93812L4.4266 9.14486ZM6.18085 6.56668C5.85953 6.52771 5.58375 6.49391 5.35455 6.48082C5.11929 6.4674 4.88223 6.47179 4.63987 6.53283L5.00623 7.9874C5.03888 7.97918 5.10475 7.96901 5.26907 7.97839C5.43945 7.98811 5.65991 8.01449 6.00024 8.05577L6.18085 6.56668ZM4.59327 8.27774C4.67483 8.14533 4.8191 8.03454 5.00623 7.9874L4.63987 6.53283C4.09367 6.6704 3.61321 7.00873 3.31612 7.49104L4.59327 8.27774ZM2.94092 8.93812C2.89946 9.23609 2.86236 9.49933 2.84794 9.7195C2.83303 9.94719 2.83723 10.1864 2.9085 10.433L4.34954 10.0166C4.34662 10.0065 4.33521 9.96287 4.34473 9.81752C4.35474 9.66466 4.38211 9.46461 4.4266 9.14486L2.94092 8.93812ZM5.98242 10.587C5.64698 10.5463 5.32784 10.5074 5.06241 10.4633C4.93026 10.4413 4.82326 10.4199 4.74207 10.3993C4.65034 10.3761 4.63225 10.3639 4.65247 10.3747L3.94294 11.6963C4.19322 11.8307 4.55057 11.8988 4.81636 11.943C5.12099 11.9936 5.47559 12.0365 5.80182 12.076L5.98242 10.587ZM2.9085 10.433C3.06644 10.9796 3.44552 11.4292 3.94294 11.6963L4.65247 10.3747C4.49142 10.2882 4.38944 10.1547 4.34954 10.0166L2.9085 10.433ZM7.06083 20.9971L4.22075 20.6526L4.04015 22.1417L6.88023 22.4862L7.06083 20.9971ZM8.63447 19.908C8.58999 20.2277 8.56169 20.4277 8.52949 20.5781C8.49898 20.7206 8.47565 20.7624 8.46781 20.7751L9.74496 21.5618C9.87912 21.344 9.94827 21.1162 9.99624 20.8922C10.0425 20.676 10.0787 20.4128 10.1202 20.1147L8.63447 19.908ZM6.88023 22.4862C7.20155 22.5252 7.47733 22.559 7.70653 22.572C7.9418 22.5855 8.17885 22.5811 8.4212 22.52L8.05484 21.0655C8.02219 21.0737 7.95633 21.0839 7.79201 21.0745C7.62164 21.0648 7.40117 21.0384 7.06083 20.9971L6.88023 22.4862ZM8.46781 20.7751C8.38625 20.9075 8.24198 21.0183 8.05484 21.0655L8.4212 22.52C8.96741 22.3825 9.44787 22.0441 9.74496 21.5618L8.46781 20.7751ZM7.07866 18.4659C7.41409 18.5066 7.73324 18.5455 7.99867 18.5896C8.13082 18.6116 8.23782 18.633 8.31901 18.6535C8.41074 18.6768 8.42883 18.689 8.40861 18.6782L9.11814 17.3566C8.86786 17.2222 8.51051 17.1541 8.24472 17.1099C7.94009 17.0593 7.58549 17.0164 7.25926 16.9768L7.07866 18.4659ZM10.1202 20.1147C10.1616 19.8168 10.1987 19.5535 10.2131 19.3334C10.2281 19.1057 10.2239 18.8665 10.1526 18.6198L8.71154 19.0363C8.71446 19.0464 8.72587 19.09 8.71635 19.2353C8.70634 19.3882 8.67897 19.5883 8.63447 19.908L10.1202 20.1147ZM8.40861 18.6782C8.56966 18.7646 8.67164 18.8982 8.71154 19.0363L10.1526 18.6198C9.99464 18.0733 9.61555 17.6236 9.11814 17.3566L8.40861 18.6782ZM3.01995 19.2536C3.06443 18.9339 3.09273 18.7339 3.12493 18.5835C3.15544 18.441 3.17877 18.3992 3.18661 18.3865L1.90946 17.5998C1.7753 17.8176 1.70615 18.0454 1.65818 18.2694C1.6119 18.4856 1.57574 18.7488 1.53426 19.0469L3.01995 19.2536ZM5.1292 16.7185C4.80295 16.6789 4.44842 16.6358 4.14011 16.6121C3.86974 16.5913 3.50803 16.5724 3.23322 16.6416L3.59958 18.0961C3.57991 18.1011 3.60257 18.0936 3.69744 18.0931C3.78191 18.0925 3.89141 18.0974 4.0252 18.1077C4.29397 18.1283 4.61319 18.1669 4.9486 18.2076L5.1292 16.7185ZM3.18661 18.3865C3.26818 18.2541 3.41244 18.1433 3.59958 18.0961L3.23322 16.6416C2.68701 16.7791 2.20655 17.1175 1.90946 17.5998L3.18661 18.3865ZM1.53426 19.0469C1.4928 19.3448 1.4557 19.6081 1.44128 19.8282C1.42637 20.0559 1.43057 20.2951 1.50184 20.5418L2.94288 20.1253C2.93996 20.1152 2.92856 20.0716 2.93807 19.9263C2.94809 19.7734 2.97545 19.5734 3.01995 19.2536L1.53426 19.0469ZM4.22075 20.6526C3.88036 20.6114 3.66007 20.5843 3.49282 20.5531C3.3311 20.5229 3.27211 20.4976 3.24581 20.4835L2.53628 21.805C2.7569 21.9235 2.98678 21.9845 3.21762 22.0276C3.44293 22.0697 3.71888 22.1028 4.04015 22.1417L4.22075 20.6526ZM1.50184 20.5418C1.65978 21.0883 2.03887 21.538 2.53628 21.805L3.24581 20.4835C3.08477 20.397 2.98279 20.2634 2.94288 20.1253L1.50184 20.5418ZM5.78174 17.5664L6.63496 11.4349L5.14927 11.2281L4.29606 17.3597L5.78174 17.5664ZM7.27934 11.4865L6.42612 17.618L7.9118 17.8247L8.76502 11.6932L7.27934 11.4865Z" fill="#1C274C"/>
<path d="M21.0123 12.6706L21.5917 12.1944V12.1944L21.0123 12.6706ZM18.4682 12.4526L17.7473 12.6595C17.8588 13.048 18.2581 13.2783 18.6502 13.1802L18.4682 12.4526ZM20.0631 12.159L20.1546 11.4146L20.0631 12.159ZM19.7438 15.5125C19.342 15.613 19.0978 16.0203 19.1983 16.4221C19.2988 16.8239 19.706 17.0682 20.1079 16.9677L19.7438 15.5125ZM21.1186 15.8364L21.5553 16.4461L21.1186 15.8364ZM21.6665 14.9503L22.4092 15.055V15.055L21.6665 14.9503ZM14.9612 16.6276L14.3818 17.1038H14.3818L14.9612 16.6276ZM15.8189 17.8836C16.23 17.9342 16.6042 17.6418 16.6548 17.2307C16.7053 16.8196 16.413 16.4454 16.0019 16.3948L15.8189 17.8836ZM14.3069 14.348L13.5643 14.2432V14.2432L14.3069 14.348ZM16.3934 12.9716L16.5754 13.6992C16.7727 13.6499 16.9415 13.5225 17.0431 13.3463C17.1447 13.1701 17.1704 12.9602 17.1143 12.7647L16.3934 12.9716ZM14.8549 13.4618L15.2917 14.0715L14.8549 13.4618ZM15.988 2.51977L16.17 3.24735L15.988 2.51977ZM13.2216 3.21178L13.0396 2.4842L13.0396 2.4842L13.2216 3.21178ZM18.1863 2.82425L17.6069 3.30047V3.30047L18.1863 2.82425ZM17.2371 2.31265L17.3286 1.56825L17.2371 2.31265ZM16.7541 6.48024L16.5721 5.75266C16.3748 5.80202 16.206 5.92939 16.1044 6.10557C16.0028 6.28176 15.9771 6.49165 16.0332 6.68715L16.7541 6.48024ZM18.2926 5.99003L17.8558 5.38033L18.2926 5.99003ZM18.8406 5.10391L18.0979 4.99918V4.99918L18.8406 5.10391ZM12.1352 6.78128L12.7146 6.30506H12.7146L12.1352 6.78128ZM14.6793 6.99926L15.4002 6.79235C15.2887 6.40385 14.8894 6.17359 14.4973 6.27168L14.6793 6.99926ZM13.0844 7.29288L13.1759 6.54848H13.1759L13.0844 7.29288ZM11.4809 4.50162L12.2236 4.60634L11.4809 4.50162ZM12.0289 3.6155L12.4657 4.2252L12.0289 3.6155ZM22.1656 13.5772C22.0822 13.2867 22.0092 13.0306 21.9329 12.8226C21.8537 12.6068 21.7536 12.3914 21.5917 12.1944L20.4329 13.1468C20.4443 13.1608 20.4741 13.2013 20.5246 13.3391C20.578 13.4846 20.6345 13.6798 20.7238 13.991L22.1656 13.5772ZM18.6502 13.1802C18.9769 13.0985 19.2877 13.0209 19.5511 12.9673C19.6821 12.9406 19.7899 12.9223 19.8736 12.9124C19.9674 12.9013 19.9911 12.9058 19.9716 12.9034L20.1546 11.4146C19.8732 11.38 19.5173 11.4433 19.2518 11.4974C18.9494 11.559 18.6039 11.6455 18.2862 11.725L18.6502 13.1802ZM21.5917 12.1944C21.2327 11.7576 20.7133 11.4833 20.1546 11.4146L19.9716 12.9034C20.166 12.9273 20.3294 13.021 20.4329 13.1468L21.5917 12.1944ZM20.1079 16.9677C20.4207 16.8894 20.6898 16.8225 20.9075 16.7529C21.1305 16.6816 21.3513 16.5922 21.5553 16.4461L20.6818 15.2267C20.6598 15.2424 20.6066 15.2743 20.4508 15.3241C20.2897 15.3756 20.0755 15.4295 19.7438 15.5125L20.1079 16.9677ZM20.7238 13.991C20.8132 14.3024 20.8687 14.4976 20.9003 14.6481C20.9305 14.7917 20.9252 14.8362 20.9239 14.8455L22.4092 15.055C22.4451 14.8007 22.4152 14.5629 22.3683 14.3397C22.3229 14.1235 22.2489 13.8675 22.1656 13.5772L20.7238 13.991ZM21.5553 16.4461C22.0151 16.1167 22.3296 15.6194 22.4092 15.055L20.9239 14.8455C20.9043 14.9842 20.8246 15.1244 20.6818 15.2267L21.5553 16.4461ZM13.8079 15.721C13.8913 16.0115 13.9643 16.2676 14.0406 16.4757C14.1197 16.6914 14.2199 16.9068 14.3818 17.1038L15.5406 16.1514C15.5292 16.1375 15.4994 16.097 15.4489 15.9591C15.3955 15.8136 15.339 15.6185 15.2497 15.3072L13.8079 15.721ZM14.3818 17.1038C14.7408 17.5406 15.2602 17.815 15.8189 17.8836L16.0019 16.3948C15.8075 16.3709 15.6441 16.2773 15.5406 16.1514L14.3818 17.1038ZM15.2497 15.3072C15.1603 14.9959 15.1048 14.8007 15.0731 14.6501C15.043 14.5065 15.0483 14.4621 15.0496 14.4527L13.5643 14.2432C13.5284 14.4975 13.5583 14.7353 13.6052 14.9585C13.6506 15.1747 13.7246 15.4307 13.8079 15.721L15.2497 15.3072ZM16.2114 12.2441C15.8937 12.3235 15.5481 12.4098 15.2531 12.4977C14.9966 12.5741 14.6498 12.6862 14.4182 12.8521L15.2917 14.0715C15.2714 14.0861 15.2862 14.0722 15.3737 14.0379C15.4509 14.0077 15.5536 13.9733 15.6814 13.9353C15.938 13.8588 16.2486 13.781 16.5754 13.6992L16.2114 12.2441ZM15.0496 14.4527C15.0691 14.3141 15.1489 14.1739 15.2917 14.0715L14.4182 12.8521C13.9584 13.1815 13.6439 13.6788 13.5643 14.2432L15.0496 14.4527ZM15.806 1.79219L13.0396 2.4842L13.4036 3.93937L16.17 3.24735L15.806 1.79219ZM19.3396 3.73083C19.2562 3.44038 19.1832 3.18429 19.1069 2.9762C19.0277 2.76045 18.9276 2.54505 18.7657 2.34802L17.6069 3.30047C17.6183 3.31441 17.6481 3.35492 17.6986 3.49275C17.752 3.63824 17.8085 3.83342 17.8978 4.14464L19.3396 3.73083ZM16.17 3.24735C16.5016 3.1644 16.7161 3.1111 16.8834 3.08047C17.0444 3.05098 17.1113 3.05283 17.1456 3.05704L17.3286 1.56825C17.0805 1.53775 16.8451 1.56255 16.6132 1.605C16.3877 1.6463 16.1189 1.71391 15.806 1.79219L16.17 3.24735ZM18.7657 2.34802C18.4067 1.91129 17.8873 1.63692 17.3286 1.56825L17.1456 3.05704C17.34 3.08093 17.5034 3.17461 17.6069 3.30047L18.7657 2.34802ZM16.9361 7.20782C17.2538 7.12835 17.5994 7.04205 17.8944 6.95417C18.1508 6.87777 18.4977 6.76566 18.7293 6.59973L17.8558 5.38033C17.8761 5.36581 17.8613 5.37966 17.7738 5.41397C17.6966 5.44421 17.5939 5.47853 17.4661 5.5166C17.2095 5.59305 16.8988 5.67091 16.5721 5.75266L16.9361 7.20782ZM17.8978 4.14464C17.9872 4.45601 18.0427 4.65121 18.0743 4.80178C18.1045 4.94536 18.0992 4.98982 18.0979 4.99918L19.5832 5.20864C19.6191 4.95435 19.5892 4.71657 19.5423 4.49339C19.4969 4.2772 19.4229 4.02115 19.3396 3.73083L17.8978 4.14464ZM18.7293 6.59973C19.1891 6.27036 19.5036 5.77305 19.5832 5.20863L18.0979 4.99918C18.0784 5.13782 17.9986 5.27801 17.8558 5.38033L18.7293 6.59973ZM10.9819 5.87469C11.0653 6.16514 11.1383 6.42123 11.2146 6.62932C11.2938 6.84508 11.3939 7.06048 11.5558 7.2575L12.7146 6.30506C12.7032 6.29111 12.6734 6.2506 12.6229 6.11278C12.5695 5.96728 12.513 5.77211 12.4237 5.46088L10.9819 5.87469ZM14.4973 6.27168C14.1706 6.35341 13.8597 6.43101 13.5964 6.48462C13.4654 6.5113 13.3576 6.52961 13.2739 6.53951C13.1801 6.55062 13.1563 6.54608 13.1759 6.54848L12.9929 8.03728C13.2743 8.07187 13.6301 8.00853 13.8957 7.95446C14.1981 7.89289 14.5436 7.80632 14.8613 7.72684L14.4973 6.27168ZM11.5558 7.2575C11.9148 7.69423 12.4342 7.96861 12.9929 8.03728L13.1759 6.54848C12.9815 6.52459 12.8181 6.43091 12.7146 6.30506L11.5558 7.2575ZM12.4237 5.46088C12.3343 5.14951 12.2788 4.95431 12.2471 4.80374C12.217 4.66017 12.2223 4.61571 12.2236 4.60634L10.7383 4.39689C10.7024 4.65117 10.7323 4.88896 10.7792 5.11214C10.8246 5.32832 10.8986 5.58437 10.9819 5.87469L12.4237 5.46088ZM13.0396 2.4842C12.7268 2.56245 12.4577 2.62941 12.24 2.69901C12.017 2.77028 11.7962 2.85967 11.5922 3.0058L12.4657 4.2252C12.4877 4.20945 12.5409 4.17758 12.6967 4.12777C12.8577 4.0763 13.072 4.02233 13.4036 3.93937L13.0396 2.4842ZM12.2236 4.60634C12.2431 4.4677 12.3229 4.32752 12.4657 4.2252L11.5922 3.0058C11.1324 3.33516 10.8179 3.83247 10.7383 4.39689L12.2236 4.60634ZM13.9584 7.20616L15.6725 13.1785L17.1143 12.7647L15.4002 6.79235L13.9584 7.20616ZM19.1891 12.2457L17.475 6.27334L16.0332 6.68715L17.7473 12.6595L19.1891 12.2457Z" fill="#1C274C"/>
</svg>
