<svg width="24" height="24" viewBox="0 0 24 24" fill="none" xmlns="http://www.w3.org/2000/svg">
<circle cx="11.5" cy="4.5" r="2.5" stroke="#1C274C" stroke-width="1.5"/>
<path d="M9 17.5L6 22" stroke="#1C274C" stroke-width="1.5" stroke-linecap="round"/>
<path d="M10.3754 11.2469L11.1217 11.3215L10.3754 11.2469ZM10.2132 12.8685L10.9595 12.9432L10.2132 12.8685ZM14.003 11.3365L13.5229 11.9127L13.5229 11.9127L14.003 11.3365ZM14.0844 11.4043L14.5645 10.8281L14.5645 10.8281L14.0844 11.4043ZM17.9157 11.4043L17.4355 10.8281L17.9157 11.4043ZM19.4802 11.0768C19.7984 10.8117 19.8414 10.3387 19.5762 10.0205C19.311 9.70233 18.8381 9.65934 18.5199 9.92451L19.4802 11.0768ZM14.2282 20.0648L14.9752 19.9983L14.2282 20.0648ZM13.6534 22.0671C13.6901 22.4797 14.0543 22.7844 14.4669 22.7477C14.8795 22.711 15.1842 22.3468 15.1475 21.9342L13.6534 22.0671ZM15.3142 12.276L15.057 12.9805L15.057 12.9805L15.3142 12.276ZM16.6859 12.276L16.9431 12.9805L16.9431 12.9805L16.6859 12.276ZM12.0937 10.2429L11.9136 10.9709L11.9136 10.9709L12.0937 10.2429ZM12.2424 10.2991L11.9998 11.0088L11.9998 11.0088L12.2424 10.2991ZM13.4813 10.9262L13.9097 10.3106L13.9097 10.3106L13.4813 10.9262ZM11.8171 16.1363L12.2146 15.5003L11.8171 16.1363ZM13.4812 17.3724L12.8969 17.8427H12.8969L13.4812 17.3724ZM13.8794 18.0214L13.1956 18.3294L13.1956 18.3294L13.8794 18.0214ZM10.2049 14.5601L9.48906 14.784H9.48906L10.2049 14.5601ZM10.4738 15.1081L9.85886 15.5374L9.85886 15.5374L10.4738 15.1081ZM10.4855 10.6846L11.1677 10.9963L10.4855 10.6846ZM11.3087 10.1039L11.244 9.35673L11.3087 10.1039ZM9.62912 11.1722L9.46695 12.7939L10.9595 12.9432L11.1217 11.3215L9.62912 11.1722ZM13.5229 11.9127L13.6042 11.9805L14.5645 10.8281L14.4831 10.7603L13.5229 11.9127ZM18.3958 11.9805L19.4802 11.0768L18.5199 9.92451L17.4355 10.8281L18.3958 11.9805ZM13.4811 20.1312L13.6534 22.0671L15.1475 21.9342L14.9752 19.9983L13.4811 20.1312ZM13.6042 11.9805C14.1593 12.4431 14.5771 12.8053 15.057 12.9805L15.5714 11.5715C15.3971 11.5079 15.2131 11.3686 14.5645 10.8281L13.6042 11.9805ZM17.4355 10.8281C16.787 11.3686 16.6029 11.5079 16.4287 11.5715L16.9431 12.9805C17.423 12.8053 17.8407 12.4431 18.3958 11.9805L17.4355 10.8281ZM15.057 12.9805C15.666 13.2028 16.334 13.2028 16.9431 12.9805L16.4287 11.5715C16.1518 11.6725 15.8482 11.6725 15.5714 11.5715L15.057 12.9805ZM11.9136 10.9709C11.9148 10.9712 11.9156 10.9714 11.9163 10.9716C11.917 10.9718 11.9171 10.9718 11.9169 10.9718C11.9168 10.9717 11.9158 10.9715 11.9141 10.9711C11.9127 10.9707 11.9091 10.9698 11.9045 10.9685C11.9006 10.9674 11.8907 10.9647 11.8781 10.9607C11.8715 10.9587 11.8616 10.9554 11.8496 10.9511C11.8385 10.9471 11.8195 10.94 11.7966 10.9297C11.7847 10.9244 11.7694 10.9171 11.7519 10.9078C11.7348 10.8987 11.7116 10.8855 11.6852 10.8678C11.6597 10.8506 11.6235 10.824 11.5844 10.7865C11.5462 10.7497 11.4931 10.691 11.4471 10.6076C11.3992 10.5207 11.358 10.4045 11.3543 10.266C11.3525 10.1982 11.3599 10.132 11.3751 10.069C11.3903 10.0065 11.4122 9.95112 11.4367 9.90334C11.4847 9.80985 11.5429 9.74455 11.5854 9.70391C11.6284 9.66277 11.6683 9.6344 11.6953 9.61687C11.7231 9.59876 11.7473 9.58572 11.7638 9.57731C11.7808 9.56867 11.7951 9.56221 11.8048 9.558C11.8225 9.55027 11.837 9.54485 11.838 9.5445C11.8443 9.54208 11.8355 9.54541 11.8311 9.54715C11.8241 9.54985 11.8106 9.55526 11.7938 9.56287C11.7771 9.57044 11.7531 9.58205 11.7252 9.59829C11.6977 9.61437 11.6611 9.6381 11.6214 9.67133C11.5817 9.70465 11.534 9.75169 11.4893 9.81529C11.4437 9.8803 11.4028 9.96063 11.3779 10.0554C11.3528 10.1507 11.3478 10.2457 11.3584 10.3346C11.3687 10.4216 11.3928 10.495 11.4184 10.5525C11.4439 10.6094 11.4726 10.6547 11.497 10.6882C11.5216 10.7219 11.5454 10.7488 11.565 10.769C11.6029 10.808 11.6376 10.8353 11.6592 10.8512C11.6822 10.8682 11.7023 10.881 11.7165 10.8896C11.7441 10.9063 11.7676 10.9181 11.7808 10.9246C11.7955 10.9317 11.8084 10.9374 11.8181 10.9416C11.8372 10.9499 11.8557 10.9571 11.8716 10.9631C11.9036 10.9753 11.9453 10.9901 11.9998 11.0088L12.4849 9.58936C12.4367 9.57289 12.4131 9.56428 12.404 9.5608C12.3992 9.55898 12.4031 9.56036 12.4119 9.56416C12.4165 9.56613 12.4253 9.57001 12.4367 9.57558C12.4467 9.58044 12.4679 9.59098 12.4938 9.60671C12.5072 9.61481 12.5266 9.62715 12.549 9.64368C12.5701 9.65918 12.6044 9.68613 12.642 9.72489C12.6763 9.76024 12.7394 9.83198 12.788 9.94062C12.8136 9.99794 12.8376 10.0712 12.8479 10.1581C12.8585 10.247 12.8535 10.3418 12.8285 10.4371C12.7774 10.631 12.6637 10.755 12.5852 10.8208C12.5104 10.8834 12.4409 10.9164 12.4133 10.929C12.3858 10.9414 12.3565 10.9521 12.3696 10.9471C12.3706 10.9467 12.3852 10.9413 12.403 10.9335C12.4175 10.9272 12.4614 10.9079 12.5127 10.8746C12.5397 10.857 12.5796 10.8287 12.6226 10.7875C12.6651 10.7469 12.7233 10.6815 12.7713 10.588C12.8219 10.4895 12.8575 10.3656 12.8537 10.2253C12.85 10.0868 12.8088 9.97063 12.7609 9.88366C12.7149 9.80023 12.6618 9.7415 12.6235 9.70473C12.5845 9.66719 12.5482 9.64055 12.5227 9.62334C12.4735 9.59023 12.431 9.57029 12.4111 9.56134C12.3703 9.54303 12.3368 9.53255 12.3286 9.52998C12.3156 9.52587 12.3051 9.52298 12.3005 9.52171C12.2912 9.51917 12.2832 9.51718 12.2817 9.51679C12.2788 9.51608 12.2757 9.51529 12.2738 9.51482L11.9136 10.9709ZM14.4831 10.7603C14.2567 10.5716 14.1185 10.4559 13.9097 10.3106L13.0529 11.5419C13.2006 11.6446 13.2914 11.7198 13.5229 11.9127L14.4831 10.7603ZM11.9998 11.0088C12.2966 11.1102 12.7954 11.3627 13.0529 11.5419L13.9097 10.3106C13.5377 10.0518 12.9137 9.73591 12.4849 9.58936L11.9998 11.0088ZM11.4196 16.7723C12.362 17.3613 12.6774 17.57 12.8969 17.8427L14.0654 16.9022C13.6498 16.3858 13.0675 16.0334 12.2146 15.5003L11.4196 16.7723ZM14.9752 19.9983C14.8861 18.9964 14.8355 18.3177 14.5633 17.7133L13.1956 18.3294C13.3394 18.6486 13.3826 19.0243 13.4811 20.1312L14.9752 19.9983ZM12.8969 17.8427C13.0167 17.9916 13.1171 18.1551 13.1956 18.3294L14.5633 17.7133C14.4324 17.4229 14.2651 17.1503 14.0654 16.9022L12.8969 17.8427ZM9.46695 12.7939C9.38682 13.5953 9.31061 14.2133 9.48906 14.784L10.9207 14.3363C10.8555 14.1277 10.8661 13.8777 10.9595 12.9432L9.46695 12.7939ZM12.2146 15.5003C11.4181 15.0026 11.2139 14.858 11.0888 14.6788L9.85886 15.5374C10.2011 16.0277 10.7366 16.3455 11.4196 16.7723L12.2146 15.5003ZM9.48906 14.784C9.57305 15.0526 9.69777 15.3067 9.85886 15.5374L11.0888 14.6788C11.0156 14.5739 10.9589 14.4584 10.9207 14.3363L9.48906 14.784ZM11.1217 11.3215C11.1364 11.1744 11.1439 11.1036 11.1534 11.0503C11.1602 11.012 11.1646 11.003 11.1677 10.9963L9.80333 10.3729C9.67273 10.6588 9.65338 10.9296 9.62912 11.1722L11.1217 11.3215ZM12.2738 9.51482C12.0751 9.46569 11.8976 9.42151 11.7495 9.39313C11.5998 9.36443 11.428 9.34079 11.244 9.35673L11.3735 10.8511C11.3548 10.8528 11.369 10.8475 11.4671 10.8663C11.5669 10.8854 11.6991 10.9179 11.9136 10.9709L12.2738 9.51482ZM11.1677 10.9963C11.1606 11.0117 11.1607 11.0054 11.1811 10.9829C11.2001 10.9618 11.228 10.9366 11.2625 10.9123C11.297 10.8879 11.3301 10.8702 11.3563 10.8593C11.3844 10.8476 11.3904 10.8497 11.3735 10.8511L11.244 9.35673C10.9178 9.38499 10.6187 9.53074 10.3979 9.68649C10.1771 9.84225 9.93939 10.0752 9.80333 10.3729L11.1677 10.9963Z" fill="#1C274C"/>
<path d="M19 15V8M19 22V19" stroke="#1C274C" stroke-width="1.5" stroke-linecap="round"/>
<path d="M8 10L6.328 10.5573C5.53493 10.8217 5 11.5639 5 12.3998C5 12.7677 5.20781 13.1039 5.5368 13.2684L8 14.5" stroke="#1C274C" stroke-width="1.5" stroke-linecap="round"/>
</svg>
