<svg width="24" height="24" viewBox="0 0 24 24" fill="none" xmlns="http://www.w3.org/2000/svg">
<path d="M22 15.7728C20.4123 15.3987 19.5955 14.4796 18.9199 13.4574C18.4965 12.8168 17.5655 12.8558 17.1055 13.4706C16.0541 14.8762 14.4844 16.0004 12 16.0004C9.49345 16.0004 7.91806 14.57 6.86651 13.2239C6.42721 12.6616 5.58617 12.6691 5.20168 13.2702C4.50078 14.366 3.68402 15.376 2 15.7728" stroke="#1C274C" stroke-width="1.5" stroke-linecap="round" stroke-linejoin="round"/>
<path d="M4 11.501L7.47693 9.4148C8.27334 8.93695 8.4485 7.85754 7.84407 7.15237L6.85636 6.00004C6.37314 5.43628 6.40542 4.59553 6.93046 4.0705C7.51004 3.49092 8.45844 3.52053 9.00074 4.13513L9.81315 5.05586M15.5 11.501L12.2504 7.81804" stroke="#1C274C" stroke-width="1.5" stroke-linecap="round" stroke-linejoin="round"/>
<path d="M17 8C18.3807 8 19.5 6.88071 19.5 5.5C19.5 4.11929 18.3807 3 17 3C15.6193 3 14.5 4.11929 14.5 5.5C14.5 6.88071 15.6193 8 17 8Z" stroke="#1C274C" stroke-width="1.5" stroke-linecap="round" stroke-linejoin="round"/>
<path d="M12 21C9.49345 21 7.91806 19.6547 6.86651 18.3888C6.42721 17.8599 5.58617 17.867 5.20168 18.4323C4.50078 19.4629 3.68402 20.4127 2 20.7859M22 20.7859C20.4123 20.4341 19.5955 19.5697 18.9199 18.6083C18.4965 18.0059 17.5655 18.0425 17.1055 18.6208C16.6953 19.1365 16.2063 19.6119 15.6148 20" stroke="#1C274C" stroke-width="1.5" stroke-linecap="round" stroke-linejoin="round"/>
</svg>
