<svg width="24" height="24" viewBox="0 0 24 24" fill="none" xmlns="http://www.w3.org/2000/svg">
<path d="M16 10.4994C16 11.3278 15.5523 11.9994 15 11.9994C14.4477 11.9994 14 11.3278 14 10.4994C14 9.67099 14.4477 8.99941 15 8.99941C15.5523 8.99941 16 9.67099 16 10.4994Z" fill="#1C274C"/>
<path d="M10 10.4994C10 11.3278 9.55229 11.9994 9 11.9994C8.44772 11.9994 8 11.3278 8 10.4994C8 9.67099 8.44772 8.99941 9 8.99941C9.55229 8.99941 10 9.67099 10 10.4994Z" fill="#1C274C"/>
<path fill-rule="evenodd" clip-rule="evenodd" d="M13.265 2.05018C13.3474 1.64424 13.7433 1.38196 14.1492 1.46435C18.3627 2.31958 21.6798 5.63666 22.5351 9.85016C22.6175 10.2561 22.3553 10.652 21.9493 10.7344C21.5434 10.8168 21.1475 10.5545 21.0651 10.1486C20.3297 6.52544 17.474 3.66978 13.8508 2.93438C13.4449 2.85198 13.1826 2.45611 13.265 2.05018ZM10.7352 2.05023C10.8176 2.45617 10.5553 2.85204 10.1493 2.93443C6.52621 3.66983 3.6705 6.52549 2.93505 10.1486C2.85265 10.5545 2.45677 10.8168 2.05084 10.7344C1.6449 10.652 1.38263 10.2562 1.46503 9.85022C2.32032 5.63671 5.63744 2.31964 9.85097 1.46441C10.2569 1.38201 10.6528 1.6443 10.7352 2.05023ZM2.051 13.2644C2.45693 13.182 2.85281 13.4443 2.93521 13.8502C3.67066 17.4733 6.52636 20.329 10.1495 21.0644C10.5554 21.1468 10.8177 21.5427 10.7353 21.9486C10.6529 22.3545 10.2571 22.6168 9.85113 22.5344C5.6376 21.6792 2.32048 18.3621 1.46519 14.1486C1.38279 13.7427 1.64506 13.3468 2.051 13.2644ZM21.9493 13.2644C22.3553 13.3468 22.6175 13.7427 22.5351 14.1486C21.6798 18.3621 18.3627 21.6792 14.1492 22.5344C13.7433 22.6168 13.3474 22.3545 13.265 21.9486C13.1826 21.5427 13.4449 21.1468 13.8508 21.0644C17.474 20.329 20.3297 17.4733 21.0651 13.8502C21.1475 13.4443 21.5434 13.182 21.9493 13.2644ZM8.39748 15.5528C8.64413 15.22 9.11385 15.1502 9.44661 15.3969C10.175 15.9368 11.0541 16.2494 12 16.2494C12.9459 16.2494 13.825 15.9368 14.5534 15.3969C14.8862 15.1502 15.3559 15.22 15.6025 15.5528C15.8492 15.8856 15.7794 16.3553 15.4466 16.6019C14.4742 17.3227 13.285 17.7494 12 17.7494C10.715 17.7494 9.5258 17.3227 8.55339 16.6019C8.22062 16.3553 8.15082 15.8856 8.39748 15.5528Z" fill="#1C274C"/>
</svg>
