<svg width="24" height="24" viewBox="0 0 24 24" fill="none" xmlns="http://www.w3.org/2000/svg">
<path fill-rule="evenodd" clip-rule="evenodd" d="M14.3251 3.75017C14.2209 3.75002 14.1126 3.75 14 3.75L10 3.75C9.88741 3.75 9.77915 3.75002 9.67495 3.75017C9.37665 5.21938 8.21938 6.37665 6.75016 6.67496C6.75002 6.77915 6.75 6.88742 6.75 7C6.75 7.11259 6.75002 7.22086 6.75016 7.32505C8.21938 7.62335 9.37665 8.78062 9.67495 10.2498C9.77915 10.25 9.88741 10.25 10 10.25H14C14.1126 10.25 14.2208 10.25 14.325 10.2498C14.6233 8.78062 15.7806 7.62336 17.2498 7.32505C17.25 7.22086 17.25 7.11259 17.25 7C17.25 6.88742 17.25 6.77915 17.2498 6.67496C15.7806 6.37665 14.6234 5.21938 14.3251 3.75017ZM14.9295 2.25327C14.655 2.24998 14.3624 2.24999 14.052 2.25L9.948 2.25C9.63761 2.24999 9.34503 2.24998 9.07048 2.25327C9.04728 2.25111 9.02377 2.25 9 2.25C8.96861 2.25 8.93766 2.25193 8.90728 2.25568C8.4545 2.26372 8.05357 2.28312 7.70552 2.32991C7.07773 2.41432 6.51093 2.59999 6.05546 3.05546C5.59999 3.51093 5.41432 4.07773 5.32991 4.70552C5.28312 5.05357 5.26371 5.45451 5.25567 5.90728C5.25193 5.93767 5.25 5.96861 5.25 6C5.25 6.02377 5.2511 6.04728 5.25327 6.07048C5.24998 6.34503 5.24999 6.63761 5.25 6.948V7.052C5.24999 7.36239 5.24998 7.65497 5.25327 7.92952C5.2511 7.95273 5.25 7.97624 5.25 8C5.25 8.0314 5.25193 8.06234 5.25567 8.09272C5.26371 8.5455 5.28312 8.94643 5.32991 9.29448C5.41432 9.92228 5.59999 10.4891 6.05546 10.9445C6.51093 11.4 7.07773 11.5857 7.70552 11.6701C8.05357 11.7169 8.4545 11.7363 8.90728 11.7443C8.93766 11.7481 8.96861 11.75 9 11.75C9.02377 11.75 9.04727 11.7489 9.07048 11.7467C9.34503 11.75 9.63761 11.75 9.94801 11.75H14.052C14.3624 11.75 14.655 11.75 14.9295 11.7467C14.9527 11.7489 14.9762 11.75 15 11.75C15.0314 11.75 15.0623 11.7481 15.0927 11.7443C15.5455 11.7363 15.9464 11.7169 16.2945 11.6701C16.9223 11.5857 17.4891 11.4 17.9445 10.9445C18.4 10.4891 18.5857 9.92228 18.6701 9.29448C18.7169 8.94643 18.7363 8.5455 18.7443 8.09272C18.7481 8.06234 18.75 8.0314 18.75 8C18.75 7.97624 18.7489 7.95273 18.7467 7.92953C18.75 7.65497 18.75 7.36239 18.75 7.052V6.94801C18.75 6.63761 18.75 6.34503 18.7467 6.07048C18.7489 6.04728 18.75 6.02377 18.75 6C18.75 5.96861 18.7481 5.93767 18.7443 5.90729C18.7363 5.45451 18.7169 5.05357 18.6701 4.70552C18.5857 4.07773 18.4 3.51093 17.9445 3.05546C17.4891 2.59999 16.9223 2.41432 16.2945 2.32991C15.9464 2.28312 15.5455 2.26372 15.0927 2.25568C15.0623 2.25193 15.0314 2.25 15 2.25C14.9762 2.25 14.9527 2.25111 14.9295 2.25327ZM15.8941 3.79396C16.1219 4.39792 16.6021 4.8781 17.206 5.10591C17.1995 5.03597 17.192 4.96924 17.1835 4.90539C17.1214 4.44393 17.0142 4.24644 16.8839 4.11612C16.7536 3.9858 16.5561 3.87858 16.0946 3.81654C16.0308 3.80795 15.964 3.80048 15.8941 3.79396ZM17.206 8.89409C16.6021 9.12191 16.1219 9.60208 15.8941 10.206C15.964 10.1995 16.0308 10.1921 16.0946 10.1835C16.5561 10.1214 16.7536 10.0142 16.8839 9.88388C17.0142 9.75357 17.1214 9.55607 17.1835 9.09461C17.192 9.03076 17.1995 8.96404 17.206 8.89409ZM8.10591 10.206C7.8781 9.60208 7.39792 9.12191 6.79396 8.89409C6.80047 8.96404 6.80795 9.03076 6.81653 9.09461C6.87858 9.55607 6.9858 9.75357 7.11612 9.88389C7.24643 10.0142 7.44393 10.1214 7.90539 10.1835C7.96924 10.1921 8.03596 10.1995 8.10591 10.206ZM6.79396 5.10591C7.39792 4.8781 7.87809 4.39792 8.10591 3.79396C8.03596 3.80048 7.96924 3.80795 7.90539 3.81654C7.44393 3.87858 7.24643 3.9858 7.11612 4.11612C6.9858 4.24644 6.87858 4.44393 6.81653 4.90539C6.80795 4.96924 6.80047 5.03597 6.79396 5.10591ZM12 6.75C11.8619 6.75 11.75 6.86193 11.75 7C11.75 7.13807 11.8619 7.25 12 7.25C12.1381 7.25 12.25 7.13807 12.25 7C12.25 6.86193 12.1381 6.75 12 6.75ZM10.25 7C10.25 6.0335 11.0335 5.25 12 5.25C12.9665 5.25 13.75 6.0335 13.75 7C13.75 7.9665 12.9665 8.75 12 8.75C11.0335 8.75 10.25 7.9665 10.25 7ZM8.68391 14.4482C10.5497 14.0867 12.5471 14.1678 14.1632 15.1318C14.3903 15.2672 14.603 15.4359 14.7887 15.6444C15.1646 16.0666 15.3587 16.5913 15.3679 17.1174C15.5591 16.994 15.7507 16.857 15.9454 16.71L17.7525 15.3448C18.6571 14.6615 19.9718 14.6614 20.8765 15.3445C21.7124 15.9757 22.0457 17.1085 21.4472 18.0677C21.0219 18.7495 20.3814 19.6925 19.7296 20.2962C19.0706 20.9065 18.1329 21.4196 17.4235 21.762C16.562 22.1778 15.6316 22.4077 14.7268 22.5541C12.8776 22.8535 10.9534 22.8077 9.12499 22.431C8.19058 22.2384 7.21955 22.1384 6.25993 22.1384H4C3.58579 22.1384 3.25 21.8026 3.25 21.3884C3.25 20.9742 3.58579 20.6384 4 20.6384H6.25993C7.32204 20.6384 8.39448 20.749 9.42766 20.9618C11.0797 21.3022 12.8201 21.3432 14.4871 21.0734C15.316 20.9392 16.0901 20.74 16.7715 20.4111C17.4549 20.0812 18.2232 19.6468 18.7103 19.1957C19.2028 18.7395 19.754 17.9479 20.1746 17.2738C20.3015 17.0703 20.284 16.7767 19.9726 16.5416C19.6029 16.2624 19.0263 16.2625 18.6567 16.5417L16.8495 17.9069C16.1281 18.4518 15.2401 19.0349 14.1387 19.2106C14.0276 19.2283 13.9118 19.2445 13.7917 19.2588C13.7344 19.2692 13.6748 19.276 13.6132 19.2783C13.0509 19.3342 12.3997 19.3472 11.6813 19.2793C11.2689 19.2404 10.9661 18.8745 11.0051 18.4621C11.044 18.0497 11.4099 17.747 11.8223 17.786C12.4497 17.8452 13.0126 17.8321 13.4902 17.7831C13.4999 17.7821 13.5096 17.7811 13.5192 17.7801C13.5391 17.7685 13.5696 17.7474 13.6096 17.7125C13.929 17.4336 13.9576 16.9667 13.6684 16.6418C13.5951 16.5595 13.5048 16.4856 13.3949 16.42C12.2137 15.7155 10.6362 15.5978 8.96921 15.9208C7.31168 16.2419 5.66491 16.9817 4.43385 17.8547C4.09598 18.0943 3.62784 18.0146 3.38822 17.6768C3.14861 17.3389 3.22827 16.8708 3.56614 16.6311C4.96451 15.6395 6.8086 14.8115 8.68391 14.4482Z" fill="#1C274C"/>
</svg>
