<svg width="24" height="24" viewBox="0 0 24 24" fill="none" xmlns="http://www.w3.org/2000/svg">
<path fill-rule="evenodd" clip-rule="evenodd" d="M2.27732 7.93436C-0.358717 10.5704 -0.358717 14.8443 2.27732 17.4803C3.49943 18.7024 5.07536 19.3583 6.6749 19.4469C7.08848 19.4699 7.44233 19.1532 7.46524 18.7396C7.48815 18.326 7.17145 17.9722 6.75787 17.9492C5.51259 17.8803 4.28911 17.3708 3.33798 16.4196C1.28773 14.3694 1.28773 11.0453 3.33798 8.99502L6.16641 6.1666C8.21666 4.11634 11.5408 4.11634 13.591 6.1666C15.6413 8.21685 15.6413 11.541 13.591 13.5912L12.1768 15.0054C11.8839 15.2983 11.8839 15.7732 12.1768 16.0661C12.4697 16.359 12.9446 16.359 13.2375 16.0661L14.6517 14.6519C17.2877 12.0158 17.2877 7.74197 14.6517 5.10594C12.0157 2.4699 7.74179 2.4699 5.10575 5.10594L2.27732 7.93436Z" fill="#1C274C"/>
<path opacity="0.5" d="M10.409 17.8333C8.35877 15.783 8.35877 12.4589 10.409 10.4087L11.8232 8.99444C12.1161 8.70155 12.1161 8.22667 11.8232 7.93378C11.5303 7.64089 11.0555 7.64089 10.7626 7.93378L9.34837 9.34799C6.71233 11.984 6.71233 16.2579 9.34837 18.8939C11.9844 21.53 16.2583 21.53 18.8943 18.8939L21.7227 16.0655C24.3588 13.4295 24.3588 9.15561 21.7227 6.51957C20.5006 5.29746 18.9247 4.64153 17.3252 4.55293C16.9116 4.53002 16.5577 4.84672 16.5348 5.26029C16.5119 5.67387 16.8286 6.02772 17.2422 6.05063C18.4875 6.11961 19.7109 6.6291 20.6621 7.58023C22.7123 9.63048 22.7123 12.9546 20.6621 15.0048L17.8336 17.8333C15.7834 19.8835 12.4593 19.8835 10.409 17.8333Z" fill="#1C274C"/>
</svg>
