<svg width="24" height="24" viewBox="0 0 24 24" fill="none" xmlns="http://www.w3.org/2000/svg">
<path d="M13.1958 2.07031C13.1958 2.07031 12.9641 5.66902 15.4641 9.99915C17.9641 14.3293 21.1965 15.928 21.1965 15.928M2.80347 8.07031C2.80347 8.07031 6.03588 9.66902 8.53588 13.9992C11.0359 18.3293 10.8042 21.928 10.8042 21.928" stroke="#1C274C" stroke-width="1.5"/>
<path d="M7 3.33782C8.47087 2.48697 10.1786 2 12 2C17.5228 2 22 6.47715 22 12C22 17.5228 17.5228 22 12 22C6.47715 22 2 17.5228 2 12C2 10.1786 2.48697 8.47087 3.33782 7" stroke="#1C274C" stroke-width="1.5" stroke-linecap="round"/>
</svg>
