<svg width="24" height="24" viewBox="0 0 24 24" fill="none" xmlns="http://www.w3.org/2000/svg">
<path d="M13.1958 2.07031C13.1958 2.07031 12.0981 6.16902 14.5981 10.4992C17.0981 14.8293 21.1965 15.928 21.1965 15.928M2.80347 8.07031C2.80347 8.07031 6.90191 9.16902 9.40191 13.4992C11.9019 17.8293 10.8042 21.928 10.8042 21.928" stroke="#1C274C" stroke-width="1.5" stroke-dasharray="1.5 2"/>
<path d="M7 3.33782C8.47087 2.48697 10.1786 2 12 2C17.5228 2 22 6.47715 22 12C22 17.5228 17.5228 22 12 22C6.47715 22 2 17.5228 2 12C2 10.1786 2.48697 8.47087 3.33782 7" stroke="#1C274C" stroke-width="1.5" stroke-linecap="round"/>
</svg>
