<svg width="24" height="24" viewBox="0 0 24 24" fill="none" xmlns="http://www.w3.org/2000/svg">
<path fill-rule="evenodd" clip-rule="evenodd" d="M3.35791 12.7796C2.74772 13.7211 2.99956 15.03 3.50323 17.648C3.8658 19.5325 4.04709 20.4748 4.67523 21.1001C4.8382 21.2623 5.02054 21.4062 5.2186 21.5287C5.98195 22.0008 6.99539 22.0008 9.02227 22.0008H15.9777C18.0046 22.0008 19.0181 22.0008 19.7814 21.5287C19.9795 21.4062 20.1618 21.2623 20.3248 21.1001C20.9529 20.4748 21.1342 19.5325 21.4968 17.648C22.0004 15.03 22.2523 13.7211 21.6421 12.7796C21.4864 12.5394 21.2943 12.322 21.0721 12.1342C20.2011 11.3984 18.7933 11.3984 15.9777 11.3984H9.02227C6.20667 11.3984 4.79888 11.3984 3.92792 12.1342C3.70566 12.322 3.51363 12.5394 3.35791 12.7796ZM9.69518 17.1816C9.69518 16.7823 10.0376 16.4587 10.4601 16.4587H14.5398C14.9622 16.4587 15.3047 16.7823 15.3047 17.1816C15.3047 17.5808 14.9622 17.9045 14.5398 17.9045H10.4601C10.0376 17.9045 9.69518 17.5808 9.69518 17.1816Z" fill="#1C274C"/>
<path opacity="0.5" d="M3.5762 12.4846C3.68271 12.3586 3.80034 12.241 3.92792 12.1332C4.79888 11.3975 6.20667 11.3975 9.02227 11.3975H15.9777C18.7933 11.3975 20.2011 11.3975 21.0721 12.1332C21.2 12.2413 21.3179 12.3592 21.4247 12.4857V9.75579C21.4247 8.84687 21.4247 8.09279 21.3394 7.49156C21.2494 6.85704 21.0531 6.29458 20.5839 5.83245C20.5074 5.75707 20.4266 5.68552 20.342 5.61807C19.8302 5.21023 19.2167 5.04345 18.5222 4.96608C17.8531 4.89155 17.0102 4.89157 15.9769 4.89158L15.6242 4.89158C14.6421 4.89158 14.29 4.88587 13.9711 4.80533C13.7837 4.75802 13.604 4.69195 13.4352 4.60878C13.151 4.46867 12.9033 4.25762 12.2077 3.64132L11.7336 3.22128C11.5345 3.04489 11.3987 2.9245 11.2531 2.81755C10.6284 2.35879 9.86779 2.08132 9.07145 2.01534C8.88602 1.99998 8.6968 1.99999 8.41356 2.00002L8.29714 2.00001C7.65647 1.9999 7.23365 1.99983 6.86652 2.0612C5.26167 2.32947 3.96392 3.45143 3.64782 4.93575C3.57591 5.27344 3.57602 5.66035 3.57619 6.21853L3.5762 12.4846Z" fill="#1C274C"/>
</svg>
