<svg width="24" height="24" viewBox="0 0 24 24" fill="none" xmlns="http://www.w3.org/2000/svg">
<path fill-rule="evenodd" clip-rule="evenodd" d="M4.92908 1.53015L4.97786 1.53694C5.26591 1.57701 5.52072 1.61246 5.73095 1.65748C5.95496 1.70544 6.18281 1.7746 6.40061 1.90876C6.88292 2.20585 7.22125 2.6863 7.35882 3.23251C7.42804 3.50732 7.40909 3.86904 7.38832 4.1394C7.38196 4.22215 7.3742 4.30823 7.36549 4.3962L12.022 5.04417C12.0334 4.96582 12.0452 4.88927 12.0574 4.81565C12.1016 4.54986 12.1697 4.19252 12.3041 3.94223C12.5712 3.44482 13.0208 3.06574 13.5674 2.9078C13.814 2.83652 14.0532 2.83232 14.2809 2.84723C14.495 2.86126 14.7499 2.89673 15.0378 2.93681L15.0866 2.9436C15.3747 2.98367 15.6295 3.01912 15.8397 3.06413C16.0637 3.1121 16.2916 3.18126 16.5094 3.31541C16.9917 3.61251 17.33 4.09296 17.4676 4.63917C17.5286 4.88152 17.533 5.11858 17.5196 5.35385C17.5068 5.57771 17.4743 5.84601 17.4364 6.15777L17.0865 9.04261C17.0487 9.35432 17.0162 9.62269 16.9751 9.84275C16.9321 10.0736 16.871 10.3035 16.7526 10.5241C16.4855 11.0215 16.0359 11.4006 15.4893 11.5585C15.2427 11.6298 15.0035 11.634 14.7758 11.6191C14.5617 11.6051 14.3068 11.5696 14.0189 11.5295L13.9701 11.5227C13.682 11.4827 13.4272 11.4472 13.217 11.4022C12.993 11.3542 12.7651 11.2851 12.5473 11.1509C12.065 10.8538 11.7267 10.3734 11.5891 9.82716C11.5199 9.55235 11.5388 9.19063 11.5596 8.92027C11.566 8.83752 11.5737 8.75144 11.5824 8.66347L6.92592 8.0155C6.91452 8.09385 6.90273 8.17039 6.89049 8.24402C6.84629 8.50981 6.7782 8.86715 6.64382 9.11744C6.37677 9.61485 5.92711 9.99393 5.38055 10.1519C5.13391 10.2231 4.89473 10.2273 4.66703 10.2124C4.4529 10.1984 4.19803 10.1629 3.9101 10.1229L3.86133 10.1161C3.57328 10.076 3.31847 10.0406 3.10824 9.99553C2.88423 9.94757 2.65638 9.87841 2.43858 9.74426C1.95627 9.44716 1.61794 8.96671 1.48037 8.4205C1.41933 8.17815 1.41493 7.94109 1.42836 7.70583C1.44114 7.48195 1.47369 7.21364 1.51151 6.90185L1.86139 4.01701C1.89919 3.70532 1.93173 3.43697 1.9728 3.21691C2.01588 2.98608 2.07692 2.75619 2.19537 2.53557C2.46242 2.03816 2.91208 1.65908 3.45864 1.50114C3.70528 1.42987 3.94446 1.42566 4.17215 1.44058C4.38629 1.4546 4.64115 1.49008 4.92908 1.53015ZM4.07413 2.93737C3.92878 2.92785 3.88517 2.93926 3.87506 2.94218C3.73697 2.98208 3.60341 3.08406 3.51695 3.2451C3.50282 3.27141 3.47752 3.3304 3.44734 3.49212C3.41612 3.65936 3.38905 3.87965 3.34776 4.22005L3.00331 7.06013C2.96203 7.40047 2.93565 7.62093 2.92592 7.79131C2.91654 7.95562 2.92672 8.02149 2.93494 8.05414C2.98207 8.24128 3.09286 8.38554 3.22528 8.4671C3.238 8.47494 3.27984 8.49828 3.42232 8.52879C3.57268 8.56098 3.77272 8.58929 4.09239 8.63377C4.41214 8.67826 4.61219 8.70563 4.76506 8.71564C4.91041 8.72516 4.95403 8.71376 4.96413 8.71084C5.10012 8.67154 5.23172 8.57204 5.31827 8.41522C5.31879 8.41304 5.3299 8.38533 5.34688 8.3183C5.36744 8.23711 5.38883 8.13011 5.41081 7.99797C5.45495 7.73254 5.4938 7.41339 5.53448 7.07796C5.55871 6.87822 5.66217 6.6966 5.82161 6.57389C5.98106 6.45118 6.18312 6.39769 6.3824 6.42541L12.5139 7.27863C12.9191 7.33501 13.2044 7.70568 13.1551 8.11178C13.1144 8.44718 13.0759 8.76641 13.0552 9.03517C13.0449 9.16896 13.0401 9.27846 13.0406 9.36293C13.041 9.43725 13.0457 9.46725 13.0454 9.46731C13.0934 9.65129 13.2031 9.79315 13.334 9.87376C13.3467 9.8816 13.3886 9.90493 13.5311 9.93544C13.6814 9.96764 13.8815 9.99594 14.2011 10.0404C14.5209 10.0849 14.7209 10.1123 14.8738 10.1223C15.0192 10.1318 15.0628 10.1204 15.0729 10.1175C15.211 10.0776 15.3445 9.97561 15.431 9.81457C15.4451 9.78827 15.4704 9.72928 15.5006 9.56755C15.5318 9.4003 15.5589 9.18001 15.6002 8.83962L15.9446 5.99954C15.9859 5.65921 16.0123 5.43874 16.022 5.26836C16.0314 5.10404 16.0212 5.03818 16.013 5.00553C15.9659 4.81839 15.8551 4.67413 15.7227 4.59256C15.7099 4.58472 15.6681 4.56139 15.5256 4.53088C15.3753 4.49869 15.1752 4.47038 14.8555 4.4259C14.5358 4.38141 14.3357 4.35404 14.1829 4.34403C14.0375 4.33451 13.9939 4.34591 13.9838 4.34883C13.8478 4.38813 13.7162 4.48763 13.6297 4.64445C13.6292 4.64661 13.618 4.67432 13.6011 4.74137C13.5805 4.82256 13.5591 4.92955 13.5371 5.0617C13.493 5.32713 13.4541 5.64628 13.4134 5.98171C13.3892 6.18145 13.2858 6.36307 13.1263 6.48578C12.9669 6.60849 12.7648 6.66198 12.5655 6.63425L6.434 5.78104C6.02883 5.72466 5.74357 5.35399 5.79283 4.94789C5.83351 4.61248 5.87208 4.29326 5.89272 4.0245C5.903 3.89071 5.90786 3.78121 5.90734 3.69674C5.90689 3.62275 5.90225 3.59269 5.90258 3.59236C5.85453 3.40838 5.74479 3.26652 5.61391 3.18591C5.60119 3.17807 5.55935 3.15474 5.41687 3.12423C5.26651 3.09203 5.06647 3.06373 4.7468 3.01924C4.42705 2.97475 4.227 2.94738 4.07413 2.93737ZM19.1975 12.246C19.0469 12.2776 18.8517 12.3332 18.5403 12.4226C18.2291 12.5119 18.0339 12.5684 17.8884 12.6217C17.7506 12.6723 17.7101 12.702 17.6962 12.7135C17.5717 12.8158 17.4787 12.9768 17.4535 13.1684C17.4539 13.1684 17.4529 13.1989 17.4617 13.2728C17.4716 13.3565 17.4899 13.4642 17.5166 13.5953C17.5702 13.8586 17.6478 14.1694 17.7295 14.4962C17.8276 14.8883 17.5974 15.2876 17.2089 15.3991L11.2365 17.1132C11.041 17.1693 10.8311 17.1436 10.6549 17.042C10.4787 16.9404 10.3514 16.7716 10.302 16.5743C10.2203 16.2475 10.1424 15.9369 10.0659 15.6802C10.0279 15.5525 9.99355 15.4497 9.96331 15.3726C9.9395 15.3119 9.92555 15.2862 9.92409 15.2829C9.82228 15.1449 9.68466 15.0677 9.54852 15.0485C9.53916 15.0471 9.4947 15.0418 9.35112 15.072C9.20056 15.1036 9.00535 15.1592 8.69398 15.2486C8.38275 15.3379 8.18758 15.3944 8.04209 15.4477C7.90426 15.4983 7.86376 15.528 7.84981 15.5395C7.72395 15.6429 7.63027 15.8064 7.60638 16.0007C7.60217 16.035 7.60032 16.1019 7.62981 16.2629C7.66044 16.4302 7.71374 16.6448 7.79669 16.9764L8.48871 19.7427C8.57168 20.0744 8.62564 20.2886 8.67711 20.4496C8.72692 20.6054 8.75879 20.6587 8.77454 20.6807C8.87686 20.8235 9.01705 20.9032 9.15568 20.9228C9.16504 20.9241 9.2095 20.9294 9.35308 20.8992C9.50365 20.8676 9.69886 20.812 10.0102 20.7227C10.3214 20.6333 10.5166 20.5769 10.6621 20.5235C10.7999 20.4729 10.8405 20.4432 10.8544 20.4317C10.9789 20.3294 11.0719 20.1684 11.097 19.9768C11.0966 19.9768 11.0976 19.9464 11.0889 19.8724C11.0789 19.7887 11.0606 19.681 11.034 19.5499C10.9803 19.2866 10.9028 18.9758 10.821 18.6491C10.7229 18.257 10.9532 17.8577 11.3417 17.7462L17.3141 16.032C17.5096 15.9759 17.7195 16.0016 17.8956 16.1032C18.0718 16.2048 18.1992 16.3736 18.2486 16.5709C18.3303 16.8977 18.4082 17.2084 18.4846 17.465C18.5227 17.5928 18.557 17.6955 18.5872 17.7726C18.611 17.8334 18.625 17.8591 18.6265 17.8623C18.7283 18.0004 18.8659 18.0776 19.002 18.0968C19.0114 18.0981 19.0559 18.1034 19.1994 18.0732C19.35 18.0416 19.5452 17.986 19.8566 17.8967C20.1678 17.8074 20.363 17.7509 20.5085 17.6975C20.6463 17.6469 20.6868 17.6172 20.7007 17.6057C20.8266 17.5023 20.9203 17.3389 20.9442 17.1445C20.9484 17.1102 20.9502 17.0433 20.9207 16.8823C20.8901 16.715 20.8368 16.5004 20.7539 16.1689L20.0618 13.4025C19.9789 13.0708 19.9249 12.8566 19.8734 12.6956C19.8236 12.5398 19.7918 12.4866 19.776 12.4646C19.6737 12.3217 19.5335 12.242 19.3949 12.2225C19.3855 12.2211 19.341 12.2159 19.1975 12.246ZM18.8891 10.7781C19.1123 10.7312 19.35 10.7013 19.6043 10.7372C20.1687 10.8168 20.666 11.1313 20.9954 11.591C21.1415 11.795 21.2309 12.0159 21.3022 12.2388C21.3702 12.4514 21.4356 12.713 21.5115 13.0164L22.2145 15.8267C22.2905 16.1303 22.3559 16.3918 22.3962 16.6121C22.4387 16.8439 22.4635 17.0794 22.433 17.3275C22.3643 17.8862 22.0899 18.4056 21.6532 18.7645C21.4562 18.9265 21.2408 19.0266 21.025 19.1058C20.8225 19.18 20.5746 19.2512 20.2938 19.3317L20.2467 19.3453C19.9661 19.4258 19.7181 19.497 19.5078 19.5412C19.2846 19.5881 19.0469 19.6179 18.7926 19.5821C18.2282 19.5025 17.7309 19.188 17.4015 18.7282C17.2356 18.4966 17.1234 18.1497 17.047 17.8933C17.0272 17.8265 17.0074 17.7572 16.9877 17.6863L12.4472 18.9894C12.4676 19.0788 12.4867 19.1664 12.5038 19.2507C12.5579 19.5162 12.6212 19.872 12.5866 20.1535C12.5179 20.7122 12.2436 21.2316 11.8068 21.5905C11.6098 21.7525 11.3944 21.8526 11.1787 21.9317C10.9762 22.006 10.7283 22.0771 10.4476 22.1577L10.4003 22.1713C10.1198 22.2518 9.87177 22.323 9.66148 22.3672C9.4383 22.4141 9.20051 22.4439 8.94623 22.4081C8.38181 22.3285 7.8845 22.014 7.55514 21.5542C7.40901 21.3502 7.31962 21.1293 7.24835 20.9064C7.18039 20.6938 7.11495 20.4322 7.03906 20.1288L6.33606 17.3185C6.2601 17.0149 6.19467 16.7534 6.15434 16.5331C6.11189 16.3013 6.0871 16.0658 6.11759 15.8178C6.18626 15.259 6.46064 14.7396 6.89737 14.3807C7.09439 14.2188 7.30979 14.1186 7.52554 14.0395C7.72802 13.9652 7.97595 13.8941 8.25676 13.8135L8.30381 13.8C8.5844 13.7194 8.83243 13.6482 9.04273 13.6041C9.26591 13.5572 9.50369 13.5273 9.75797 13.5632C10.3224 13.6427 10.8197 13.9573 11.1491 14.417C11.315 14.6487 11.4271 14.9955 11.5035 15.252C11.5234 15.3187 11.5432 15.388 11.5628 15.459L16.1033 14.1558C16.083 14.0664 16.0639 13.9788 16.0467 13.8946C15.9927 13.629 15.9293 13.2732 15.9639 12.9918C16.0326 12.4331 16.307 11.9136 16.7437 11.5547C16.9407 11.3928 17.1561 11.2926 17.3719 11.2135C17.5744 11.1392 17.8223 11.0681 18.1031 10.9875L18.1502 10.974C18.4308 10.8934 18.6788 10.8222 18.8891 10.7781Z" fill="#1C274C"/>
</svg>
