<svg width="24" height="24" viewBox="0 0 24 24" fill="none" xmlns="http://www.w3.org/2000/svg">
<path fill-rule="evenodd" clip-rule="evenodd" d="M12.9387 4.73542C13.3512 4.69785 13.7161 5.0018 13.7537 5.4143C13.8025 5.95058 13.8931 6.53361 14.0452 7.14711C14.1448 7.54916 13.8997 7.95586 13.4976 8.05549C13.0955 8.15512 12.6889 7.90997 12.5892 7.50791C12.4173 6.81421 12.315 6.15558 12.2599 5.55036C12.2223 5.13785 12.5262 4.77299 12.9387 4.73542ZM5.23957 9.18054C5.47836 8.84208 5.94631 8.76129 6.28477 9.00008C6.78134 9.35043 7.30056 9.76836 7.81538 10.2641C8.11375 10.5514 8.12271 11.0262 7.8354 11.3246C7.54809 11.6229 7.0733 11.6319 6.77493 11.3446C6.31964 10.9062 5.86003 10.5362 5.42003 10.2257C5.08157 9.98694 5.00078 9.51899 5.23957 9.18054ZM13.8362 8.99599C14.2095 8.81661 14.6576 8.97385 14.837 9.3472C14.9607 9.60468 15.0972 9.86417 15.2476 10.1247C15.398 10.3852 15.5545 10.6332 15.7156 10.869C15.9493 11.2111 15.8614 11.6778 15.5194 11.9114C15.1773 12.145 14.7107 12.0572 14.477 11.7151C14.2949 11.4485 14.1182 11.1685 13.9486 10.8747C13.7789 10.5809 13.6248 10.2879 13.4849 9.99681C13.3056 9.62346 13.4628 9.17538 13.8362 8.99599ZM8.48062 12.088C8.82265 11.8544 9.28932 11.9422 9.52296 12.2843C9.70511 12.5509 9.88179 12.8309 10.0514 13.1247C10.2211 13.4185 10.3752 13.7115 10.515 14.0026C10.6944 14.3759 10.5372 14.824 10.1638 15.0034C9.79047 15.1828 9.34239 15.0256 9.163 14.6522C9.03929 14.3947 8.90282 14.1352 8.7524 13.8747C8.60198 13.6142 8.44549 13.3662 8.28436 13.1304C8.05072 12.7883 8.13859 12.3217 8.48062 12.088ZM16.1646 12.6748C16.4519 12.3765 16.9267 12.3675 17.2251 12.6548C17.6803 13.0932 18.14 13.4632 18.58 13.7737C18.9184 14.0125 18.9992 14.4804 18.7604 14.8189C18.5216 15.1573 18.0537 15.2381 17.7152 14.9993C17.2186 14.649 16.6994 14.2311 16.1846 13.7353C15.8862 13.448 15.8773 12.9732 16.1646 12.6748ZM10.5024 15.9439C10.9044 15.8443 11.3111 16.0894 11.4108 16.4915C11.5827 17.1852 11.685 17.8438 11.7401 18.4491C11.7777 18.8616 11.4738 19.2264 11.0613 19.264C10.6487 19.3016 10.2839 18.9976 10.2463 18.5851C10.1975 18.0488 10.1068 17.4658 9.95481 16.8523C9.85518 16.4502 10.1003 16.0436 10.5024 15.9439Z" fill="#1C274C"/>
<path fill-rule="evenodd" clip-rule="evenodd" d="M13.286 1.32632C11.0552 1.05591 8.72008 1.48034 6.62499 2.68993C1.48335 5.65846 -0.278309 12.2331 2.69022 17.3747C5.65875 22.5164 12.2333 24.278 17.375 21.3095C19.4701 20.0999 21.0052 18.2898 21.8864 16.2227C23.1662 13.2206 23.0685 9.67094 21.3098 6.62471C19.551 3.57847 16.5258 1.71902 13.286 1.32632ZM13.7803 3.08033C13.7311 3.49161 13.3578 3.7851 12.9465 3.73585C12.5352 3.68661 12.2417 3.31329 12.291 2.90201C12.2971 2.85081 12.3034 2.8013 12.3098 2.75354C10.6382 2.6958 8.93112 3.09054 7.37499 3.98897C5.81966 4.88694 4.62377 6.16839 3.83779 7.64494C3.88231 7.66328 3.92829 7.68258 3.97567 7.70286C4.35647 7.86585 4.53303 8.30668 4.37004 8.68748C4.20705 9.06827 3.76622 9.24484 3.38542 9.08184C3.33571 9.06057 3.28795 9.04062 3.24227 9.02195C2.41539 11.457 2.6024 14.2226 3.98926 16.6247C5.37611 19.0268 7.67767 20.5716 10.1999 21.073C10.2066 21.0241 10.2132 20.9728 10.2196 20.9191C10.2689 20.5078 10.6422 20.2143 11.0535 20.2636C11.4648 20.3128 11.7583 20.6861 11.709 21.0974C11.7029 21.1486 11.6966 21.198 11.6902 21.2458C13.3619 21.3034 15.0697 20.9084 16.625 20.0104C18.1811 19.112 19.3765 17.831 20.1623 16.3545C20.1178 16.3362 20.0717 16.3168 20.0243 16.2966C19.6435 16.1336 19.467 15.6927 19.63 15.3119C19.7929 14.9311 20.2338 14.7546 20.6146 14.9176C20.6643 14.9388 20.7121 14.9588 20.7577 14.9775C21.5851 12.5411 21.3973 9.77639 20.0107 7.37471C18.6241 4.97302 16.3237 3.42808 13.8 2.92639C13.7934 2.97529 13.7868 3.02664 13.7803 3.08033Z" fill="#1C274C"/>
</svg>
