<svg width="24" height="24" viewBox="0 0 24 24" fill="none" xmlns="http://www.w3.org/2000/svg">
<path fill-rule="evenodd" clip-rule="evenodd" d="M22.2954 6.31083C22.6761 6.474 22.8525 6.91491 22.6893 7.29563L22 7.00019C22.6893 7.29563 22.6894 7.29546 22.6893 7.29563L22.6886 7.29731L22.6875 7.2998L22.6843 7.30716L22.6737 7.33123C22.6647 7.35137 22.6519 7.37958 22.6353 7.41527C22.602 7.48662 22.5533 7.58794 22.4889 7.71435C22.36 7.967 22.1676 8.32087 21.9085 8.73666C21.4829 9.4197 20.8724 10.2778 20.062 11.1304L21.0303 12.0987C21.3232 12.3916 21.3232 12.8665 21.0303 13.1594C20.7374 13.4523 20.2625 13.4523 19.9697 13.1594L18.9691 12.1588C18.3094 12.7115 17.5529 13.2302 16.6951 13.6564L17.6286 15.0912C17.8545 15.4383 17.7562 15.9029 17.409 16.1288C17.0618 16.3547 16.5973 16.2564 16.3713 15.9092L15.2822 14.2353C14.5028 14.4898 13.659 14.6628 12.75 14.7248V16.5002C12.75 16.9144 12.4142 17.2502 12 17.2502C11.5858 17.2502 11.25 16.9144 11.25 16.5002V14.7248C10.369 14.6647 9.54916 14.5004 8.78989 14.2586L7.71581 15.9093C7.48991 16.2565 7.02532 16.3548 6.67813 16.1289C6.33095 15.903 6.23263 15.4384 6.45853 15.0912L7.37095 13.689C6.50657 13.2668 5.74387 12.7504 5.07848 12.1984L4.1175 13.1594C3.82461 13.4523 3.34974 13.4523 3.05684 13.1594C2.76395 12.8665 2.76395 12.3917 3.05684 12.0988L3.98061 11.175C3.15605 10.3153 2.53531 9.44675 2.10283 8.75486C1.8399 8.33423 1.64466 7.97584 1.51394 7.71988C1.44854 7.59182 1.39916 7.48914 1.36543 7.41683C1.34856 7.38067 1.33559 7.35207 1.32648 7.33167L1.31568 7.30729L1.31244 7.29984L1.31135 7.29733L1.31095 7.29638C1.31087 7.2962 1.31063 7.29563 1.99998 7.00019L1.31095 7.29638C1.14778 6.91565 1.32382 6.474 1.70455 6.31083C2.08495 6.1478 2.52545 6.32374 2.68894 6.70381C2.68888 6.70368 2.689 6.70394 2.68894 6.70381L2.6899 6.706L2.69597 6.71972C2.70186 6.73291 2.71146 6.7541 2.72479 6.78267C2.75145 6.83983 2.79302 6.92644 2.84982 7.03767C2.96351 7.26029 3.13768 7.58046 3.37479 7.95979C3.85039 8.72067 4.57163 9.70728 5.55567 10.6218C6.42157 11.4265 7.48265 12.1678 8.75171 12.656C9.7062 13.0232 10.7854 13.2502 12 13.2502C13.2417 13.2502 14.3421 13.013 15.3125 12.631C16.5739 12.1345 17.6277 11.3884 18.4867 10.5822C19.4562 9.67216 20.1669 8.69535 20.6354 7.9434C20.869 7.5685 21.0406 7.25246 21.1526 7.03286C21.2086 6.92315 21.2495 6.83776 21.2758 6.78144C21.2889 6.75328 21.2983 6.73242 21.3041 6.71943L21.3101 6.70595L21.3106 6.70475C21.3106 6.70485 21.3107 6.70466 21.3106 6.70475M22.2954 6.31083C21.9148 6.14771 21.4739 6.32423 21.3106 6.70475L22.2954 6.31083ZM2.68894 6.70381C2.68888 6.70368 2.689 6.70394 2.68894 6.70381V6.70381Z" fill="#1C274C"/>
</svg>
